<svg xmlns="http://www.w3.org/2000/svg" xmlns:xlink="http://www.w3.org/1999/xlink" width="104.673mm" height="86.081mm" viewBox="4037.6 3037.3 412.1 338.9"><title></title><style type="text/css">
*[layerid="1"] {stroke:#000000;fill:#000000;}
*[layerid="2"] {stroke:#000000;fill:#000000;}
*[layerid="3"] {stroke:#000000;fill:#000000;}
*[layerid="4"] {stroke:#000000;fill:#000000;}
*[layerid="5"] {stroke:#000000;fill:#000000;}
*[layerid="6"] {stroke:#000000;fill:#000000;}
*[layerid="7"] {stroke:#000000;fill:#000000;}
*[layerid="8"] {stroke:#000000;fill:#000000;}
*[layerid="9"] {stroke:#000000;fill:#000000;}
*[layerid="10"] {stroke:#000000;fill:#000000;}
*[layerid="11"] {stroke:#000000;fill:#000000;}
*[layerid="12"] {stroke:#000000;fill:#000000;}
*[layerid="13"] {stroke:#000000;fill:#000000;}
*[layerid="14"] {stroke:#000000;fill:#000000;}
*[layerid="15"] {stroke:#000000;fill:#000000;}
*[layerid="19"] {stroke:#000000;fill:#000000;}
*[layerid="21"] {stroke:#000000;fill:#000000;}
*[layerid="22"] {stroke:#000000;fill:#000000;}
*[layerid="23"] {stroke:#000000;fill:#000000;}
*[layerid="24"] {stroke:#000000;fill:#000000;}
*[layerid="25"] {stroke:#000000;fill:#000000;}
*[layerid="26"] {stroke:#000000;fill:#000000;}
*[layerid="27"] {stroke:#000000;fill:#000000;}
*[layerid="28"] {stroke:#000000;fill:#000000;}
*[layerid="29"] {stroke:#000000;fill:#000000;}
*[layerid="30"] {stroke:#000000;fill:#000000;}
*[layerid="31"] {stroke:#000000;fill:#000000;}
*[layerid="32"] {stroke:#000000;fill:#000000;}
*[layerid="33"] {stroke:#000000;fill:#000000;}
*[layerid="34"] {stroke:#000000;fill:#000000;}
*[layerid="35"] {stroke:#000000;fill:#000000;}
*[layerid="36"] {stroke:#000000;fill:#000000;}
*[layerid="37"] {stroke:#000000;fill:#000000;}
*[layerid="38"] {stroke:#000000;fill:#000000;}
*[layerid="39"] {stroke:#000000;fill:#000000;}
*[layerid="40"] {stroke:#000000;fill:#000000;}
*[layerid="41"] {stroke:#000000;fill:#000000;}
*[layerid="42"] {stroke:#000000;fill:#000000;}
*[layerid="43"] {stroke:#000000;fill:#000000;}
*[layerid="44"] {stroke:#000000;fill:#000000;}
*[layerid="45"] {stroke:#000000;fill:#000000;}
*[layerid="46"] {stroke:#000000;fill:#000000;}
*[layerid="47"] {stroke:#000000;fill:#000000;}
*[layerid="48"] {stroke:#000000;fill:#000000;}
*[layerid="49"] {stroke:#000000;fill:#000000;}
*[layerid="50"] {stroke:#000000;fill:#000000;}
*[layerid="51"] {stroke:#000000;fill:#000000;}
*[layerid="52"] {stroke:#000000;fill:#000000;}
*[layerid="99"] {stroke:#000000;fill:#000000;}
*[layerid="100"] {stroke:#000000;fill:#000000;}
*[layerid="101"] {stroke:#000000;fill:#000000;}
*[layerid="Hole"] {stroke:#000000;fill:#000000;}
*[layerid="DRCError"] {stroke:#000000;fill:#000000;}
*[fill="none"] {fill: none;}
*[stroke="none"] {stroke: none;}
path, polyline, polygon, line {stroke-linecap:round;}
g[c_partid="part_pad"][layerid="1"] ellipse:not([c_etype="pad_outer"]) {fill:#000000;}
g[c_partid="part_pad"][layerid="1"] polygon:not([c_etype="pad_outer"]) {fill:#000000;}
g[c_partid="part_pad"][layerid="1"] polyline:not([c_etype="pad_outer"]) {stroke:#000000;}
g[c_partid="part_pad"][layerid="2"] ellipse:not([c_etype="pad_outer"]) {fill:#000000;}
g[c_partid="part_pad"][layerid="2"] polygon:not([c_etype="pad_outer"]) {fill:#000000;}
g[c_partid="part_pad"][layerid="2"] polyline:not([c_etype="pad_outer"]) {stroke:#000000;}
g[c_partid="part_pad"][layerid="11"] ellipse:not([c_etype="pad_outer"]) {fill:#000000;}
g[c_partid="part_pad"][layerid="11"] polygon:not([c_etype="pad_outer"]) {fill:#000000;}
g[c_partid="part_pad"][layerid="11"] polyline:not([c_etype="pad_outer"]) {stroke:#000000;}
g[c_partid="part_pad"][layerid="11"] circle {fill:#FFFFFF;}
g[c_partid="part_pad"][layerid="11"] > polyline:nth-of-type(2) {stroke:#FFFFFF;}
g[c_partid="part_pad"][layerid="11"][c_shape="ELLIPSE"]  polyline:nth-last-of-type(1) {stroke:#FFFFFF;}
g[c_partid="part_pad"][layerid="11"][c_shape="RECT"]  polyline:nth-last-of-type(1) {stroke:#FFFFFF;}
g[c_partid="part_pad"][layerid="11"][c_shape="POLYGON"]  polyline:nth-last-of-type(1) {stroke:#FFFFFF;}
g[c_partid="part_via"] > * + circle, #gCurParts g[c_partid="part_via"] > * + circle {fill:#FFFFFF;}
g[c_partid="part_pad"] > polygon[c_etype="pad_outer"], #gCurParts g[c_partid="part_pad"] > polygon[c_etype="pad_outer"] {stroke-linejoin: round;stroke-miterlimit: 100;}
g[c_partid="part_hole"] > circle {fill: #FFFFFF;}path, polyline, polygon {stroke-linejoin:round;}
rect, circle, ellipse, polyline, line, polygon, path {shape-rendering:crispEdges;}
</style>
<rect x="4037.6" y="3037.3" width="412.1" height="338.9" fill="#FFFFFF" stroke="none"/><g c_partid="part_pad" c_etype="pinpart" c_origin="4336.3689,3217.331" layerid="1" number="2" net="GND" plated ="Y"  id="gge69" locked="0" c_rotation="0" c_width="3.1496" c_height="3.5433" title="GND" c_shape="RECT" pasteexpansion="0.0000" solderexpansion="0.2000"><polygon  c_etype="pad_shell" points="4334.794 3215.5593 4337.9436 3215.5593 4337.9436 3219.1027 4334.794 3219.1027" layerid="1" stroke-width="0" /><circle c_etype="pad_hole" cx="4336.3684" cy="3217.331" r="0" layerid="1" stroke-width="0"/></g><g c_partid="part_pad" c_etype="pinpart" c_origin="4330.8569,3217.331" layerid="1" number="1" net="+5V" plated ="Y"  id="gge84" locked="0" c_rotation="0" c_width="3.1496" c_height="3.5433" title="+5V" c_shape="RECT" pasteexpansion="0.0000" solderexpansion="0.2000"><polygon  c_etype="pad_shell" points="4329.2822 3215.5593 4332.4318 3215.5593 4332.4318 3219.1027 4329.2822 3219.1027" layerid="1" stroke-width="0" /><circle c_etype="pad_hole" cx="4330.8574" cy="3217.331" r="0" layerid="1" stroke-width="0"/></g><g c_partid="part_pad" c_etype="pinpart" c_origin="4356.3689,3217.331" layerid="1" number="2" net="GND" plated ="Y"  id="gge165" locked="0" c_rotation="0" c_width="3.1496" c_height="3.5433" title="GND" c_shape="RECT" pasteexpansion="0.0000" solderexpansion="0.2000"><polygon  c_etype="pad_shell" points="4354.794 3215.5593 4357.9436 3215.5593 4357.9436 3219.1027 4354.794 3219.1027" layerid="1" stroke-width="0" /><circle c_etype="pad_hole" cx="4356.3684" cy="3217.331" r="0" layerid="1" stroke-width="0"/></g><g c_partid="part_pad" c_etype="pinpart" c_origin="4350.8569,3217.331" layerid="1" number="1" net="+5V" plated ="Y"  id="gge180" locked="0" c_rotation="0" c_width="3.1496" c_height="3.5433" title="+5V" c_shape="RECT" pasteexpansion="0.0000" solderexpansion="0.2000"><polygon  c_etype="pad_shell" points="4349.2822 3215.5593 4352.4318 3215.5593 4352.4318 3219.1027 4349.2822 3219.1027" layerid="1" stroke-width="0" /><circle c_etype="pad_hole" cx="4350.8574" cy="3217.331" r="0" layerid="1" stroke-width="0"/></g><g c_partid="part_pad" c_etype="pinpart" c_origin="4336.3689,3247.331" layerid="1" number="2" net="GND" plated ="Y"  id="gge261" locked="0" c_rotation="0" c_width="3.1496" c_height="3.5433" title="GND" c_shape="RECT" pasteexpansion="0.0000" solderexpansion="0.2000"><polygon  c_etype="pad_shell" points="4334.794 3245.5593 4337.9436 3245.5593 4337.9436 3249.1027 4334.794 3249.1027" layerid="1" stroke-width="0" /><circle c_etype="pad_hole" cx="4336.3684" cy="3247.331" r="0" layerid="1" stroke-width="0"/></g><g c_partid="part_pad" c_etype="pinpart" c_origin="4330.8569,3247.331" layerid="1" number="1" net="+5V" plated ="Y"  id="gge276" locked="0" c_rotation="0" c_width="3.1496" c_height="3.5433" title="+5V" c_shape="RECT" pasteexpansion="0.0000" solderexpansion="0.2000"><polygon  c_etype="pad_shell" points="4329.2822 3245.5593 4332.4318 3245.5593 4332.4318 3249.1027 4329.2822 3249.1027" layerid="1" stroke-width="0" /><circle c_etype="pad_hole" cx="4330.8574" cy="3247.331" r="0" layerid="1" stroke-width="0"/></g><g c_partid="part_pad" c_etype="pinpart" c_origin="4356.3689,3247.331" layerid="1" number="2" net="GND" plated ="Y"  id="gge357" locked="0" c_rotation="0" c_width="3.1496" c_height="3.5433" title="GND" c_shape="RECT" pasteexpansion="0.0000" solderexpansion="0.2000"><polygon  c_etype="pad_shell" points="4354.794 3245.5593 4357.9436 3245.5593 4357.9436 3249.1027 4354.794 3249.1027" layerid="1" stroke-width="0" /><circle c_etype="pad_hole" cx="4356.3684" cy="3247.331" r="0" layerid="1" stroke-width="0"/></g><g c_partid="part_pad" c_etype="pinpart" c_origin="4350.8569,3247.331" layerid="1" number="1" net="+5V" plated ="Y"  id="gge372" locked="0" c_rotation="0" c_width="3.1496" c_height="3.5433" title="+5V" c_shape="RECT" pasteexpansion="0.0000" solderexpansion="0.2000"><polygon  c_etype="pad_shell" points="4349.2822 3245.5593 4352.4318 3245.5593 4352.4318 3249.1027 4349.2822 3249.1027" layerid="1" stroke-width="0" /><circle c_etype="pad_hole" cx="4350.8574" cy="3247.331" r="0" layerid="1" stroke-width="0"/></g><g c_partid="part_pad" c_etype="pinpart" c_origin="4266.3689,3187.331" layerid="1" number="2" net="GND" plated ="Y"  id="gge453" locked="0" c_rotation="0" c_width="3.1496" c_height="3.5433" title="GND" c_shape="RECT" pasteexpansion="0.0000" solderexpansion="0.2000"><polygon  c_etype="pad_shell" points="4264.794 3185.5593 4267.9436 3185.5593 4267.9436 3189.1027 4264.794 3189.1027" layerid="1" stroke-width="0" /><circle c_etype="pad_hole" cx="4266.3684" cy="3187.331" r="0" layerid="1" stroke-width="0"/></g><g c_partid="part_pad" c_etype="pinpart" c_origin="4260.8569,3187.331" layerid="1" number="1" net="+5V" plated ="Y"  id="gge468" locked="0" c_rotation="0" c_width="3.1496" c_height="3.5433" title="+5V" c_shape="RECT" pasteexpansion="0.0000" solderexpansion="0.2000"><polygon  c_etype="pad_shell" points="4259.2822 3185.5593 4262.4318 3185.5593 4262.4318 3189.1027 4259.2822 3189.1027" layerid="1" stroke-width="0" /><circle c_etype="pad_hole" cx="4260.8574" cy="3187.331" r="0" layerid="1" stroke-width="0"/></g><g c_partid="part_pad" c_etype="pinpart" c_origin="4286.3689,3187.331" layerid="1" number="2" net="GND" plated ="Y"  id="gge549" locked="0" c_rotation="0" c_width="3.1496" c_height="3.5433" title="GND" c_shape="RECT" pasteexpansion="0.0000" solderexpansion="0.2000"><polygon  c_etype="pad_shell" points="4284.794 3185.5593 4287.9436 3185.5593 4287.9436 3189.1027 4284.794 3189.1027" layerid="1" stroke-width="0" /><circle c_etype="pad_hole" cx="4286.3684" cy="3187.331" r="0" layerid="1" stroke-width="0"/></g><g c_partid="part_pad" c_etype="pinpart" c_origin="4280.8569,3187.331" layerid="1" number="1" net="U2_14" plated ="Y"  id="gge564" locked="0" c_rotation="0" c_width="3.1496" c_height="3.5433" title="U2_14" c_shape="RECT" pasteexpansion="0.0000" solderexpansion="0.2000"><polygon  c_etype="pad_shell" points="4279.2822 3185.5593 4282.4318 3185.5593 4282.4318 3189.1027 4279.2822 3189.1027" layerid="1" stroke-width="0" /><circle c_etype="pad_hole" cx="4280.8574" cy="3187.331" r="0" layerid="1" stroke-width="0"/></g><g c_partid="part_pad" c_etype="pinpart" c_origin="4306.3689,3187.331" layerid="1" number="2" net="GND" plated ="Y"  id="gge645" locked="0" c_rotation="0" c_width="3.1496" c_height="3.5433" title="GND" c_shape="RECT" pasteexpansion="0.0000" solderexpansion="0.2000"><polygon  c_etype="pad_shell" points="4304.794 3185.5593 4307.9436 3185.5593 4307.9436 3189.1027 4304.794 3189.1027" layerid="1" stroke-width="0" /><circle c_etype="pad_hole" cx="4306.3684" cy="3187.331" r="0" layerid="1" stroke-width="0"/></g><g c_partid="part_pad" c_etype="pinpart" c_origin="4300.8569,3187.331" layerid="1" number="1" net="U2_13" plated ="Y"  id="gge660" locked="0" c_rotation="0" c_width="3.1496" c_height="3.5433" title="U2_13" c_shape="RECT" pasteexpansion="0.0000" solderexpansion="0.2000"><polygon  c_etype="pad_shell" points="4299.2822 3185.5593 4302.4318 3185.5593 4302.4318 3189.1027 4299.2822 3189.1027" layerid="1" stroke-width="0" /><circle c_etype="pad_hole" cx="4300.8574" cy="3187.331" r="0" layerid="1" stroke-width="0"/></g><g c_partid="part_pad" c_etype="pinpart" c_origin="4199.2806,3188.331" layerid="1" number="2" net="USB1_1" plated ="Y"  id="gge747" locked="0" c_rotation="0" c_width="3.937" c_height="2.9528" title="USB1_1" c_shape="RECT" pasteexpansion="0.0000" solderexpansion="0.2000"><polygon  c_etype="pad_shell" points="4197.3119 3186.8546 4201.249 3186.8546 4201.249 3189.8074 4197.3119 3189.8074" layerid="1" stroke-width="0" /><circle c_etype="pad_hole" cx="4199.2806" cy="3188.331" r="0" layerid="1" stroke-width="0"/></g><g c_partid="part_pad" c_etype="pinpart" c_origin="4190.0476,3188.331" layerid="1" number="1" net="+5V" plated ="Y"  id="gge762" locked="0" c_rotation="0" c_width="3.937" c_height="2.9528" title="+5V" c_shape="RECT" pasteexpansion="0.0000" solderexpansion="0.2000"><polygon  c_etype="pad_shell" points="4188.0794 3186.8546 4192.0165 3186.8546 4192.0165 3189.8074 4188.0794 3189.8074" layerid="1" stroke-width="0" /><circle c_etype="pad_hole" cx="4190.0478" cy="3188.331" r="0" layerid="1" stroke-width="0"/></g><g c_partid="part_pad" c_etype="pinpart" c_origin="4331.5536,3190.64" layerid="1" number="1" net="U2_1" plated ="Y"  id="gge2301" locked="0" c_rotation="0" c_width="2.2047" c_height="6.8701" title="U2_1" c_shape="OVAL" pasteexpansion="0.0000" solderexpansion="0.2000"><polyline  c_etype="pad_shell" points="4331.5536 3188.3073 4331.5536 3192.9727" layerid="1" stroke-width="2.2047" /><circle c_etype="pad_hole" cx="4331.5536" cy="3190.6401" r="0" layerid="1" stroke-width="0"/></g><g c_partid="part_pad" c_etype="pinpart" c_origin="4336.5536,3190.64" layerid="1" number="2" net="U2_2" plated ="Y"  id="gge2316" locked="0" c_rotation="0" c_width="2.2047" c_height="6.8701" title="U2_2" c_shape="OVAL" pasteexpansion="0.0000" solderexpansion="0.2000"><polyline  c_etype="pad_shell" points="4336.5536 3188.3073 4336.5536 3192.9727" layerid="1" stroke-width="2.2047" /><circle c_etype="pad_hole" cx="4336.5536" cy="3190.6401" r="0" layerid="1" stroke-width="0"/></g><g c_partid="part_pad" c_etype="pinpart" c_origin="4341.5536,3190.64" layerid="1" number="3" net="U2_3" plated ="Y"  id="gge2331" locked="0" c_rotation="0" c_width="2.2047" c_height="6.8701" title="U2_3" c_shape="OVAL" pasteexpansion="0.0000" solderexpansion="0.2000"><polyline  c_etype="pad_shell" points="4341.5536 3188.3073 4341.5536 3192.9727" layerid="1" stroke-width="2.2047" /><circle c_etype="pad_hole" cx="4341.5536" cy="3190.6401" r="0" layerid="1" stroke-width="0"/></g><g c_partid="part_pad" c_etype="pinpart" c_origin="4346.5536,3190.64" layerid="1" number="4" net="U2_4" plated ="Y"  id="gge2346" locked="0" c_rotation="0" c_width="2.2047" c_height="6.8701" title="U2_4" c_shape="OVAL" pasteexpansion="0.0000" solderexpansion="0.2000"><polyline  c_etype="pad_shell" points="4346.5536 3188.3073 4346.5536 3192.9727" layerid="1" stroke-width="2.2047" /><circle c_etype="pad_hole" cx="4346.5536" cy="3190.6401" r="0" layerid="1" stroke-width="0"/></g><g c_partid="part_pad" c_etype="pinpart" c_origin="4351.5536,3190.64" layerid="1" number="5" net="U2_5" plated ="Y"  id="gge2361" locked="0" c_rotation="0" c_width="2.2047" c_height="6.8701" title="U2_5" c_shape="OVAL" pasteexpansion="0.0000" solderexpansion="0.2000"><polyline  c_etype="pad_shell" points="4351.5536 3188.3073 4351.5536 3192.9727" layerid="1" stroke-width="2.2047" /><circle c_etype="pad_hole" cx="4351.5536" cy="3190.6401" r="0" layerid="1" stroke-width="0"/></g><g c_partid="part_pad" c_etype="pinpart" c_origin="4356.5536,3190.64" layerid="1" number="6" net="U2_6" plated ="Y"  id="gge2376" locked="0" c_rotation="0" c_width="2.2047" c_height="6.8701" title="U2_6" c_shape="OVAL" pasteexpansion="0.0000" solderexpansion="0.2000"><polyline  c_etype="pad_shell" points="4356.5536 3188.3073 4356.5536 3192.9727" layerid="1" stroke-width="2.2047" /><circle c_etype="pad_hole" cx="4356.5536" cy="3190.6401" r="0" layerid="1" stroke-width="0"/></g><g c_partid="part_pad" c_etype="pinpart" c_origin="4361.5536,3190.64" layerid="1" number="7" net="U2_7" plated ="Y"  id="gge2391" locked="0" c_rotation="0" c_width="2.2047" c_height="6.8701" title="U2_7" c_shape="OVAL" pasteexpansion="0.0000" solderexpansion="0.2000"><polyline  c_etype="pad_shell" points="4361.5536 3188.3073 4361.5536 3192.9727" layerid="1" stroke-width="2.2047" /><circle c_etype="pad_hole" cx="4361.5536" cy="3190.6401" r="0" layerid="1" stroke-width="0"/></g><g c_partid="part_pad" c_etype="pinpart" c_origin="4366.5536,3190.64" layerid="1" number="8" net="U2_8" plated ="Y"  id="gge2406" locked="0" c_rotation="0" c_width="2.2047" c_height="6.8701" title="U2_8" c_shape="OVAL" pasteexpansion="0.0000" solderexpansion="0.2000"><polyline  c_etype="pad_shell" points="4366.5536 3188.3073 4366.5536 3192.9727" layerid="1" stroke-width="2.2047" /><circle c_etype="pad_hole" cx="4366.5536" cy="3190.6401" r="0" layerid="1" stroke-width="0"/></g><g c_partid="part_pad" c_etype="pinpart" c_origin="4331.5536,3168.022" layerid="1" number="16" net="GND" plated ="Y"  id="gge2421" locked="0" c_rotation="0" c_width="2.2047" c_height="6.8701" title="GND" c_shape="OVAL" pasteexpansion="0.0000" solderexpansion="0.2000"><polyline  c_etype="pad_shell" points="4331.5536 3165.6893 4331.5536 3170.3547" layerid="1" stroke-width="2.2047" /><circle c_etype="pad_hole" cx="4331.5536" cy="3168.0219" r="0" layerid="1" stroke-width="0"/></g><g c_partid="part_pad" c_etype="pinpart" c_origin="4336.5536,3168.022" layerid="1" number="15" net="" plated ="Y"  id="gge2436" locked="0" c_rotation="0" c_width="2.2047" c_height="6.8701" title="" c_shape="OVAL" pasteexpansion="0.0000" solderexpansion="0.2000"><polyline  c_etype="pad_shell" points="4336.5536 3165.6893 4336.5536 3170.3547" layerid="1" stroke-width="2.2047" /><circle c_etype="pad_hole" cx="4336.5536" cy="3168.0219" r="0" layerid="1" stroke-width="0"/></g><g c_partid="part_pad" c_etype="pinpart" c_origin="4341.5536,3168.022" layerid="1" number="14" net="U2_14" plated ="Y"  id="gge2451" locked="0" c_rotation="0" c_width="2.2047" c_height="6.8701" title="U2_14" c_shape="OVAL" pasteexpansion="0.0000" solderexpansion="0.2000"><polyline  c_etype="pad_shell" points="4341.5536 3165.6893 4341.5536 3170.3547" layerid="1" stroke-width="2.2047" /><circle c_etype="pad_hole" cx="4341.5536" cy="3168.0219" r="0" layerid="1" stroke-width="0"/></g><g c_partid="part_pad" c_etype="pinpart" c_origin="4346.5536,3168.022" layerid="1" number="13" net="U2_13" plated ="Y"  id="gge2466" locked="0" c_rotation="0" c_width="2.2047" c_height="6.8701" title="U2_13" c_shape="OVAL" pasteexpansion="0.0000" solderexpansion="0.2000"><polyline  c_etype="pad_shell" points="4346.5536 3165.6893 4346.5536 3170.3547" layerid="1" stroke-width="2.2047" /><circle c_etype="pad_hole" cx="4346.5536" cy="3168.0219" r="0" layerid="1" stroke-width="0"/></g><g c_partid="part_pad" c_etype="pinpart" c_origin="4351.5536,3168.022" layerid="1" number="12" net="GND" plated ="Y"  id="gge2481" locked="0" c_rotation="0" c_width="2.2047" c_height="6.8701" title="GND" c_shape="OVAL" pasteexpansion="0.0000" solderexpansion="0.2000"><polyline  c_etype="pad_shell" points="4351.5536 3165.6893 4351.5536 3170.3547" layerid="1" stroke-width="2.2047" /><circle c_etype="pad_hole" cx="4351.5536" cy="3168.0219" r="0" layerid="1" stroke-width="0"/></g><g c_partid="part_pad" c_etype="pinpart" c_origin="4356.5536,3168.022" layerid="1" number="11" net="+5V" plated ="Y"  id="gge2496" locked="0" c_rotation="0" c_width="2.2047" c_height="6.8701" title="+5V" c_shape="OVAL" pasteexpansion="0.0000" solderexpansion="0.2000"><polyline  c_etype="pad_shell" points="4356.5536 3165.6893 4356.5536 3170.3547" layerid="1" stroke-width="2.2047" /><circle c_etype="pad_hole" cx="4356.5536" cy="3168.0219" r="0" layerid="1" stroke-width="0"/></g><g c_partid="part_pad" c_etype="pinpart" c_origin="4361.5536,3168.022" layerid="1" number="10" net="U2_10" plated ="Y"  id="gge2511" locked="0" c_rotation="0" c_width="2.2047" c_height="6.8701" title="U2_10" c_shape="OVAL" pasteexpansion="0.0000" solderexpansion="0.2000"><polyline  c_etype="pad_shell" points="4361.5536 3165.6893 4361.5536 3170.3547" layerid="1" stroke-width="2.2047" /><circle c_etype="pad_hole" cx="4361.5536" cy="3168.0219" r="0" layerid="1" stroke-width="0"/></g><g c_partid="part_pad" c_etype="pinpart" c_origin="4366.5536,3168.022" layerid="1" number="9" net="U2_9" plated ="Y"  id="gge2526" locked="0" c_rotation="0" c_width="2.2047" c_height="6.8701" title="U2_9" c_shape="OVAL" pasteexpansion="0.0000" solderexpansion="0.2000"><polyline  c_etype="pad_shell" points="4366.5536 3165.6893 4366.5536 3170.3547" layerid="1" stroke-width="2.2047" /><circle c_etype="pad_hole" cx="4366.5536" cy="3168.0219" r="0" layerid="1" stroke-width="0"/></g><g c_partid="part_pad" c_etype="pinpart" c_origin="4246.3076,3120.898" layerid="11" number="6" net="GND" plated ="Y"  id="gge2607" locked="0" c_rotation="270" c_width="12.5984" c_height="12.5984" title="GND" c_shape="ELLIPSE" pasteexpansion="0" solderexpansion="0.19685"><ellipse c_etype="pad_shell" cx="4246.3076" cy="3120.898" rx="6.2992" ry="6.2992" layerid="11" stroke-width="0"/><circle c_etype="pad_hole" cx="4246.3076" cy="3120.8982" r="4.5276" layerid="11" stroke-width="0"/></g><g c_partid="part_pad" c_etype="pinpart" c_origin="4194.5756,3120.898" layerid="11" number="5" net="GND" plated ="Y"  id="gge2622" locked="0" c_rotation="90" c_width="12.5984" c_height="12.5984" title="GND" c_shape="ELLIPSE" pasteexpansion="0" solderexpansion="0.19685"><ellipse c_etype="pad_shell" cx="4194.5756" cy="3120.898" rx="6.2992" ry="6.2992" layerid="11" stroke-width="0"/><circle c_etype="pad_hole" cx="4194.5756" cy="3120.8982" r="4.5276" layerid="11" stroke-width="0"/></g><g c_partid="part_pad" c_etype="pinpart" c_origin="4234.2216,3110.662" layerid="11" number="4" net="GND" plated ="Y"  id="gge2637" locked="0" c_rotation="0" c_width="5.9055" c_height="5.9055" title="GND" c_shape="ELLIPSE" pasteexpansion="0" solderexpansion="0.19685"><ellipse c_etype="pad_shell" cx="4234.2216" cy="3110.662" rx="2.95275" ry="2.95275" layerid="11" stroke-width="0"/><circle c_etype="pad_hole" cx="4234.2211" cy="3110.6624" r="1.7717" layerid="11" stroke-width="0"/></g><g c_partid="part_pad" c_etype="pinpart" c_origin="4224.3786,3110.662" layerid="11" number="3" net="U2_4" plated ="Y"  id="gge2652" locked="0" c_rotation="0" c_width="5.9055" c_height="5.9055" title="U2_4" c_shape="ELLIPSE" pasteexpansion="0" solderexpansion="0.19685"><ellipse c_etype="pad_shell" cx="4224.3786" cy="3110.662" rx="2.95275" ry="2.95275" layerid="11" stroke-width="0"/><circle c_etype="pad_hole" cx="4224.3786" cy="3110.6624" r="1.7717" layerid="11" stroke-width="0"/></g><g c_partid="part_pad" c_etype="pinpart" c_origin="4216.5046,3110.662" layerid="11" number="2" net="U2_3" plated ="Y"  id="gge2667" locked="0" c_rotation="0" c_width="5.9055" c_height="5.9055" title="U2_3" c_shape="ELLIPSE" pasteexpansion="0" solderexpansion="0.19685"><ellipse c_etype="pad_shell" cx="4216.5046" cy="3110.662" rx="2.95275" ry="2.95275" layerid="11" stroke-width="0"/><circle c_etype="pad_hole" cx="4216.5046" cy="3110.6624" r="1.7717" layerid="11" stroke-width="0"/></g><g c_partid="part_pad" c_etype="pinpart" c_origin="4206.6626,3110.662" layerid="11" number="1" net="+5V" plated ="Y"  id="gge2682" locked="0" c_rotation="0" c_width="5.9055" c_height="5.9055" title="+5V" c_shape="ELLIPSE" pasteexpansion="0" solderexpansion="0.19685"><ellipse c_etype="pad_shell" cx="4206.6626" cy="3110.662" rx="2.95275" ry="2.95275" layerid="11" stroke-width="0"/><circle c_etype="pad_hole" cx="4206.6621" cy="3110.6624" r="1.7717" layerid="11" stroke-width="0"/></g><g c_partid="part_pad" c_etype="pinpart" c_origin="4316.3076,3120.898" layerid="11" number="6" net="GND" plated ="Y"  id="gge2763" locked="0" c_rotation="270" c_width="12.5984" c_height="12.5984" title="GND" c_shape="ELLIPSE" pasteexpansion="0" solderexpansion="0.19685"><ellipse c_etype="pad_shell" cx="4316.3076" cy="3120.898" rx="6.2992" ry="6.2992" layerid="11" stroke-width="0"/><circle c_etype="pad_hole" cx="4316.3076" cy="3120.8982" r="4.5276" layerid="11" stroke-width="0"/></g><g c_partid="part_pad" c_etype="pinpart" c_origin="4264.5756,3120.898" layerid="11" number="5" net="GND" plated ="Y"  id="gge2778" locked="0" c_rotation="90" c_width="12.5984" c_height="12.5984" title="GND" c_shape="ELLIPSE" pasteexpansion="0" solderexpansion="0.19685"><ellipse c_etype="pad_shell" cx="4264.5756" cy="3120.898" rx="6.2992" ry="6.2992" layerid="11" stroke-width="0"/><circle c_etype="pad_hole" cx="4264.5756" cy="3120.8982" r="4.5276" layerid="11" stroke-width="0"/></g><g c_partid="part_pad" c_etype="pinpart" c_origin="4304.2216,3110.662" layerid="11" number="4" net="GND" plated ="Y"  id="gge2793" locked="0" c_rotation="0" c_width="5.9055" c_height="5.9055" title="GND" c_shape="ELLIPSE" pasteexpansion="0" solderexpansion="0.19685"><ellipse c_etype="pad_shell" cx="4304.2216" cy="3110.662" rx="2.95275" ry="2.95275" layerid="11" stroke-width="0"/><circle c_etype="pad_hole" cx="4304.2211" cy="3110.6624" r="1.7717" layerid="11" stroke-width="0"/></g><g c_partid="part_pad" c_etype="pinpart" c_origin="4294.3786,3110.662" layerid="11" number="3" net="U2_6" plated ="Y"  id="gge2808" locked="0" c_rotation="0" c_width="5.9055" c_height="5.9055" title="U2_6" c_shape="ELLIPSE" pasteexpansion="0" solderexpansion="0.19685"><ellipse c_etype="pad_shell" cx="4294.3786" cy="3110.662" rx="2.95275" ry="2.95275" layerid="11" stroke-width="0"/><circle c_etype="pad_hole" cx="4294.3786" cy="3110.6624" r="1.7717" layerid="11" stroke-width="0"/></g><g c_partid="part_pad" c_etype="pinpart" c_origin="4286.5046,3110.662" layerid="11" number="2" net="U2_5" plated ="Y"  id="gge2823" locked="0" c_rotation="0" c_width="5.9055" c_height="5.9055" title="U2_5" c_shape="ELLIPSE" pasteexpansion="0" solderexpansion="0.19685"><ellipse c_etype="pad_shell" cx="4286.5046" cy="3110.662" rx="2.95275" ry="2.95275" layerid="11" stroke-width="0"/><circle c_etype="pad_hole" cx="4286.5046" cy="3110.6624" r="1.7717" layerid="11" stroke-width="0"/></g><g c_partid="part_pad" c_etype="pinpart" c_origin="4276.6626,3110.662" layerid="11" number="1" net="+5V" plated ="Y"  id="gge2838" locked="0" c_rotation="0" c_width="5.9055" c_height="5.9055" title="+5V" c_shape="ELLIPSE" pasteexpansion="0" solderexpansion="0.19685"><ellipse c_etype="pad_shell" cx="4276.6626" cy="3110.662" rx="2.95275" ry="2.95275" layerid="11" stroke-width="0"/><circle c_etype="pad_hole" cx="4276.6621" cy="3110.6624" r="1.7717" layerid="11" stroke-width="0"/></g><g c_partid="part_pad" c_etype="pinpart" c_origin="4186.3076,3230.898" layerid="11" number="6" net="GND" plated ="Y"  id="gge2919" locked="0" c_rotation="270" c_width="12.5984" c_height="12.5984" title="GND" c_shape="ELLIPSE" pasteexpansion="0" solderexpansion="0.19685"><ellipse c_etype="pad_shell" cx="4186.3076" cy="3230.898" rx="6.2992" ry="6.2992" layerid="11" stroke-width="0"/><circle c_etype="pad_hole" cx="4186.3076" cy="3230.8982" r="4.5276" layerid="11" stroke-width="0"/></g><g c_partid="part_pad" c_etype="pinpart" c_origin="4134.5756,3230.898" layerid="11" number="5" net="U5_5" plated ="Y"  id="gge2934" locked="0" c_rotation="90" c_width="12.5984" c_height="12.5984" title="U5_5" c_shape="ELLIPSE" pasteexpansion="0" solderexpansion="0.19685"><ellipse c_etype="pad_shell" cx="4134.5756" cy="3230.898" rx="6.2992" ry="6.2992" layerid="11" stroke-width="0"/><circle c_etype="pad_hole" cx="4134.5756" cy="3230.8982" r="4.5276" layerid="11" stroke-width="0"/></g><g c_partid="part_pad" c_etype="pinpart" c_origin="4174.2216,3220.662" layerid="11" number="4" net="GND" plated ="Y"  id="gge2949" locked="0" c_rotation="0" c_width="5.9055" c_height="5.9055" title="GND" c_shape="ELLIPSE" pasteexpansion="0" solderexpansion="0.19685"><ellipse c_etype="pad_shell" cx="4174.2216" cy="3220.662" rx="2.95275" ry="2.95275" layerid="11" stroke-width="0"/><circle c_etype="pad_hole" cx="4174.2211" cy="3220.6624" r="1.7717" layerid="11" stroke-width="0"/></g><g c_partid="part_pad" c_etype="pinpart" c_origin="4164.3786,3220.662" layerid="11" number="3" net="U2_8" plated ="Y"  id="gge2964" locked="0" c_rotation="0" c_width="5.9055" c_height="5.9055" title="U2_8" c_shape="ELLIPSE" pasteexpansion="0" solderexpansion="0.19685"><ellipse c_etype="pad_shell" cx="4164.3786" cy="3220.662" rx="2.95275" ry="2.95275" layerid="11" stroke-width="0"/><circle c_etype="pad_hole" cx="4164.3786" cy="3220.6624" r="1.7717" layerid="11" stroke-width="0"/></g><g c_partid="part_pad" c_etype="pinpart" c_origin="4156.5046,3220.662" layerid="11" number="2" net="U2_7" plated ="Y"  id="gge2979" locked="0" c_rotation="0" c_width="5.9055" c_height="5.9055" title="U2_7" c_shape="ELLIPSE" pasteexpansion="0" solderexpansion="0.19685"><ellipse c_etype="pad_shell" cx="4156.5046" cy="3220.662" rx="2.95275" ry="2.95275" layerid="11" stroke-width="0"/><circle c_etype="pad_hole" cx="4156.5046" cy="3220.6624" r="1.7717" layerid="11" stroke-width="0"/></g><g c_partid="part_pad" c_etype="pinpart" c_origin="4146.6626,3220.662" layerid="11" number="1" net="+5V" plated ="Y"  id="gge2994" locked="0" c_rotation="0" c_width="5.9055" c_height="5.9055" title="+5V" c_shape="ELLIPSE" pasteexpansion="0" solderexpansion="0.19685"><ellipse c_etype="pad_shell" cx="4146.6626" cy="3220.662" rx="2.95275" ry="2.95275" layerid="11" stroke-width="0"/><circle c_etype="pad_hole" cx="4146.6621" cy="3220.6624" r="1.7717" layerid="11" stroke-width="0"/></g><g c_partid="part_pad" c_etype="pinpart" c_origin="4256.3076,3230.898" layerid="11" number="6" net="GND" plated ="Y"  id="gge3075" locked="0" c_rotation="270" c_width="12.5984" c_height="12.5984" title="GND" c_shape="ELLIPSE" pasteexpansion="0" solderexpansion="0.19685"><ellipse c_etype="pad_shell" cx="4256.3076" cy="3230.898" rx="6.2992" ry="6.2992" layerid="11" stroke-width="0"/><circle c_etype="pad_hole" cx="4256.3076" cy="3230.8982" r="4.5276" layerid="11" stroke-width="0"/></g><g c_partid="part_pad" c_etype="pinpart" c_origin="4204.5756,3230.898" layerid="11" number="5" net="GND" plated ="Y"  id="gge3090" locked="0" c_rotation="90" c_width="12.5984" c_height="12.5984" title="GND" c_shape="ELLIPSE" pasteexpansion="0" solderexpansion="0.19685"><ellipse c_etype="pad_shell" cx="4204.5756" cy="3230.898" rx="6.2992" ry="6.2992" layerid="11" stroke-width="0"/><circle c_etype="pad_hole" cx="4204.5756" cy="3230.8982" r="4.5276" layerid="11" stroke-width="0"/></g><g c_partid="part_pad" c_etype="pinpart" c_origin="4244.2216,3220.662" layerid="11" number="4" net="GND" plated ="Y"  id="gge3105" locked="0" c_rotation="0" c_width="5.9055" c_height="5.9055" title="GND" c_shape="ELLIPSE" pasteexpansion="0" solderexpansion="0.19685"><ellipse c_etype="pad_shell" cx="4244.2216" cy="3220.662" rx="2.95275" ry="2.95275" layerid="11" stroke-width="0"/><circle c_etype="pad_hole" cx="4244.2211" cy="3220.6624" r="1.7717" layerid="11" stroke-width="0"/></g><g c_partid="part_pad" c_etype="pinpart" c_origin="4234.3786,3220.662" layerid="11" number="3" net="U2_2" plated ="Y"  id="gge3120" locked="0" c_rotation="0" c_width="5.9055" c_height="5.9055" title="U2_2" c_shape="ELLIPSE" pasteexpansion="0" solderexpansion="0.19685"><ellipse c_etype="pad_shell" cx="4234.3786" cy="3220.662" rx="2.95275" ry="2.95275" layerid="11" stroke-width="0"/><circle c_etype="pad_hole" cx="4234.3786" cy="3220.6624" r="1.7717" layerid="11" stroke-width="0"/></g><g c_partid="part_pad" c_etype="pinpart" c_origin="4226.5046,3220.662" layerid="11" number="2" net="U2_1" plated ="Y"  id="gge3135" locked="0" c_rotation="0" c_width="5.9055" c_height="5.9055" title="U2_1" c_shape="ELLIPSE" pasteexpansion="0" solderexpansion="0.19685"><ellipse c_etype="pad_shell" cx="4226.5046" cy="3220.662" rx="2.95275" ry="2.95275" layerid="11" stroke-width="0"/><circle c_etype="pad_hole" cx="4226.5046" cy="3220.6624" r="1.7717" layerid="11" stroke-width="0"/></g><g c_partid="part_pad" c_etype="pinpart" c_origin="4216.6626,3220.662" layerid="11" number="1" net="+5V" plated ="Y"  id="gge3150" locked="0" c_rotation="0" c_width="5.9055" c_height="5.9055" title="+5V" c_shape="ELLIPSE" pasteexpansion="0" solderexpansion="0.19685"><ellipse c_etype="pad_shell" cx="4216.6626" cy="3220.662" rx="2.95275" ry="2.95275" layerid="11" stroke-width="0"/><circle c_etype="pad_hole" cx="4216.6621" cy="3220.6624" r="1.7717" layerid="11" stroke-width="0"/></g><g c_partid="part_pad" c_etype="pinpart" c_origin="4176.0315,3117.437" layerid="11" number="6" net="GND" plated ="Y"  id="gge3927" locked="0" c_rotation="0" c_width="7.874" c_height="13.7795" title="GND" c_shape="OVAL" pasteexpansion="0" solderexpansion="0.2"><polyline  c_etype="pad_shell" points="4176.0315 3114.4843 4176.0315 3120.3898" layerid="11" stroke-width="7.874" /><polyline c_etype="pad_hole" points="4176.0309 3120.3895 4176.0309 3114.484" layerid="11" stroke-width="3.937"></polyline></g><g c_partid="part_pad" c_etype="pinpart" c_origin="4129.9685,3117.437" layerid="11" number="5" net="GND" plated ="Y"  id="gge3942" locked="0" c_rotation="0" c_width="7.874" c_height="13.7795" title="GND" c_shape="OVAL" pasteexpansion="0" solderexpansion="0.2"><polyline  c_etype="pad_shell" points="4129.9685 3114.4843 4129.9685 3120.3898" layerid="11" stroke-width="7.874" /><polyline c_etype="pad_hole" points="4129.9682 3120.3895 4129.9682 3114.484" layerid="11" stroke-width="3.937"></polyline></g><g c_partid="part_pad" c_etype="pinpart" c_origin="4139.2205,3109.563" layerid="11" number="4" net="GND" plated ="Y"  id="gge3957" locked="0" c_rotation="0" c_width="6.2992" c_height="6.2992" title="GND" c_shape="ELLIPSE" pasteexpansion="0" solderexpansion="0.2"><ellipse c_etype="pad_shell" cx="4139.2205" cy="3109.563" rx="3.1496" ry="3.1496" layerid="11" stroke-width="0"/><circle c_etype="pad_hole" cx="4139.22" cy="3109.563" r="1.9685" layerid="11" stroke-width="0"/></g><g c_partid="part_pad" c_etype="pinpart" c_origin="4149.0625,3109.563" layerid="11" number="3" net="U2_10" plated ="Y"  id="gge3972" locked="0" c_rotation="0" c_width="6.2992" c_height="6.2992" title="U2_10" c_shape="ELLIPSE" pasteexpansion="0" solderexpansion="0.2"><ellipse c_etype="pad_shell" cx="4149.0625" cy="3109.563" rx="3.1496" ry="3.1496" layerid="11" stroke-width="0"/><circle c_etype="pad_hole" cx="4149.0625" cy="3109.563" r="1.9685" layerid="11" stroke-width="0"/></g><g c_partid="part_pad" c_etype="pinpart" c_origin="4156.9365,3109.563" layerid="11" number="2" net="U2_9" plated ="Y"  id="gge3987" locked="0" c_rotation="0" c_width="6.2992" c_height="6.2992" title="U2_9" c_shape="ELLIPSE" pasteexpansion="0" solderexpansion="0.2"><ellipse c_etype="pad_shell" cx="4156.9365" cy="3109.563" rx="3.1496" ry="3.1496" layerid="11" stroke-width="0"/><circle c_etype="pad_hole" cx="4156.9365" cy="3109.563" r="1.9685" layerid="11" stroke-width="0"/></g><g c_partid="part_pad" c_etype="pinpart" c_origin="4166.7795,3109.563" layerid="11" number="1" net="USB1_1" plated ="Y"  id="gge4002" locked="0" c_rotation="0" c_width="6.2992" c_height="6.2992" title="USB1_1" c_shape="ELLIPSE" pasteexpansion="0" solderexpansion="0.2"><ellipse c_etype="pad_shell" cx="4166.7795" cy="3109.563" rx="3.1496" ry="3.1496" layerid="11" stroke-width="0"/><circle c_etype="pad_hole" cx="4166.779" cy="3109.563" r="1.9685" layerid="11" stroke-width="0"/></g><g c_partid="part_hole" c_etype="pinpart" c_shapetype="group" c_origin="4161.8575,3117.437" layerid="11" id="gge3897" locked="0" ><circle cx="4161.8575" cy="3117.437" r="2.3622"  stroke-width="1" fill-opacity="0" /></g><g c_partid="part_hole" c_etype="pinpart" c_shapetype="group" c_origin="4144.1415,3117.437" layerid="11" id="gge3909" locked="0" ><circle cx="4144.1415" cy="3117.437" r="2.3622"  stroke-width="1" fill-opacity="0" /></g><polyline points="4339.0854 3215.7571 4339.0854 3218.9068" stroke-width="1"  stroke-linecap="round" fill="none" layerid="3" net="" id="gge30" locked="0" /><polyline points="4334.7163 3214.5372 4337.8658 3214.5372" stroke-width="1"  stroke-linecap="round" fill="none" layerid="3" net="" id="gge33" locked="0" /><polyline points="4334.7163 3220.1264 4337.8658 3220.1264" stroke-width="1"  stroke-linecap="round" fill="none" layerid="3" net="" id="gge36" locked="0" /><polyline points="4332.449 3214.5143 4329.2994 3214.5143" stroke-width="1"  stroke-linecap="round" fill="none" layerid="3" net="" id="gge39" locked="0" /><polyline points="4328.0796 3215.7341 4328.0796 3218.8836" stroke-width="1"  stroke-linecap="round" fill="none" layerid="3" net="" id="gge42" locked="0" /><polyline points="4332.449 3220.1033 4329.2994 3220.1033" stroke-width="1"  stroke-linecap="round" fill="none" layerid="3" net="" id="gge45" locked="0" /><polyline points="4359.0854 3215.7571 4359.0854 3218.9068" stroke-width="1"  stroke-linecap="round" fill="none" layerid="3" net="" id="gge126" locked="0" /><polyline points="4354.7163 3214.5372 4357.8658 3214.5372" stroke-width="1"  stroke-linecap="round" fill="none" layerid="3" net="" id="gge129" locked="0" /><polyline points="4354.7163 3220.1264 4357.8658 3220.1264" stroke-width="1"  stroke-linecap="round" fill="none" layerid="3" net="" id="gge132" locked="0" /><polyline points="4352.449 3214.5143 4349.2994 3214.5143" stroke-width="1"  stroke-linecap="round" fill="none" layerid="3" net="" id="gge135" locked="0" /><polyline points="4348.0796 3215.7341 4348.0796 3218.8836" stroke-width="1"  stroke-linecap="round" fill="none" layerid="3" net="" id="gge138" locked="0" /><polyline points="4352.449 3220.1033 4349.2994 3220.1033" stroke-width="1"  stroke-linecap="round" fill="none" layerid="3" net="" id="gge141" locked="0" /><polyline points="4339.0854 3245.7571 4339.0854 3248.9068" stroke-width="1"  stroke-linecap="round" fill="none" layerid="3" net="" id="gge222" locked="0" /><polyline points="4334.7163 3244.5372 4337.8658 3244.5372" stroke-width="1"  stroke-linecap="round" fill="none" layerid="3" net="" id="gge225" locked="0" /><polyline points="4334.7163 3250.1264 4337.8658 3250.1264" stroke-width="1"  stroke-linecap="round" fill="none" layerid="3" net="" id="gge228" locked="0" /><polyline points="4332.449 3244.5143 4329.2994 3244.5143" stroke-width="1"  stroke-linecap="round" fill="none" layerid="3" net="" id="gge231" locked="0" /><polyline points="4328.0796 3245.7341 4328.0796 3248.8836" stroke-width="1"  stroke-linecap="round" fill="none" layerid="3" net="" id="gge234" locked="0" /><polyline points="4332.449 3250.1033 4329.2994 3250.1033" stroke-width="1"  stroke-linecap="round" fill="none" layerid="3" net="" id="gge237" locked="0" /><polyline points="4359.0854 3245.7571 4359.0854 3248.9068" stroke-width="1"  stroke-linecap="round" fill="none" layerid="3" net="" id="gge318" locked="0" /><polyline points="4354.7163 3244.5372 4357.8658 3244.5372" stroke-width="1"  stroke-linecap="round" fill="none" layerid="3" net="" id="gge321" locked="0" /><polyline points="4354.7163 3250.1264 4357.8658 3250.1264" stroke-width="1"  stroke-linecap="round" fill="none" layerid="3" net="" id="gge324" locked="0" /><polyline points="4352.449 3244.5143 4349.2994 3244.5143" stroke-width="1"  stroke-linecap="round" fill="none" layerid="3" net="" id="gge327" locked="0" /><polyline points="4348.0796 3245.7341 4348.0796 3248.8836" stroke-width="1"  stroke-linecap="round" fill="none" layerid="3" net="" id="gge330" locked="0" /><polyline points="4352.449 3250.1033 4349.2994 3250.1033" stroke-width="1"  stroke-linecap="round" fill="none" layerid="3" net="" id="gge333" locked="0" /><polyline points="4269.0854 3185.7571 4269.0854 3188.9068" stroke-width="1"  stroke-linecap="round" fill="none" layerid="3" net="" id="gge414" locked="0" /><polyline points="4264.7163 3184.5372 4267.8658 3184.5372" stroke-width="1"  stroke-linecap="round" fill="none" layerid="3" net="" id="gge417" locked="0" /><polyline points="4264.7163 3190.1264 4267.8658 3190.1264" stroke-width="1"  stroke-linecap="round" fill="none" layerid="3" net="" id="gge420" locked="0" /><polyline points="4262.449 3184.5143 4259.2994 3184.5143" stroke-width="1"  stroke-linecap="round" fill="none" layerid="3" net="" id="gge423" locked="0" /><polyline points="4258.0796 3185.7341 4258.0796 3188.8836" stroke-width="1"  stroke-linecap="round" fill="none" layerid="3" net="" id="gge426" locked="0" /><polyline points="4262.449 3190.1033 4259.2994 3190.1033" stroke-width="1"  stroke-linecap="round" fill="none" layerid="3" net="" id="gge429" locked="0" /><polyline points="4289.0854 3185.7571 4289.0854 3188.9068" stroke-width="1"  stroke-linecap="round" fill="none" layerid="3" net="" id="gge510" locked="0" /><polyline points="4284.7163 3184.5372 4287.8658 3184.5372" stroke-width="1"  stroke-linecap="round" fill="none" layerid="3" net="" id="gge513" locked="0" /><polyline points="4284.7163 3190.1264 4287.8658 3190.1264" stroke-width="1"  stroke-linecap="round" fill="none" layerid="3" net="" id="gge516" locked="0" /><polyline points="4282.449 3184.5143 4279.2994 3184.5143" stroke-width="1"  stroke-linecap="round" fill="none" layerid="3" net="" id="gge519" locked="0" /><polyline points="4278.0796 3185.7341 4278.0796 3188.8836" stroke-width="1"  stroke-linecap="round" fill="none" layerid="3" net="" id="gge522" locked="0" /><polyline points="4282.449 3190.1033 4279.2994 3190.1033" stroke-width="1"  stroke-linecap="round" fill="none" layerid="3" net="" id="gge525" locked="0" /><polyline points="4309.0854 3185.7571 4309.0854 3188.9068" stroke-width="1"  stroke-linecap="round" fill="none" layerid="3" net="" id="gge606" locked="0" /><polyline points="4304.7163 3184.5372 4307.8658 3184.5372" stroke-width="1"  stroke-linecap="round" fill="none" layerid="3" net="" id="gge609" locked="0" /><polyline points="4304.7163 3190.1264 4307.8658 3190.1264" stroke-width="1"  stroke-linecap="round" fill="none" layerid="3" net="" id="gge612" locked="0" /><polyline points="4302.449 3184.5143 4299.2994 3184.5143" stroke-width="1"  stroke-linecap="round" fill="none" layerid="3" net="" id="gge615" locked="0" /><polyline points="4298.0796 3185.7341 4298.0796 3188.8836" stroke-width="1"  stroke-linecap="round" fill="none" layerid="3" net="" id="gge618" locked="0" /><polyline points="4302.449 3190.1033 4299.2994 3190.1033" stroke-width="1"  stroke-linecap="round" fill="none" layerid="3" net="" id="gge621" locked="0" /><polyline points="4198.2123 3191.1901 4198.2123 3190.3782" stroke-width="0.5984"  stroke-linecap="round" fill="none" layerid="3" net="" id="gge708" locked="0" /><polyline points="4198.2123 3185.4719 4198.2123 3186.2444" stroke-width="0.5984"  stroke-linecap="round" fill="none" layerid="3" net="" id="gge711" locked="0" /><polyline points="4191.3129 3185.4719 4198.2123 3185.4719" stroke-width="0.6"  stroke-linecap="round" fill="none" layerid="3" net="" id="gge714" locked="0" /><polyline points="4191.3129 3191.1901 4198.2123 3191.1901" stroke-width="0.6"  stroke-linecap="round" fill="none" layerid="3" net="" id="gge717" locked="0" /><polyline points="4192.9052 3185.4719 4192.9052 3191.1901" stroke-width="0.6"  stroke-linecap="round" fill="none" layerid="3" net="" id="gge720" locked="0" /><polyline points="4329.0686 3186.305 4329.0686 3172.357 4369.0386 3172.357 4369.0386 3186.305 4329.0686 3186.305" stroke-width="0.6"  stroke-linecap="round" fill="none" layerid="3" net="" id="gge2286" locked="0" /><polyline points="4246.4258 3113.69 4246.4258 3105.1502 4194.6543 3105.1502" stroke-width="1"  stroke-linecap="round" fill="none" layerid="3" net="" id="gge2568" locked="0" /><polyline points="4194.6543 3128.107 4194.6543 3160.2682 4246.4258 3160.2682 4246.4258 3128.1064" stroke-width="1"  stroke-linecap="round" fill="none" layerid="3" net="" id="gge2571" locked="0" /><polyline points="4194.6543 3105.1502 4194.6543 3113.6894" stroke-width="1"  stroke-linecap="round" fill="none" layerid="3" net="" id="gge2574" locked="0" /><polyline points="4316.4258 3113.69 4316.4258 3105.1502 4264.6543 3105.1502" stroke-width="1"  stroke-linecap="round" fill="none" layerid="3" net="" id="gge2724" locked="0" /><polyline points="4264.6543 3128.107 4264.6543 3160.2682 4316.4258 3160.2682 4316.4258 3128.1064" stroke-width="1"  stroke-linecap="round" fill="none" layerid="3" net="" id="gge2727" locked="0" /><polyline points="4264.6543 3105.1502 4264.6543 3113.6894" stroke-width="1"  stroke-linecap="round" fill="none" layerid="3" net="" id="gge2730" locked="0" /><polyline points="4186.4258 3223.69 4186.4258 3215.1502 4134.6543 3215.1502" stroke-width="1"  stroke-linecap="round" fill="none" layerid="3" net="" id="gge2880" locked="0" /><polyline points="4134.6543 3238.107 4134.6543 3270.2682 4186.4258 3270.2682 4186.4258 3238.1064" stroke-width="1"  stroke-linecap="round" fill="none" layerid="3" net="" id="gge2883" locked="0" /><polyline points="4134.6543 3215.1502 4134.6543 3223.6894" stroke-width="1"  stroke-linecap="round" fill="none" layerid="3" net="" id="gge2886" locked="0" /><polyline points="4256.4258 3223.69 4256.4258 3215.1502 4204.6543 3215.1502" stroke-width="1"  stroke-linecap="round" fill="none" layerid="3" net="" id="gge3036" locked="0" /><polyline points="4204.6543 3238.107 4204.6543 3270.2682 4256.4258 3270.2682 4256.4258 3238.1064" stroke-width="1"  stroke-linecap="round" fill="none" layerid="3" net="" id="gge3039" locked="0" /><polyline points="4204.6543 3215.1502 4204.6543 3223.6894" stroke-width="1"  stroke-linecap="round" fill="none" layerid="3" net="" id="gge3042" locked="0" /><polyline points="4176.6217 3128.4605 4129.3777 3128.4605" stroke-width="1"  stroke-linecap="round" fill="none" layerid="3" net="" id="gge3864" locked="0" /><polyline points="4129.3777 3109.6738 4129.3777 3109.457" stroke-width="1"  stroke-linecap="round" fill="none" layerid="3" net="" id="gge3867" locked="0" /><polyline points="4176.6217 3125.2009 4176.6217 3187.3191 4129.3777 3187.3191 4129.3777 3125.2009" stroke-width="1"  stroke-linecap="round" fill="none" layerid="3" net="" id="gge3870" locked="0" /><polyline points="4170.8199 3109.1696 4176.6217 3109.1696 4176.6217 3109.6738" stroke-width="1"  stroke-linecap="round" fill="none" layerid="3" net="" id="gge3873" locked="0" /><polyline points="4160.9769 3109.1696 4162.7391 3109.1696" stroke-width="1"  stroke-linecap="round" fill="none" layerid="3" net="" id="gge3876" locked="0" /><polyline points="4143.2609 3109.1696 4145.0221 3109.1696" stroke-width="1"  stroke-linecap="round" fill="none" layerid="3" net="" id="gge3879" locked="0" /><polyline points="4129.3777 3109.6738 4129.3777 3109.1696 4135.1801 3109.1696" stroke-width="1"  stroke-linecap="round" fill="none" layerid="3" net="" id="gge3882" locked="0" /><polyline points="4160.4995 3160.063 4172.9995 3160.063 4172.9995 3169.563 4160.4995 3169.563 4160.4995 3160.063" stroke-width="1"  stroke-linecap="round" fill="none" layerid="3" net="" id="gge3885" locked="0" /><polyline points="4132.9995 3160.063 4145.4995 3160.063 4145.4995 3169.563 4132.9995 3169.563 4132.9995 3160.063" stroke-width="1"  stroke-linecap="round" fill="none" layerid="3" net="" id="gge3888" locked="0" /><g c_partid="part_pcbtext" c_etype="" c_origin="4332.6129,3206.331" c_rotation="0" c_mirror="" id="gge9" locked="0" layerid="3" c_shapetype="group" display="none"><path c_fontsize="4.5" c_fontfamily="" c_text="10uF" d="M 4332.6129 3202.611 L 4333.0229 3202.401 L 4333.6329 3201.791 L 4333.6329 3206.081 M 4336.2129 3201.791 L 4335.6029 3201.991 L 4335.1929 3202.611 L 4334.9829 3203.631 L 4334.9829 3204.241 L 4335.1929 3205.271 L 4335.6029 3205.881 L 4336.2129 3206.081 L 4336.6229 3206.081 L 4337.2329 3205.881 L 4337.6429 3205.271 L 4337.8529 3204.241 L 4337.8529 3203.631 L 4337.6429 3202.611 L 4337.2329 3201.991 L 4336.6229 3201.791 L 4336.2129 3201.791 M 4339.2029 3203.221 L 4339.2029 3205.271 L 4339.4029 3205.881 L 4339.8129 3206.081 L 4340.4229 3206.081 L 4340.8329 3205.881 L 4341.4529 3205.271 M 4341.4529 3203.221 L 4341.4529 3206.081 M 4342.8029 3201.791 L 4342.8029 3206.081 M 4342.8029 3201.791 L 4345.4629 3201.791 M 4342.8029 3203.831 L 4344.4329 3203.831" fill="none"  stroke-width="0.6" c_note="note_name" /></g><g c_partid="part_pcbtext" c_etype="" c_origin="4332.6129,3213.331" c_rotation="0" c_mirror="" id="gge15" locked="0" layerid="3" c_shapetype="group" ><path c_fontsize="4.5" c_fontfamily="" c_text="C1" d="M 4335.6829 3209.811 L 4335.4729 3209.401 L 4335.0629 3208.991 L 4334.6629 3208.791 L 4333.8429 3208.791 L 4333.4329 3208.991 L 4333.0229 3209.401 L 4332.8129 3209.811 L 4332.6129 3210.431 L 4332.6129 3211.451 L 4332.8129 3212.061 L 4333.0229 3212.471 L 4333.4329 3212.881 L 4333.8429 3213.081 L 4334.6629 3213.081 L 4335.0629 3212.881 L 4335.4729 3212.471 L 4335.6829 3212.061 M 4337.0329 3209.611 L 4337.4429 3209.401 L 4338.0529 3208.791 L 4338.0529 3213.081" fill="none"  stroke-width="0.6" c_note="note_pre" /></g><g c_partid="part_pcbtext" c_etype="" c_origin="4352.6129,3206.331" c_rotation="0" c_mirror="" id="gge105" locked="0" layerid="3" c_shapetype="group" display="none"><path c_fontsize="4.5" c_fontfamily="" c_text="10uF" d="M 4352.6129 3202.611 L 4353.0229 3202.401 L 4353.6329 3201.791 L 4353.6329 3206.081 M 4356.2129 3201.791 L 4355.6029 3201.991 L 4355.1929 3202.611 L 4354.9829 3203.631 L 4354.9829 3204.241 L 4355.1929 3205.271 L 4355.6029 3205.881 L 4356.2129 3206.081 L 4356.6229 3206.081 L 4357.2329 3205.881 L 4357.6429 3205.271 L 4357.8529 3204.241 L 4357.8529 3203.631 L 4357.6429 3202.611 L 4357.2329 3201.991 L 4356.6229 3201.791 L 4356.2129 3201.791 M 4359.2029 3203.221 L 4359.2029 3205.271 L 4359.4029 3205.881 L 4359.8129 3206.081 L 4360.4229 3206.081 L 4360.8329 3205.881 L 4361.4529 3205.271 M 4361.4529 3203.221 L 4361.4529 3206.081 M 4362.8029 3201.791 L 4362.8029 3206.081 M 4362.8029 3201.791 L 4365.4629 3201.791 M 4362.8029 3203.831 L 4364.4329 3203.831" fill="none"  stroke-width="0.6" c_note="note_name" /></g><g c_partid="part_pcbtext" c_etype="" c_origin="4352.6129,3213.331" c_rotation="0" c_mirror="" id="gge111" locked="0" layerid="3" c_shapetype="group" ><path c_fontsize="4.5" c_fontfamily="" c_text="C2" d="M 4355.6829 3209.811 L 4355.4729 3209.401 L 4355.0629 3208.991 L 4354.6629 3208.791 L 4353.8429 3208.791 L 4353.4329 3208.991 L 4353.0229 3209.401 L 4352.8129 3209.811 L 4352.6129 3210.431 L 4352.6129 3211.451 L 4352.8129 3212.061 L 4353.0229 3212.471 L 4353.4329 3212.881 L 4353.8429 3213.081 L 4354.6629 3213.081 L 4355.0629 3212.881 L 4355.4729 3212.471 L 4355.6829 3212.061 M 4357.2329 3209.811 L 4357.2329 3209.611 L 4357.4429 3209.201 L 4357.6429 3208.991 L 4358.0529 3208.791 L 4358.8729 3208.791 L 4359.2829 3208.991 L 4359.4829 3209.201 L 4359.6929 3209.611 L 4359.6929 3210.021 L 4359.4829 3210.431 L 4359.0729 3211.041 L 4357.0329 3213.081 L 4359.8929 3213.081" fill="none"  stroke-width="0.6" c_note="note_pre" /></g><g c_partid="part_pcbtext" c_etype="" c_origin="4332.6129,3236.331" c_rotation="0" c_mirror="" id="gge201" locked="0" layerid="3" c_shapetype="group" display="none"><path c_fontsize="4.5" c_fontfamily="" c_text="10uF" d="M 4332.6129 3232.611 L 4333.0229 3232.401 L 4333.6329 3231.791 L 4333.6329 3236.081 M 4336.2129 3231.791 L 4335.6029 3231.991 L 4335.1929 3232.611 L 4334.9829 3233.631 L 4334.9829 3234.241 L 4335.1929 3235.271 L 4335.6029 3235.881 L 4336.2129 3236.081 L 4336.6229 3236.081 L 4337.2329 3235.881 L 4337.6429 3235.271 L 4337.8529 3234.241 L 4337.8529 3233.631 L 4337.6429 3232.611 L 4337.2329 3231.991 L 4336.6229 3231.791 L 4336.2129 3231.791 M 4339.2029 3233.221 L 4339.2029 3235.271 L 4339.4029 3235.881 L 4339.8129 3236.081 L 4340.4229 3236.081 L 4340.8329 3235.881 L 4341.4529 3235.271 M 4341.4529 3233.221 L 4341.4529 3236.081 M 4342.8029 3231.791 L 4342.8029 3236.081 M 4342.8029 3231.791 L 4345.4629 3231.791 M 4342.8029 3233.831 L 4344.4329 3233.831" fill="none"  stroke-width="0.6" c_note="note_name" /></g><g c_partid="part_pcbtext" c_etype="" c_origin="4332.6129,3243.331" c_rotation="0" c_mirror="" id="gge207" locked="0" layerid="3" c_shapetype="group" ><path c_fontsize="4.5" c_fontfamily="" c_text="C3" d="M 4335.6829 3239.811 L 4335.4729 3239.401 L 4335.0629 3238.991 L 4334.6629 3238.791 L 4333.8429 3238.791 L 4333.4329 3238.991 L 4333.0229 3239.401 L 4332.8129 3239.811 L 4332.6129 3240.431 L 4332.6129 3241.451 L 4332.8129 3242.061 L 4333.0229 3242.471 L 4333.4329 3242.881 L 4333.8429 3243.081 L 4334.6629 3243.081 L 4335.0629 3242.881 L 4335.4729 3242.471 L 4335.6829 3242.061 M 4337.4429 3238.791 L 4339.6929 3238.791 L 4338.4629 3240.431 L 4339.0729 3240.431 L 4339.4829 3240.631 L 4339.6929 3240.831 L 4339.8929 3241.451 L 4339.8929 3241.861 L 4339.6929 3242.471 L 4339.2829 3242.881 L 4338.6629 3243.081 L 4338.0529 3243.081 L 4337.4429 3242.881 L 4337.2329 3242.681 L 4337.0329 3242.271" fill="none"  stroke-width="0.6" c_note="note_pre" /></g><g c_partid="part_pcbtext" c_etype="" c_origin="4352.6129,3236.331" c_rotation="0" c_mirror="" id="gge297" locked="0" layerid="3" c_shapetype="group" display="none"><path c_fontsize="4.5" c_fontfamily="" c_text="10uF" d="M 4352.6129 3232.611 L 4353.0229 3232.401 L 4353.6329 3231.791 L 4353.6329 3236.081 M 4356.2129 3231.791 L 4355.6029 3231.991 L 4355.1929 3232.611 L 4354.9829 3233.631 L 4354.9829 3234.241 L 4355.1929 3235.271 L 4355.6029 3235.881 L 4356.2129 3236.081 L 4356.6229 3236.081 L 4357.2329 3235.881 L 4357.6429 3235.271 L 4357.8529 3234.241 L 4357.8529 3233.631 L 4357.6429 3232.611 L 4357.2329 3231.991 L 4356.6229 3231.791 L 4356.2129 3231.791 M 4359.2029 3233.221 L 4359.2029 3235.271 L 4359.4029 3235.881 L 4359.8129 3236.081 L 4360.4229 3236.081 L 4360.8329 3235.881 L 4361.4529 3235.271 M 4361.4529 3233.221 L 4361.4529 3236.081 M 4362.8029 3231.791 L 4362.8029 3236.081 M 4362.8029 3231.791 L 4365.4629 3231.791 M 4362.8029 3233.831 L 4364.4329 3233.831" fill="none"  stroke-width="0.6" c_note="note_name" /></g><g c_partid="part_pcbtext" c_etype="" c_origin="4352.6129,3243.331" c_rotation="0" c_mirror="" id="gge303" locked="0" layerid="3" c_shapetype="group" ><path c_fontsize="4.5" c_fontfamily="" c_text="C4" d="M 4355.6829 3239.811 L 4355.4729 3239.401 L 4355.0629 3238.991 L 4354.6629 3238.791 L 4353.8429 3238.791 L 4353.4329 3238.991 L 4353.0229 3239.401 L 4352.8129 3239.811 L 4352.6129 3240.431 L 4352.6129 3241.451 L 4352.8129 3242.061 L 4353.0229 3242.471 L 4353.4329 3242.881 L 4353.8429 3243.081 L 4354.6629 3243.081 L 4355.0629 3242.881 L 4355.4729 3242.471 L 4355.6829 3242.061 M 4359.0729 3238.791 L 4357.0329 3241.651 L 4360.1029 3241.651 M 4359.0729 3238.791 L 4359.0729 3243.081" fill="none"  stroke-width="0.6" c_note="note_pre" /></g><g c_partid="part_pcbtext" c_etype="" c_origin="4262.6129,3176.331" c_rotation="0" c_mirror="" id="gge393" locked="0" layerid="3" c_shapetype="group" display="none"><path c_fontsize="4.5" c_fontfamily="" c_text="10uF" d="M 4262.6129 3172.611 L 4263.0229 3172.401 L 4263.6329 3171.791 L 4263.6329 3176.081 M 4266.2129 3171.791 L 4265.6029 3171.991 L 4265.1929 3172.611 L 4264.9829 3173.631 L 4264.9829 3174.241 L 4265.1929 3175.271 L 4265.6029 3175.881 L 4266.2129 3176.081 L 4266.6229 3176.081 L 4267.2329 3175.881 L 4267.6429 3175.271 L 4267.8529 3174.241 L 4267.8529 3173.631 L 4267.6429 3172.611 L 4267.2329 3171.991 L 4266.6229 3171.791 L 4266.2129 3171.791 M 4269.2029 3173.221 L 4269.2029 3175.271 L 4269.4029 3175.881 L 4269.8129 3176.081 L 4270.4229 3176.081 L 4270.8329 3175.881 L 4271.4529 3175.271 M 4271.4529 3173.221 L 4271.4529 3176.081 M 4272.8029 3171.791 L 4272.8029 3176.081 M 4272.8029 3171.791 L 4275.4629 3171.791 M 4272.8029 3173.831 L 4274.4329 3173.831" fill="none"  stroke-width="0.6" c_note="note_name" /></g><g c_partid="part_pcbtext" c_etype="" c_origin="4262.6129,3183.331" c_rotation="0" c_mirror="" id="gge399" locked="0" layerid="3" c_shapetype="group" ><path c_fontsize="4.5" c_fontfamily="" c_text="C5" d="M 4265.6829 3179.811 L 4265.4729 3179.401 L 4265.0629 3178.991 L 4264.6629 3178.791 L 4263.8429 3178.791 L 4263.4329 3178.991 L 4263.0229 3179.401 L 4262.8129 3179.811 L 4262.6129 3180.431 L 4262.6129 3181.451 L 4262.8129 3182.061 L 4263.0229 3182.471 L 4263.4329 3182.881 L 4263.8429 3183.081 L 4264.6629 3183.081 L 4265.0629 3182.881 L 4265.4729 3182.471 L 4265.6829 3182.061 M 4269.4829 3178.791 L 4267.4429 3178.791 L 4267.2329 3180.631 L 4267.4429 3180.431 L 4268.0529 3180.221 L 4268.6629 3180.221 L 4269.2829 3180.431 L 4269.6929 3180.831 L 4269.8929 3181.451 L 4269.8929 3181.861 L 4269.6929 3182.471 L 4269.2829 3182.881 L 4268.6629 3183.081 L 4268.0529 3183.081 L 4267.4429 3182.881 L 4267.2329 3182.681 L 4267.0329 3182.271" fill="none"  stroke-width="0.6" c_note="note_pre" /></g><g c_partid="part_pcbtext" c_etype="" c_origin="4282.6129,3176.331" c_rotation="0" c_mirror="" id="gge489" locked="0" layerid="3" c_shapetype="group" display="none"><path c_fontsize="4.5" c_fontfamily="" c_text="10uF" d="M 4282.6129 3172.611 L 4283.0229 3172.401 L 4283.6329 3171.791 L 4283.6329 3176.081 M 4286.2129 3171.791 L 4285.6029 3171.991 L 4285.1929 3172.611 L 4284.9829 3173.631 L 4284.9829 3174.241 L 4285.1929 3175.271 L 4285.6029 3175.881 L 4286.2129 3176.081 L 4286.6229 3176.081 L 4287.2329 3175.881 L 4287.6429 3175.271 L 4287.8529 3174.241 L 4287.8529 3173.631 L 4287.6429 3172.611 L 4287.2329 3171.991 L 4286.6229 3171.791 L 4286.2129 3171.791 M 4289.2029 3173.221 L 4289.2029 3175.271 L 4289.4029 3175.881 L 4289.8129 3176.081 L 4290.4229 3176.081 L 4290.8329 3175.881 L 4291.4529 3175.271 M 4291.4529 3173.221 L 4291.4529 3176.081 M 4292.8029 3171.791 L 4292.8029 3176.081 M 4292.8029 3171.791 L 4295.4629 3171.791 M 4292.8029 3173.831 L 4294.4329 3173.831" fill="none"  stroke-width="0.6" c_note="note_name" /></g><g c_partid="part_pcbtext" c_etype="" c_origin="4282.6129,3183.331" c_rotation="0" c_mirror="" id="gge495" locked="0" layerid="3" c_shapetype="group" ><path c_fontsize="4.5" c_fontfamily="" c_text="C6" d="M 4285.6829 3179.811 L 4285.4729 3179.401 L 4285.0629 3178.991 L 4284.6629 3178.791 L 4283.8429 3178.791 L 4283.4329 3178.991 L 4283.0229 3179.401 L 4282.8129 3179.811 L 4282.6129 3180.431 L 4282.6129 3181.451 L 4282.8129 3182.061 L 4283.0229 3182.471 L 4283.4329 3182.881 L 4283.8429 3183.081 L 4284.6629 3183.081 L 4285.0629 3182.881 L 4285.4729 3182.471 L 4285.6829 3182.061 M 4289.4829 3179.401 L 4289.2829 3178.991 L 4288.6629 3178.791 L 4288.2629 3178.791 L 4287.6429 3178.991 L 4287.2329 3179.611 L 4287.0329 3180.631 L 4287.0329 3181.651 L 4287.2329 3182.471 L 4287.6429 3182.881 L 4288.2629 3183.081 L 4288.4629 3183.081 L 4289.0729 3182.881 L 4289.4829 3182.471 L 4289.6929 3181.861 L 4289.6929 3181.651 L 4289.4829 3181.041 L 4289.0729 3180.631 L 4288.4629 3180.431 L 4288.2629 3180.431 L 4287.6429 3180.631 L 4287.2329 3181.041 L 4287.0329 3181.651" fill="none"  stroke-width="0.6" c_note="note_pre" /></g><g c_partid="part_pcbtext" c_etype="" c_origin="4302.6129,3176.331" c_rotation="0" c_mirror="" id="gge585" locked="0" layerid="3" c_shapetype="group" display="none"><path c_fontsize="4.5" c_fontfamily="" c_text="10uF" d="M 4302.6129 3172.611 L 4303.0229 3172.401 L 4303.6329 3171.791 L 4303.6329 3176.081 M 4306.2129 3171.791 L 4305.6029 3171.991 L 4305.1929 3172.611 L 4304.9829 3173.631 L 4304.9829 3174.241 L 4305.1929 3175.271 L 4305.6029 3175.881 L 4306.2129 3176.081 L 4306.6229 3176.081 L 4307.2329 3175.881 L 4307.6429 3175.271 L 4307.8529 3174.241 L 4307.8529 3173.631 L 4307.6429 3172.611 L 4307.2329 3171.991 L 4306.6229 3171.791 L 4306.2129 3171.791 M 4309.2029 3173.221 L 4309.2029 3175.271 L 4309.4029 3175.881 L 4309.8129 3176.081 L 4310.4229 3176.081 L 4310.8329 3175.881 L 4311.4529 3175.271 M 4311.4529 3173.221 L 4311.4529 3176.081 M 4312.8029 3171.791 L 4312.8029 3176.081 M 4312.8029 3171.791 L 4315.4629 3171.791 M 4312.8029 3173.831 L 4314.4329 3173.831" fill="none"  stroke-width="0.6" c_note="note_name" /></g><g c_partid="part_pcbtext" c_etype="" c_origin="4302.6129,3183.331" c_rotation="0" c_mirror="" id="gge591" locked="0" layerid="3" c_shapetype="group" ><path c_fontsize="4.5" c_fontfamily="" c_text="C7" d="M 4305.6829 3179.811 L 4305.4729 3179.401 L 4305.0629 3178.991 L 4304.6629 3178.791 L 4303.8429 3178.791 L 4303.4329 3178.991 L 4303.0229 3179.401 L 4302.8129 3179.811 L 4302.6129 3180.431 L 4302.6129 3181.451 L 4302.8129 3182.061 L 4303.0229 3182.471 L 4303.4329 3182.881 L 4303.8429 3183.081 L 4304.6629 3183.081 L 4305.0629 3182.881 L 4305.4729 3182.471 L 4305.6829 3182.061 M 4309.8929 3178.791 L 4307.8529 3183.081 M 4307.0329 3178.791 L 4309.8929 3178.791" fill="none"  stroke-width="0.6" c_note="note_pre" /></g><g c_partid="part_pcbtext" c_etype="" c_origin="4193.7626,3176.331" c_rotation="0" c_mirror="" id="gge681" locked="0" layerid="3" c_shapetype="group" display="none"><path c_fontsize="4.5" c_fontfamily="" c_text="NSR0320MW2T1G" d="M 4193.7626 3171.791 L 4193.7626 3176.081 M 4193.7626 3171.791 L 4196.6226 3176.081 M 4196.6226 3171.791 L 4196.6226 3176.081 M 4200.8426 3172.401 L 4200.4326 3171.991 L 4199.8126 3171.791 L 4199.0026 3171.791 L 4198.3826 3171.991 L 4197.9726 3172.401 L 4197.9726 3172.811 L 4198.1826 3173.221 L 4198.3826 3173.431 L 4198.7926 3173.631 L 4200.0226 3174.041 L 4200.4326 3174.241 L 4200.6326 3174.451 L 4200.8426 3174.861 L 4200.8426 3175.471 L 4200.4326 3175.881 L 4199.8126 3176.081 L 4199.0026 3176.081 L 4198.3826 3175.881 L 4197.9726 3175.471 M 4202.1926 3171.791 L 4202.1926 3176.081 M 4202.1926 3171.791 L 4204.0326 3171.791 L 4204.6426 3171.991 L 4204.8526 3172.201 L 4205.0526 3172.611 L 4205.0526 3173.021 L 4204.8526 3173.431 L 4204.6426 3173.631 L 4204.0326 3173.831 L 4202.1926 3173.831 M 4203.6226 3173.831 L 4205.0526 3176.081 M 4207.6326 3171.791 L 4207.0126 3171.991 L 4206.6126 3172.611 L 4206.4026 3173.631 L 4206.4026 3174.241 L 4206.6126 3175.271 L 4207.0126 3175.881 L 4207.6326 3176.081 L 4208.0426 3176.081 L 4208.6526 3175.881 L 4209.0626 3175.271 L 4209.2626 3174.241 L 4209.2626 3173.631 L 4209.0626 3172.611 L 4208.6526 3171.991 L 4208.0426 3171.791 L 4207.6326 3171.791 M 4211.0226 3171.791 L 4213.2726 3171.791 L 4212.0526 3173.431 L 4212.6626 3173.431 L 4213.0726 3173.631 L 4213.2726 3173.831 L 4213.4826 3174.451 L 4213.4826 3174.861 L 4213.2726 3175.471 L 4212.8626 3175.881 L 4212.2526 3176.081 L 4211.6426 3176.081 L 4211.0226 3175.881 L 4210.8226 3175.681 L 4210.6126 3175.271 M 4215.0326 3172.811 L 4215.0326 3172.611 L 4215.2426 3172.201 L 4215.4426 3171.991 L 4215.8526 3171.791 L 4216.6726 3171.791 L 4217.0826 3171.991 L 4217.2826 3172.201 L 4217.4926 3172.611 L 4217.4926 3173.021 L 4217.2826 3173.431 L 4216.8726 3174.041 L 4214.8326 3176.081 L 4217.6926 3176.081 M 4220.2726 3171.791 L 4219.6626 3171.991 L 4219.2526 3172.611 L 4219.0426 3173.631 L 4219.0426 3174.241 L 4219.2526 3175.271 L 4219.6626 3175.881 L 4220.2726 3176.081 L 4220.6826 3176.081 L 4221.2926 3175.881 L 4221.7026 3175.271 L 4221.9126 3174.241 L 4221.9126 3173.631 L 4221.7026 3172.611 L 4221.2926 3171.991 L 4220.6826 3171.791 L 4220.2726 3171.791 M 4223.2626 3171.791 L 4223.2626 3176.081 M 4223.2626 3171.791 L 4224.8926 3176.081 M 4226.5326 3171.791 L 4224.8926 3176.081 M 4226.5326 3171.791 L 4226.5326 3176.081 M 4227.8826 3171.791 L 4228.9026 3176.081 M 4229.9226 3171.791 L 4228.9026 3176.081 M 4229.9226 3171.791 L 4230.9526 3176.081 M 4231.9726 3171.791 L 4230.9526 3176.081 M 4233.5226 3172.811 L 4233.5226 3172.611 L 4233.7326 3172.201 L 4233.9326 3171.991 L 4234.3426 3171.791 L 4235.1626 3171.791 L 4235.5726 3171.991 L 4235.7726 3172.201 L 4235.9826 3172.611 L 4235.9826 3173.021 L 4235.7726 3173.431 L 4235.3626 3174.041 L 4233.3226 3176.081 L 4236.1826 3176.081 M 4238.9626 3171.791 L 4238.9626 3176.081 M 4237.5326 3171.791 L 4240.4026 3171.791 M 4241.7526 3172.611 L 4242.1626 3172.401 L 4242.7726 3171.791 L 4242.7726 3176.081 M 4247.1926 3172.811 L 4246.9826 3172.401 L 4246.5726 3171.991 L 4246.1626 3171.791 L 4245.3526 3171.791 L 4244.9426 3171.991 L 4244.5326 3172.401 L 4244.3226 3172.811 L 4244.1226 3173.431 L 4244.1226 3174.451 L 4244.3226 3175.061 L 4244.5326 3175.471 L 4244.9426 3175.881 L 4245.3526 3176.081 L 4246.1626 3176.081 L 4246.5726 3175.881 L 4246.9826 3175.471 L 4247.1926 3175.061 L 4247.1926 3174.451 M 4246.1626 3174.451 L 4247.1926 3174.451" fill="none"  stroke-width="0.6" c_note="note_name" /></g><g c_partid="part_pcbtext" c_etype="" c_origin="4193.7626,3183.331" c_rotation="0" c_mirror="" id="gge687" locked="0" layerid="3" c_shapetype="group" ><path c_fontsize="4.5" c_fontfamily="" c_text="D1" d="M 4193.7626 3178.791 L 4193.7626 3183.081 M 4193.7626 3178.791 L 4195.1926 3178.791 L 4195.8126 3178.991 L 4196.2126 3179.401 L 4196.4226 3179.811 L 4196.6226 3180.431 L 4196.6226 3181.451 L 4196.4226 3182.061 L 4196.2126 3182.471 L 4195.8126 3182.881 L 4195.1926 3183.081 L 4193.7626 3183.081 M 4197.9726 3179.611 L 4198.3826 3179.401 L 4199.0026 3178.791 L 4199.0026 3183.081" fill="none"  stroke-width="0.6" c_note="note_pre" /></g><g c_partid="part_pcbtext" c_etype="" c_origin="4348.0536,3156.331" c_rotation="0" c_mirror="" id="gge2169" locked="0" layerid="3" c_shapetype="group" display="none"><path c_fontsize="4.5" c_fontfamily="" c_text="SL2.1A" d="M 4350.9136 3152.401 L 4350.5036 3151.991 L 4349.8936 3151.791 L 4349.0736 3151.791 L 4348.4636 3151.991 L 4348.0536 3152.401 L 4348.0536 3152.811 L 4348.2536 3153.221 L 4348.4636 3153.431 L 4348.8736 3153.631 L 4350.1036 3154.041 L 4350.5036 3154.241 L 4350.7136 3154.451 L 4350.9136 3154.861 L 4350.9136 3155.471 L 4350.5036 3155.881 L 4349.8936 3156.081 L 4349.0736 3156.081 L 4348.4636 3155.881 L 4348.0536 3155.471 M 4352.2636 3151.791 L 4352.2636 3156.081 M 4352.2636 3156.081 L 4354.7236 3156.081 M 4356.2736 3152.811 L 4356.2736 3152.611 L 4356.4836 3152.201 L 4356.6836 3151.991 L 4357.0936 3151.791 L 4357.9136 3151.791 L 4358.3236 3151.991 L 4358.5236 3152.201 L 4358.7336 3152.611 L 4358.7336 3153.021 L 4358.5236 3153.431 L 4358.1136 3154.041 L 4356.0736 3156.081 L 4358.9336 3156.081 M 4360.4936 3155.061 L 4360.2836 3155.271 L 4360.4936 3155.471 L 4360.6936 3155.271 L 4360.4936 3155.061 M 4362.0436 3152.611 L 4362.4536 3152.401 L 4363.0636 3151.791 L 4363.0636 3156.081 M 4366.0536 3151.791 L 4364.4136 3156.081 M 4366.0536 3151.791 L 4367.6936 3156.081 M 4365.0336 3154.651 L 4367.0736 3154.651" fill="none"  stroke-width="0.6" c_note="note_name" /></g><g c_partid="part_pcbtext" c_etype="" c_origin="4348.0536,3163.331" c_rotation="0" c_mirror="" id="gge2175" locked="0" layerid="3" c_shapetype="group" ><path c_fontsize="4.5" c_fontfamily="" c_text="U2" d="M 4348.0536 3158.791 L 4348.0536 3161.861 L 4348.2536 3162.471 L 4348.6636 3162.881 L 4349.2836 3163.081 L 4349.6936 3163.081 L 4350.3036 3162.881 L 4350.7136 3162.471 L 4350.9136 3161.861 L 4350.9136 3158.791 M 4352.4736 3159.811 L 4352.4736 3159.611 L 4352.6736 3159.201 L 4352.8836 3158.991 L 4353.2936 3158.791 L 4354.1036 3158.791 L 4354.5136 3158.991 L 4354.7236 3159.201 L 4354.9236 3159.611 L 4354.9236 3160.021 L 4354.7236 3160.431 L 4354.3136 3161.041 L 4352.2636 3163.081 L 4355.1336 3163.081" fill="none"  stroke-width="0.6" c_note="note_pre" /></g><g c_partid="part_pcbtext" c_etype="" c_origin="4220.0756,3096.331" c_rotation="0" c_mirror="" id="gge2547" locked="0" layerid="3" c_shapetype="group" display="none"><path c_fontsize="4.5" c_fontfamily="" c_text="ZX-TYPEA-2-WCM4" d="M 4222.9356 3091.791 L 4220.0756 3096.081 M 4220.0756 3091.791 L 4222.9356 3091.791 M 4220.0756 3096.081 L 4222.9356 3096.081 M 4224.2856 3091.791 L 4227.1556 3096.081 M 4227.1556 3091.791 L 4224.2856 3096.081 M 4228.5056 3094.241 L 4232.1856 3094.241 M 4234.9656 3091.791 L 4234.9656 3096.081 M 4233.5356 3091.791 L 4236.3956 3091.791 M 4237.7456 3091.791 L 4239.3856 3093.831 L 4239.3856 3096.081 M 4241.0256 3091.791 L 4239.3856 3093.831 M 4242.3756 3091.791 L 4242.3756 3096.081 M 4242.3756 3091.791 L 4244.2156 3091.791 L 4244.8256 3091.991 L 4245.0256 3092.201 L 4245.2356 3092.611 L 4245.2356 3093.221 L 4245.0256 3093.631 L 4244.8256 3093.831 L 4244.2156 3094.041 L 4242.3756 3094.041 M 4246.5856 3091.791 L 4246.5856 3096.081 M 4246.5856 3091.791 L 4249.2456 3091.791 M 4246.5856 3093.831 L 4248.2256 3093.831 M 4246.5856 3096.081 L 4249.2456 3096.081 M 4252.2256 3091.791 L 4250.5956 3096.081 M 4252.2256 3091.791 L 4253.8656 3096.081 M 4251.2056 3094.651 L 4253.2556 3094.651 M 4255.2156 3094.241 L 4258.8956 3094.241 M 4260.4556 3092.811 L 4260.4556 3092.611 L 4260.6556 3092.201 L 4260.8656 3091.991 L 4261.2756 3091.791 L 4262.0856 3091.791 L 4262.4956 3091.991 L 4262.7056 3092.201 L 4262.9056 3092.611 L 4262.9056 3093.021 L 4262.7056 3093.431 L 4262.2956 3094.041 L 4260.2456 3096.081 L 4263.1156 3096.081 M 4264.4656 3094.241 L 4268.1456 3094.241 M 4269.4956 3091.791 L 4270.5156 3096.081 M 4271.5356 3091.791 L 4270.5156 3096.081 M 4271.5356 3091.791 L 4272.5656 3096.081 M 4273.5856 3091.791 L 4272.5656 3096.081 M 4278.0056 3092.811 L 4277.7956 3092.401 L 4277.3856 3091.991 L 4276.9756 3091.791 L 4276.1656 3091.791 L 4275.7556 3091.991 L 4275.3456 3092.401 L 4275.1356 3092.811 L 4274.9356 3093.431 L 4274.9356 3094.451 L 4275.1356 3095.061 L 4275.3456 3095.471 L 4275.7556 3095.881 L 4276.1656 3096.081 L 4276.9756 3096.081 L 4277.3856 3095.881 L 4277.7956 3095.471 L 4278.0056 3095.061 M 4279.3556 3091.791 L 4279.3556 3096.081 M 4279.3556 3091.791 L 4280.9856 3096.081 M 4282.6256 3091.791 L 4280.9856 3096.081 M 4282.6256 3091.791 L 4282.6256 3096.081 M 4286.0256 3091.791 L 4283.9756 3094.651 L 4287.0456 3094.651 M 4286.0256 3091.791 L 4286.0256 3096.081" fill="none"  stroke-width="0.6" c_note="note_name" /></g><g c_partid="part_pcbtext" c_etype="" c_origin="4220.0756,3103.331" c_rotation="0" c_mirror="" id="gge2553" locked="0" layerid="3" c_shapetype="group" ><path c_fontsize="4.5" c_fontfamily="" c_text="U3" d="M 4220.0756 3098.791 L 4220.0756 3101.861 L 4220.2756 3102.471 L 4220.6856 3102.881 L 4221.3056 3103.081 L 4221.7156 3103.081 L 4222.3256 3102.881 L 4222.7356 3102.471 L 4222.9356 3101.861 L 4222.9356 3098.791 M 4224.6956 3098.791 L 4226.9456 3098.791 L 4225.7256 3100.431 L 4226.3356 3100.431 L 4226.7456 3100.631 L 4226.9456 3100.831 L 4227.1556 3101.451 L 4227.1556 3101.861 L 4226.9456 3102.471 L 4226.5356 3102.881 L 4225.9256 3103.081 L 4225.3156 3103.081 L 4224.6956 3102.881 L 4224.4956 3102.681 L 4224.2856 3102.271" fill="none"  stroke-width="0.6" c_note="note_pre" /></g><g c_partid="part_pcbtext" c_etype="" c_origin="4290.0756,3096.331" c_rotation="0" c_mirror="" id="gge2703" locked="0" layerid="3" c_shapetype="group" display="none"><path c_fontsize="4.5" c_fontfamily="" c_text="ZX-TYPEA-2-WCM4" d="M 4292.9356 3091.791 L 4290.0756 3096.081 M 4290.0756 3091.791 L 4292.9356 3091.791 M 4290.0756 3096.081 L 4292.9356 3096.081 M 4294.2856 3091.791 L 4297.1556 3096.081 M 4297.1556 3091.791 L 4294.2856 3096.081 M 4298.5056 3094.241 L 4302.1856 3094.241 M 4304.9656 3091.791 L 4304.9656 3096.081 M 4303.5356 3091.791 L 4306.3956 3091.791 M 4307.7456 3091.791 L 4309.3856 3093.831 L 4309.3856 3096.081 M 4311.0256 3091.791 L 4309.3856 3093.831 M 4312.3756 3091.791 L 4312.3756 3096.081 M 4312.3756 3091.791 L 4314.2156 3091.791 L 4314.8256 3091.991 L 4315.0256 3092.201 L 4315.2356 3092.611 L 4315.2356 3093.221 L 4315.0256 3093.631 L 4314.8256 3093.831 L 4314.2156 3094.041 L 4312.3756 3094.041 M 4316.5856 3091.791 L 4316.5856 3096.081 M 4316.5856 3091.791 L 4319.2456 3091.791 M 4316.5856 3093.831 L 4318.2256 3093.831 M 4316.5856 3096.081 L 4319.2456 3096.081 M 4322.2256 3091.791 L 4320.5956 3096.081 M 4322.2256 3091.791 L 4323.8656 3096.081 M 4321.2056 3094.651 L 4323.2556 3094.651 M 4325.2156 3094.241 L 4328.8956 3094.241 M 4330.4556 3092.811 L 4330.4556 3092.611 L 4330.6556 3092.201 L 4330.8656 3091.991 L 4331.2756 3091.791 L 4332.0856 3091.791 L 4332.4956 3091.991 L 4332.7056 3092.201 L 4332.9056 3092.611 L 4332.9056 3093.021 L 4332.7056 3093.431 L 4332.2956 3094.041 L 4330.2456 3096.081 L 4333.1156 3096.081 M 4334.4656 3094.241 L 4338.1456 3094.241 M 4339.4956 3091.791 L 4340.5156 3096.081 M 4341.5356 3091.791 L 4340.5156 3096.081 M 4341.5356 3091.791 L 4342.5656 3096.081 M 4343.5856 3091.791 L 4342.5656 3096.081 M 4348.0056 3092.811 L 4347.7956 3092.401 L 4347.3856 3091.991 L 4346.9756 3091.791 L 4346.1656 3091.791 L 4345.7556 3091.991 L 4345.3456 3092.401 L 4345.1356 3092.811 L 4344.9356 3093.431 L 4344.9356 3094.451 L 4345.1356 3095.061 L 4345.3456 3095.471 L 4345.7556 3095.881 L 4346.1656 3096.081 L 4346.9756 3096.081 L 4347.3856 3095.881 L 4347.7956 3095.471 L 4348.0056 3095.061 M 4349.3556 3091.791 L 4349.3556 3096.081 M 4349.3556 3091.791 L 4350.9856 3096.081 M 4352.6256 3091.791 L 4350.9856 3096.081 M 4352.6256 3091.791 L 4352.6256 3096.081 M 4356.0256 3091.791 L 4353.9756 3094.651 L 4357.0456 3094.651 M 4356.0256 3091.791 L 4356.0256 3096.081" fill="none"  stroke-width="0.6" c_note="note_name" /></g><g c_partid="part_pcbtext" c_etype="" c_origin="4290.0756,3103.331" c_rotation="0" c_mirror="" id="gge2709" locked="0" layerid="3" c_shapetype="group" ><path c_fontsize="4.5" c_fontfamily="" c_text="U4" d="M 4290.0756 3098.791 L 4290.0756 3101.861 L 4290.2756 3102.471 L 4290.6856 3102.881 L 4291.3056 3103.081 L 4291.7156 3103.081 L 4292.3256 3102.881 L 4292.7356 3102.471 L 4292.9356 3101.861 L 4292.9356 3098.791 M 4296.3356 3098.791 L 4294.2856 3101.651 L 4297.3556 3101.651 M 4296.3356 3098.791 L 4296.3356 3103.081" fill="none"  stroke-width="0.6" c_note="note_pre" /></g><g c_partid="part_pcbtext" c_etype="" c_origin="4160.0756,3206.331" c_rotation="0" c_mirror="" id="gge2859" locked="0" layerid="3" c_shapetype="group" display="none"><path c_fontsize="4.5" c_fontfamily="" c_text="ZX-TYPEA-2-WCM4" d="M 4162.9356 3201.791 L 4160.0756 3206.081 M 4160.0756 3201.791 L 4162.9356 3201.791 M 4160.0756 3206.081 L 4162.9356 3206.081 M 4164.2856 3201.791 L 4167.1556 3206.081 M 4167.1556 3201.791 L 4164.2856 3206.081 M 4168.5056 3204.241 L 4172.1856 3204.241 M 4174.9656 3201.791 L 4174.9656 3206.081 M 4173.5356 3201.791 L 4176.3956 3201.791 M 4177.7456 3201.791 L 4179.3856 3203.831 L 4179.3856 3206.081 M 4181.0256 3201.791 L 4179.3856 3203.831 M 4182.3756 3201.791 L 4182.3756 3206.081 M 4182.3756 3201.791 L 4184.2156 3201.791 L 4184.8256 3201.991 L 4185.0256 3202.201 L 4185.2356 3202.611 L 4185.2356 3203.221 L 4185.0256 3203.631 L 4184.8256 3203.831 L 4184.2156 3204.041 L 4182.3756 3204.041 M 4186.5856 3201.791 L 4186.5856 3206.081 M 4186.5856 3201.791 L 4189.2456 3201.791 M 4186.5856 3203.831 L 4188.2256 3203.831 M 4186.5856 3206.081 L 4189.2456 3206.081 M 4192.2256 3201.791 L 4190.5956 3206.081 M 4192.2256 3201.791 L 4193.8656 3206.081 M 4191.2056 3204.651 L 4193.2556 3204.651 M 4195.2156 3204.241 L 4198.8956 3204.241 M 4200.4556 3202.811 L 4200.4556 3202.611 L 4200.6556 3202.201 L 4200.8656 3201.991 L 4201.2756 3201.791 L 4202.0856 3201.791 L 4202.4956 3201.991 L 4202.7056 3202.201 L 4202.9056 3202.611 L 4202.9056 3203.021 L 4202.7056 3203.431 L 4202.2956 3204.041 L 4200.2456 3206.081 L 4203.1156 3206.081 M 4204.4656 3204.241 L 4208.1456 3204.241 M 4209.4956 3201.791 L 4210.5156 3206.081 M 4211.5356 3201.791 L 4210.5156 3206.081 M 4211.5356 3201.791 L 4212.5656 3206.081 M 4213.5856 3201.791 L 4212.5656 3206.081 M 4218.0056 3202.811 L 4217.7956 3202.401 L 4217.3856 3201.991 L 4216.9756 3201.791 L 4216.1656 3201.791 L 4215.7556 3201.991 L 4215.3456 3202.401 L 4215.1356 3202.811 L 4214.9356 3203.431 L 4214.9356 3204.451 L 4215.1356 3205.061 L 4215.3456 3205.471 L 4215.7556 3205.881 L 4216.1656 3206.081 L 4216.9756 3206.081 L 4217.3856 3205.881 L 4217.7956 3205.471 L 4218.0056 3205.061 M 4219.3556 3201.791 L 4219.3556 3206.081 M 4219.3556 3201.791 L 4220.9856 3206.081 M 4222.6256 3201.791 L 4220.9856 3206.081 M 4222.6256 3201.791 L 4222.6256 3206.081 M 4226.0256 3201.791 L 4223.9756 3204.651 L 4227.0456 3204.651 M 4226.0256 3201.791 L 4226.0256 3206.081" fill="none"  stroke-width="0.6" c_note="note_name" /></g><g c_partid="part_pcbtext" c_etype="" c_origin="4160.0756,3213.331" c_rotation="0" c_mirror="" id="gge2865" locked="0" layerid="3" c_shapetype="group" ><path c_fontsize="4.5" c_fontfamily="" c_text="U5" d="M 4160.0756 3208.791 L 4160.0756 3211.861 L 4160.2756 3212.471 L 4160.6856 3212.881 L 4161.3056 3213.081 L 4161.7156 3213.081 L 4162.3256 3212.881 L 4162.7356 3212.471 L 4162.9356 3211.861 L 4162.9356 3208.791 M 4166.7456 3208.791 L 4164.6956 3208.791 L 4164.4956 3210.631 L 4164.6956 3210.431 L 4165.3156 3210.221 L 4165.9256 3210.221 L 4166.5356 3210.431 L 4166.9456 3210.831 L 4167.1556 3211.451 L 4167.1556 3211.861 L 4166.9456 3212.471 L 4166.5356 3212.881 L 4165.9256 3213.081 L 4165.3156 3213.081 L 4164.6956 3212.881 L 4164.4956 3212.681 L 4164.2856 3212.271" fill="none"  stroke-width="0.6" c_note="note_pre" /></g><g c_partid="part_pcbtext" c_etype="" c_origin="4230.0756,3206.331" c_rotation="0" c_mirror="" id="gge3015" locked="0" layerid="3" c_shapetype="group" display="none"><path c_fontsize="4.5" c_fontfamily="" c_text="ZX-TYPEA-2-WCM4" d="M 4232.9356 3201.791 L 4230.0756 3206.081 M 4230.0756 3201.791 L 4232.9356 3201.791 M 4230.0756 3206.081 L 4232.9356 3206.081 M 4234.2856 3201.791 L 4237.1556 3206.081 M 4237.1556 3201.791 L 4234.2856 3206.081 M 4238.5056 3204.241 L 4242.1856 3204.241 M 4244.9656 3201.791 L 4244.9656 3206.081 M 4243.5356 3201.791 L 4246.3956 3201.791 M 4247.7456 3201.791 L 4249.3856 3203.831 L 4249.3856 3206.081 M 4251.0256 3201.791 L 4249.3856 3203.831 M 4252.3756 3201.791 L 4252.3756 3206.081 M 4252.3756 3201.791 L 4254.2156 3201.791 L 4254.8256 3201.991 L 4255.0256 3202.201 L 4255.2356 3202.611 L 4255.2356 3203.221 L 4255.0256 3203.631 L 4254.8256 3203.831 L 4254.2156 3204.041 L 4252.3756 3204.041 M 4256.5856 3201.791 L 4256.5856 3206.081 M 4256.5856 3201.791 L 4259.2456 3201.791 M 4256.5856 3203.831 L 4258.2256 3203.831 M 4256.5856 3206.081 L 4259.2456 3206.081 M 4262.2256 3201.791 L 4260.5956 3206.081 M 4262.2256 3201.791 L 4263.8656 3206.081 M 4261.2056 3204.651 L 4263.2556 3204.651 M 4265.2156 3204.241 L 4268.8956 3204.241 M 4270.4556 3202.811 L 4270.4556 3202.611 L 4270.6556 3202.201 L 4270.8656 3201.991 L 4271.2756 3201.791 L 4272.0856 3201.791 L 4272.4956 3201.991 L 4272.7056 3202.201 L 4272.9056 3202.611 L 4272.9056 3203.021 L 4272.7056 3203.431 L 4272.2956 3204.041 L 4270.2456 3206.081 L 4273.1156 3206.081 M 4274.4656 3204.241 L 4278.1456 3204.241 M 4279.4956 3201.791 L 4280.5156 3206.081 M 4281.5356 3201.791 L 4280.5156 3206.081 M 4281.5356 3201.791 L 4282.5656 3206.081 M 4283.5856 3201.791 L 4282.5656 3206.081 M 4288.0056 3202.811 L 4287.7956 3202.401 L 4287.3856 3201.991 L 4286.9756 3201.791 L 4286.1656 3201.791 L 4285.7556 3201.991 L 4285.3456 3202.401 L 4285.1356 3202.811 L 4284.9356 3203.431 L 4284.9356 3204.451 L 4285.1356 3205.061 L 4285.3456 3205.471 L 4285.7556 3205.881 L 4286.1656 3206.081 L 4286.9756 3206.081 L 4287.3856 3205.881 L 4287.7956 3205.471 L 4288.0056 3205.061 M 4289.3556 3201.791 L 4289.3556 3206.081 M 4289.3556 3201.791 L 4290.9856 3206.081 M 4292.6256 3201.791 L 4290.9856 3206.081 M 4292.6256 3201.791 L 4292.6256 3206.081 M 4296.0256 3201.791 L 4293.9756 3204.651 L 4297.0456 3204.651 M 4296.0256 3201.791 L 4296.0256 3206.081" fill="none"  stroke-width="0.6" c_note="note_name" /></g><g c_partid="part_pcbtext" c_etype="" c_origin="4230.0756,3213.331" c_rotation="0" c_mirror="" id="gge3021" locked="0" layerid="3" c_shapetype="group" ><path c_fontsize="4.5" c_fontfamily="" c_text="U6" d="M 4230.0756 3208.791 L 4230.0756 3211.861 L 4230.2756 3212.471 L 4230.6856 3212.881 L 4231.3056 3213.081 L 4231.7156 3213.081 L 4232.3256 3212.881 L 4232.7356 3212.471 L 4232.9356 3211.861 L 4232.9356 3208.791 M 4236.7456 3209.401 L 4236.5356 3208.991 L 4235.9256 3208.791 L 4235.5156 3208.791 L 4234.9056 3208.991 L 4234.4956 3209.611 L 4234.2856 3210.631 L 4234.2856 3211.651 L 4234.4956 3212.471 L 4234.9056 3212.881 L 4235.5156 3213.081 L 4235.7256 3213.081 L 4236.3356 3212.881 L 4236.7456 3212.471 L 4236.9456 3211.861 L 4236.9456 3211.651 L 4236.7456 3211.041 L 4236.3356 3210.631 L 4235.7256 3210.431 L 4235.5156 3210.431 L 4234.9056 3210.631 L 4234.4956 3211.041 L 4234.2856 3211.651" fill="none"  stroke-width="0.6" c_note="note_pre" /></g><g c_partid="part_pcbtext" c_etype="" c_origin="4153.0585,3096.331" c_rotation="0" c_mirror="" id="gge3819" locked="0" layerid="3" c_shapetype="group" display="none"><path c_fontsize="4.5" c_fontfamily="" c_text="USB-05" d="M 4153.0585 3091.791 L 4153.0585 3094.861 L 4153.2585 3095.471 L 4153.6685 3095.881 L 4154.2885 3096.081 L 4154.6985 3096.081 L 4155.3085 3095.881 L 4155.7185 3095.471 L 4155.9185 3094.861 L 4155.9185 3091.791 M 4160.1385 3092.401 L 4159.7285 3091.991 L 4159.1085 3091.791 L 4158.2985 3091.791 L 4157.6785 3091.991 L 4157.2685 3092.401 L 4157.2685 3092.811 L 4157.4785 3093.221 L 4157.6785 3093.431 L 4158.0885 3093.631 L 4159.3185 3094.041 L 4159.7285 3094.241 L 4159.9285 3094.451 L 4160.1385 3094.861 L 4160.1385 3095.471 L 4159.7285 3095.881 L 4159.1085 3096.081 L 4158.2985 3096.081 L 4157.6785 3095.881 L 4157.2685 3095.471 M 4161.4885 3091.791 L 4161.4885 3096.081 M 4161.4885 3091.791 L 4163.3285 3091.791 L 4163.9385 3091.991 L 4164.1485 3092.201 L 4164.3485 3092.611 L 4164.3485 3093.021 L 4164.1485 3093.431 L 4163.9385 3093.631 L 4163.3285 3093.831 M 4161.4885 3093.831 L 4163.3285 3093.831 L 4163.9385 3094.041 L 4164.1485 3094.241 L 4164.3485 3094.651 L 4164.3485 3095.271 L 4164.1485 3095.681 L 4163.9385 3095.881 L 4163.3285 3096.081 L 4161.4885 3096.081 M 4165.6985 3094.241 L 4169.3785 3094.241 M 4171.9585 3091.791 L 4171.3485 3091.991 L 4170.9385 3092.611 L 4170.7285 3093.631 L 4170.7285 3094.241 L 4170.9385 3095.271 L 4171.3485 3095.881 L 4171.9585 3096.081 L 4172.3685 3096.081 L 4172.9785 3095.881 L 4173.3885 3095.271 L 4173.5985 3094.241 L 4173.5985 3093.631 L 4173.3885 3092.611 L 4172.9785 3091.991 L 4172.3685 3091.791 L 4171.9585 3091.791 M 4177.3985 3091.791 L 4175.3585 3091.791 L 4175.1485 3093.631 L 4175.3585 3093.431 L 4175.9685 3093.221 L 4176.5785 3093.221 L 4177.1985 3093.431 L 4177.6085 3093.831 L 4177.8085 3094.451 L 4177.8085 3094.861 L 4177.6085 3095.471 L 4177.1985 3095.881 L 4176.5785 3096.081 L 4175.9685 3096.081 L 4175.3585 3095.881 L 4175.1485 3095.681 L 4174.9485 3095.271" fill="none"  stroke-width="0.6" c_note="note_name" /></g><g c_partid="part_pcbtext" c_etype="" c_origin="4153.0585,3103.331" c_rotation="0" c_mirror="" id="gge3825" locked="0" layerid="3" c_shapetype="group" ><path c_fontsize="4.5" c_fontfamily="" c_text="USB1" d="M 4153.0585 3098.791 L 4153.0585 3101.861 L 4153.2585 3102.471 L 4153.6685 3102.881 L 4154.2885 3103.081 L 4154.6985 3103.081 L 4155.3085 3102.881 L 4155.7185 3102.471 L 4155.9185 3101.861 L 4155.9185 3098.791 M 4160.1385 3099.401 L 4159.7285 3098.991 L 4159.1085 3098.791 L 4158.2985 3098.791 L 4157.6785 3098.991 L 4157.2685 3099.401 L 4157.2685 3099.811 L 4157.4785 3100.221 L 4157.6785 3100.431 L 4158.0885 3100.631 L 4159.3185 3101.041 L 4159.7285 3101.241 L 4159.9285 3101.451 L 4160.1385 3101.861 L 4160.1385 3102.471 L 4159.7285 3102.881 L 4159.1085 3103.081 L 4158.2985 3103.081 L 4157.6785 3102.881 L 4157.2685 3102.471 M 4161.4885 3098.791 L 4161.4885 3103.081 M 4161.4885 3098.791 L 4163.3285 3098.791 L 4163.9385 3098.991 L 4164.1485 3099.201 L 4164.3485 3099.611 L 4164.3485 3100.021 L 4164.1485 3100.431 L 4163.9385 3100.631 L 4163.3285 3100.831 M 4161.4885 3100.831 L 4163.3285 3100.831 L 4163.9385 3101.041 L 4164.1485 3101.241 L 4164.3485 3101.651 L 4164.3485 3102.271 L 4164.1485 3102.681 L 4163.9385 3102.881 L 4163.3285 3103.081 L 4161.4885 3103.081 M 4165.6985 3099.611 L 4166.1085 3099.401 L 4166.7185 3098.791 L 4166.7185 3103.081" fill="none"  stroke-width="0.6" c_note="note_pre" /></g><path d="M 4328.0794 3215.7341 A 1.2198 1.2198 0 0 1 4329.2992 3214.5143" locked="0"  fill="none" stroke-width="1" c_helper_type="arc2" net="" layerid="3" id="gge48" /><path d="M 4329.2992 3220.1035 A 1.2198 1.2198 0 0 1 4328.0794 3218.8836" locked="0"  fill="none" stroke-width="1" c_helper_type="arc2" net="" layerid="3" id="gge51" /><path d="M 4337.8656 3214.5372 A 1.2198 1.2198 0 0 1 4339.0854 3215.7571" locked="0"  fill="none" stroke-width="1" c_helper_type="arc2" net="" layerid="3" id="gge54" /><path d="M 4339.0854 3218.9066 A 1.2198 1.2198 0 0 1 4337.8656 3220.1264" locked="0"  fill="none" stroke-width="1" c_helper_type="arc2" net="" layerid="3" id="gge57" /><path d="M 4348.0794 3215.7341 A 1.2198 1.2198 0 0 1 4349.2992 3214.5143" locked="0"  fill="none" stroke-width="1" c_helper_type="arc2" net="" layerid="3" id="gge144" /><path d="M 4349.2992 3220.1035 A 1.2198 1.2198 0 0 1 4348.0794 3218.8836" locked="0"  fill="none" stroke-width="1" c_helper_type="arc2" net="" layerid="3" id="gge147" /><path d="M 4357.8656 3214.5372 A 1.2198 1.2198 0 0 1 4359.0854 3215.7571" locked="0"  fill="none" stroke-width="1" c_helper_type="arc2" net="" layerid="3" id="gge150" /><path d="M 4359.0854 3218.9066 A 1.2198 1.2198 0 0 1 4357.8656 3220.1264" locked="0"  fill="none" stroke-width="1" c_helper_type="arc2" net="" layerid="3" id="gge153" /><path d="M 4328.0794 3245.7341 A 1.2198 1.2198 0 0 1 4329.2992 3244.5143" locked="0"  fill="none" stroke-width="1" c_helper_type="arc2" net="" layerid="3" id="gge240" /><path d="M 4329.2992 3250.1035 A 1.2198 1.2198 0 0 1 4328.0794 3248.8836" locked="0"  fill="none" stroke-width="1" c_helper_type="arc2" net="" layerid="3" id="gge243" /><path d="M 4337.8656 3244.5372 A 1.2198 1.2198 0 0 1 4339.0854 3245.7571" locked="0"  fill="none" stroke-width="1" c_helper_type="arc2" net="" layerid="3" id="gge246" /><path d="M 4339.0854 3248.9066 A 1.2198 1.2198 0 0 1 4337.8656 3250.1264" locked="0"  fill="none" stroke-width="1" c_helper_type="arc2" net="" layerid="3" id="gge249" /><path d="M 4348.0794 3245.7341 A 1.2198 1.2198 0 0 1 4349.2992 3244.5143" locked="0"  fill="none" stroke-width="1" c_helper_type="arc2" net="" layerid="3" id="gge336" /><path d="M 4349.2992 3250.1035 A 1.2198 1.2198 0 0 1 4348.0794 3248.8836" locked="0"  fill="none" stroke-width="1" c_helper_type="arc2" net="" layerid="3" id="gge339" /><path d="M 4357.8656 3244.5372 A 1.2198 1.2198 0 0 1 4359.0854 3245.7571" locked="0"  fill="none" stroke-width="1" c_helper_type="arc2" net="" layerid="3" id="gge342" /><path d="M 4359.0854 3248.9066 A 1.2198 1.2198 0 0 1 4357.8656 3250.1264" locked="0"  fill="none" stroke-width="1" c_helper_type="arc2" net="" layerid="3" id="gge345" /><path d="M 4258.0794 3185.7341 A 1.2198 1.2198 0 0 1 4259.2992 3184.5143" locked="0"  fill="none" stroke-width="1" c_helper_type="arc2" net="" layerid="3" id="gge432" /><path d="M 4259.2992 3190.1035 A 1.2198 1.2198 0 0 1 4258.0794 3188.8836" locked="0"  fill="none" stroke-width="1" c_helper_type="arc2" net="" layerid="3" id="gge435" /><path d="M 4267.8656 3184.5372 A 1.2198 1.2198 0 0 1 4269.0854 3185.7571" locked="0"  fill="none" stroke-width="1" c_helper_type="arc2" net="" layerid="3" id="gge438" /><path d="M 4269.0854 3188.9066 A 1.2198 1.2198 0 0 1 4267.8656 3190.1264" locked="0"  fill="none" stroke-width="1" c_helper_type="arc2" net="" layerid="3" id="gge441" /><path d="M 4278.0794 3185.7341 A 1.2198 1.2198 0 0 1 4279.2992 3184.5143" locked="0"  fill="none" stroke-width="1" c_helper_type="arc2" net="" layerid="3" id="gge528" /><path d="M 4279.2992 3190.1035 A 1.2198 1.2198 0 0 1 4278.0794 3188.8836" locked="0"  fill="none" stroke-width="1" c_helper_type="arc2" net="" layerid="3" id="gge531" /><path d="M 4287.8656 3184.5372 A 1.2198 1.2198 0 0 1 4289.0854 3185.7571" locked="0"  fill="none" stroke-width="1" c_helper_type="arc2" net="" layerid="3" id="gge534" /><path d="M 4289.0854 3188.9066 A 1.2198 1.2198 0 0 1 4287.8656 3190.1264" locked="0"  fill="none" stroke-width="1" c_helper_type="arc2" net="" layerid="3" id="gge537" /><path d="M 4298.0794 3185.7341 A 1.2198 1.2198 0 0 1 4299.2992 3184.5143" locked="0"  fill="none" stroke-width="1" c_helper_type="arc2" net="" layerid="3" id="gge624" /><path d="M 4299.2992 3190.1035 A 1.2198 1.2198 0 0 1 4298.0794 3188.8836" locked="0"  fill="none" stroke-width="1" c_helper_type="arc2" net="" layerid="3" id="gge627" /><path d="M 4307.8656 3184.5372 A 1.2198 1.2198 0 0 1 4309.0854 3185.7571" locked="0"  fill="none" stroke-width="1" c_helper_type="arc2" net="" layerid="3" id="gge630" /><path d="M 4309.0854 3188.9066 A 1.2198 1.2198 0 0 1 4307.8656 3190.1264" locked="0"  fill="none" stroke-width="1" c_helper_type="arc2" net="" layerid="3" id="gge633" /><circle cx="4331.5536" cy="3183.343" r="0.591" stroke-width="1.1811" fill="none" layerid="3" id="gge2289" locked="0"  /><circle cx="4328.6706" cy="3190.64" r="0.591" stroke-width="1.1811" fill="none" layerid="3" id="gge2292" locked="0"  /><path d="M 4191.613 3185.1719 L 4191.613 3186.5593 L 4190.413 3186.5593 L 4190.413 3185.1719 Z " stroke-width="0"   net="" type="solid" layerid="3" id="gge723" locked="0" c_teardrop="" c_targetpad="" c_targetwire="" /><path d="M 4191.613 3191.4901 L 4191.613 3190.1027 L 4190.413 3190.1027 L 4190.413 3191.4901 Z " stroke-width="0"   net="" type="solid" layerid="3" id="gge726" locked="0" c_teardrop="" c_targetpad="" c_targetwire="" /><polyline points="4047.559 3333.5239 4047.559 3079.9811" stroke-width="1"  stroke-linecap="round" fill="none" layerid="10" net="" id="gge4173" locked="0" /><polyline points="4407.0071 3366.201 4080.2361 3366.201" stroke-width="1"  stroke-linecap="round" fill="none" layerid="10" net="" id="gge4167" locked="0" /><polyline points="4439.6842 3079.9811 4439.6842 3333.5239" stroke-width="1"  stroke-linecap="round" fill="none" layerid="10" net="" id="gge4161" locked="0" /><polyline points="4080.2361 3047.304 4407.0071 3047.304" stroke-width="1"  stroke-linecap="round" fill="none" layerid="10" net="" id="gge4155" locked="0" /><polyline points="4128.0795 3128.4606 4178.0795 3128.4606" stroke-width="1"  stroke-linecap="round" fill="none" layerid="10" net="" id="gge3834" locked="0" /><polyline points="4178.0795 3128.7924 4178.0795 3187.3925" stroke-width="1"  stroke-linecap="round" fill="none" layerid="10" net="" id="gge3837" locked="0" /><polyline points="4128.0795 3128.7924 4128.0795 3187.4525" stroke-width="1"  stroke-linecap="round" fill="none" layerid="10" net="" id="gge3840" locked="0" /><path d="M4407.0071 3047.304A32.6771 32.6771 0 0 1 4439.6842 3079.9811" locked="0"  fill="none" stroke-width="1" c_helper_type="arc2" net="" layerid="10" id="gge4158" /><path d="M4439.6842 3333.5239A32.6771 32.6771 0 0 1 4407.0071 3366.201" locked="0"  fill="none" stroke-width="1" c_helper_type="arc2" net="" layerid="10" id="gge4164" /><path d="M 4158.3156 3185.992 A 32.6771 32.6771 0 0 1 4125.6385 3153.3149" locked="0"  fill="none" stroke-width="1" c_helper_type="arc2" net="" layerid="10" id="gge4170" /><path d="M4047.559 3079.9811A32.6771 32.6771 0 0 1 4080.2361 3047.304" locked="0"  fill="none" stroke-width="1" c_helper_type="arc2" net="" layerid="10" id="gge4176" /></svg>