<svg xmlns="http://www.w3.org/2000/svg" xmlns:xlink="http://www.w3.org/1999/xlink" width="82.753mm" height="55.753mm" viewBox="3950.5 3233.5 325.8 219.5"><title></title><style type="text/css">
*[layerid="1"] {stroke:#000000;fill:#000000;}
*[layerid="2"] {stroke:#000000;fill:#000000;}
*[layerid="3"] {stroke:#000000;fill:#000000;}
*[layerid="4"] {stroke:#000000;fill:#000000;}
*[layerid="5"] {stroke:#000000;fill:#000000;}
*[layerid="6"] {stroke:#000000;fill:#000000;}
*[layerid="7"] {stroke:#000000;fill:#000000;}
*[layerid="8"] {stroke:#000000;fill:#000000;}
*[layerid="9"] {stroke:#000000;fill:#000000;}
*[layerid="10"] {stroke:#000000;fill:#000000;}
*[layerid="11"] {stroke:#000000;fill:#000000;}
*[layerid="12"] {stroke:#000000;fill:#000000;}
*[layerid="13"] {stroke:#000000;fill:#000000;}
*[layerid="14"] {stroke:#000000;fill:#000000;}
*[layerid="15"] {stroke:#000000;fill:#000000;}
*[layerid="19"] {stroke:#000000;fill:#000000;}
*[layerid="21"] {stroke:#000000;fill:#000000;}
*[layerid="22"] {stroke:#000000;fill:#000000;}
*[layerid="23"] {stroke:#000000;fill:#000000;}
*[layerid="24"] {stroke:#000000;fill:#000000;}
*[layerid="25"] {stroke:#000000;fill:#000000;}
*[layerid="26"] {stroke:#000000;fill:#000000;}
*[layerid="27"] {stroke:#000000;fill:#000000;}
*[layerid="28"] {stroke:#000000;fill:#000000;}
*[layerid="29"] {stroke:#000000;fill:#000000;}
*[layerid="30"] {stroke:#000000;fill:#000000;}
*[layerid="31"] {stroke:#000000;fill:#000000;}
*[layerid="32"] {stroke:#000000;fill:#000000;}
*[layerid="33"] {stroke:#000000;fill:#000000;}
*[layerid="34"] {stroke:#000000;fill:#000000;}
*[layerid="35"] {stroke:#000000;fill:#000000;}
*[layerid="36"] {stroke:#000000;fill:#000000;}
*[layerid="37"] {stroke:#000000;fill:#000000;}
*[layerid="38"] {stroke:#000000;fill:#000000;}
*[layerid="39"] {stroke:#000000;fill:#000000;}
*[layerid="40"] {stroke:#000000;fill:#000000;}
*[layerid="41"] {stroke:#000000;fill:#000000;}
*[layerid="42"] {stroke:#000000;fill:#000000;}
*[layerid="43"] {stroke:#000000;fill:#000000;}
*[layerid="44"] {stroke:#000000;fill:#000000;}
*[layerid="45"] {stroke:#000000;fill:#000000;}
*[layerid="46"] {stroke:#000000;fill:#000000;}
*[layerid="47"] {stroke:#000000;fill:#000000;}
*[layerid="48"] {stroke:#000000;fill:#000000;}
*[layerid="49"] {stroke:#000000;fill:#000000;}
*[layerid="50"] {stroke:#000000;fill:#000000;}
*[layerid="51"] {stroke:#000000;fill:#000000;}
*[layerid="52"] {stroke:#000000;fill:#000000;}
*[layerid="99"] {stroke:#000000;fill:#000000;}
*[layerid="100"] {stroke:#000000;fill:#000000;}
*[layerid="101"] {stroke:#000000;fill:#000000;}
*[layerid="Hole"] {stroke:#000000;fill:#000000;}
*[layerid="DRCError"] {stroke:#000000;fill:#000000;}
*[fill="none"] {fill: none;}
*[stroke="none"] {stroke: none;}
path, polyline, polygon, line {stroke-linecap:round;}
g[c_partid="part_pad"][layerid="1"] ellipse:not([c_etype="pad_outer"]) {fill:#000000;}
g[c_partid="part_pad"][layerid="1"] polygon:not([c_etype="pad_outer"]) {fill:#000000;}
g[c_partid="part_pad"][layerid="1"] polyline:not([c_etype="pad_outer"]) {stroke:#000000;}
g[c_partid="part_pad"][layerid="2"] ellipse:not([c_etype="pad_outer"]) {fill:#000000;}
g[c_partid="part_pad"][layerid="2"] polygon:not([c_etype="pad_outer"]) {fill:#000000;}
g[c_partid="part_pad"][layerid="2"] polyline:not([c_etype="pad_outer"]) {stroke:#000000;}
g[c_partid="part_pad"][layerid="11"] ellipse:not([c_etype="pad_outer"]) {fill:#000000;}
g[c_partid="part_pad"][layerid="11"] polygon:not([c_etype="pad_outer"]) {fill:#000000;}
g[c_partid="part_pad"][layerid="11"] polyline:not([c_etype="pad_outer"]) {stroke:#000000;}
g[c_partid="part_pad"][layerid="11"] circle {fill:#FFFFFF;}
g[c_partid="part_pad"][layerid="11"] > polyline:nth-of-type(2) {stroke:#FFFFFF;}
g[c_partid="part_pad"][layerid="11"][c_shape="ELLIPSE"]  polyline:nth-last-of-type(1) {stroke:#FFFFFF;}
g[c_partid="part_pad"][layerid="11"][c_shape="RECT"]  polyline:nth-last-of-type(1) {stroke:#FFFFFF;}
g[c_partid="part_pad"][layerid="11"][c_shape="POLYGON"]  polyline:nth-last-of-type(1) {stroke:#FFFFFF;}
g[c_partid="part_via"] > * + circle, #gCurParts g[c_partid="part_via"] > * + circle {fill:#FFFFFF;}
g[c_partid="part_pad"] > polygon[c_etype="pad_outer"], #gCurParts g[c_partid="part_pad"] > polygon[c_etype="pad_outer"] {stroke-linejoin: round;stroke-miterlimit: 100;}
g[c_partid="part_hole"] > circle {fill: #FFFFFF;}path, polyline, polygon {stroke-linejoin:round;}
rect, circle, ellipse, polyline, line, polygon, path {shape-rendering:crispEdges;}
</style>
<rect x="3950.5" y="3233.5" width="325.8" height="219.5" fill="#FFFFFF" stroke="none"/><polyline points="4246 3312.244 4240.279 3306.523 4240.279 3294.1181" stroke-width="1"  stroke-linecap="round" fill="none" layerid="1" net="+5V" id="gge4266" locked="0" /><polyline points="4198.5 3352.5 4240.279 3310.721 4240.279 3306.523" stroke-width="3.1496"  stroke-linecap="round" fill="none" layerid="1" net="+5V" id="gge4371" locked="0" /><polyline points="4198.756 3359.5 4198.5 3359.244 4198.5 3352.5 4198 3352 4161.5 3352" stroke-width="3.1496"  stroke-linecap="round" fill="none" layerid="1" net="+5V" id="gge4368" locked="0" /><polyline points="4246 3312.244 4240.279 3306.523 4240.279 3294.1181" stroke-width="3.1496"  stroke-linecap="round" fill="none" layerid="1" net="+5V" id="gge4356" locked="0" /><polyline points="4198.756 3359.5 4211 3359.5 4220.221 3368.721 4220.221 3369.3819" stroke-width="3.1496"  stroke-linecap="round" fill="none" layerid="1" net="+5V" id="gge4353" locked="0" /><polyline points="4104.5 3321.756 4104.744 3322 4119.5 3322 4131.279 3310.221 4131.279 3293.6181" stroke-width="3.1496"  stroke-linecap="round" fill="none" layerid="1" net="+5V" id="gge4341" locked="0" /><polyline points="4072.256 3327.5 4078 3321.756 4104.5 3321.756" stroke-width="3.1496"  stroke-linecap="round" fill="none" layerid="1" net="+5V" id="gge4335" locked="0" /><polyline points="4081.6165 3360.5 4072.256 3351.1395 4072.256 3327.5" stroke-width="3.1496"  stroke-linecap="round" fill="none" layerid="1" net="+5V" id="gge4332" locked="0" /><polyline points="4072.3835 3360.5 4072.104 3360.7795 4038.437 3360.7795" stroke-width="3.1496"  stroke-linecap="round" fill="none" layerid="1" net="USB1_1" id="gge4326" locked="0" /><polyline points="4103.7441 3376 4098.721 3381.0231 4098.721 3392.882" stroke-width="3.1496"  stroke-linecap="round" fill="none" layerid="1" net="+5V" id="gge4323" locked="0" /><polyline points="4103.84 3360.5 4104.09 3360.25 4153.25 3360.25" stroke-width="3.1496"  stroke-linecap="round" fill="none" layerid="1" net="+5V" id="gge4305" locked="0" /><polyline points="4103.74 3376 4103.84 3360.5" stroke-width="3.1496"  stroke-linecap="round" fill="none" layerid="1" net="+5V" id="gge4302" locked="0" /><polyline points="4081.6165 3360.5 4103.84 3360.5" stroke-width="3.1496"  stroke-linecap="round" fill="none" layerid="1" net="+5V" id="gge4290" locked="0" /><polyline points="4161.4997 3338.8074 4161.5 3352 4153 3360.5 4161.4997 3352.0002" stroke-width="3.1496"  stroke-linecap="round" fill="none" layerid="1" net="+5V" id="gge4218" locked="0" /><g c_partid="part_pad" c_etype="pinpart" c_origin="4066.744,3327.5" layerid="1" number="2" net="GND" plated ="Y"  id="gge69" locked="0" c_rotation="180" c_width="3.1496" c_height="3.5433" title="GND" c_shape="RECT" pasteexpansion="0.0000" solderexpansion="0.2000"><polygon  c_etype="pad_shell" points="4068.3189 3329.2717 4065.1693 3329.2717 4065.1693 3325.7283 4068.3189 3325.7283" layerid="1" stroke-width="0" /><circle c_etype="pad_hole" cx="4066.7445" cy="3327.5" r="0" layerid="1" stroke-width="0"/></g><g c_partid="part_pad" c_etype="pinpart" c_origin="4072.256,3327.5" layerid="1" number="1" net="+5V" plated ="Y"  id="gge84" locked="0" c_rotation="180" c_width="3.1496" c_height="3.5433" title="+5V" c_shape="RECT" pasteexpansion="0.0000" solderexpansion="0.2000"><polygon  c_etype="pad_shell" points="4073.8307 3329.2717 4070.6811 3329.2717 4070.6811 3325.7283 4073.8307 3325.7283" layerid="1" stroke-width="0" /><circle c_etype="pad_hole" cx="4072.2555" cy="3327.5" r="0" layerid="1" stroke-width="0"/></g><g c_partid="part_pad" c_etype="pinpart" c_origin="4193.244,3359.5" layerid="1" number="2" net="GND" plated ="Y"  id="gge165" locked="0" c_rotation="180" c_width="3.1496" c_height="3.5433" title="GND" c_shape="RECT" pasteexpansion="0.0000" solderexpansion="0.2000"><polygon  c_etype="pad_shell" points="4194.8189 3361.2717 4191.6693 3361.2717 4191.6693 3357.7283 4194.8189 3357.7283" layerid="1" stroke-width="0" /><circle c_etype="pad_hole" cx="4193.2445" cy="3359.5" r="0" layerid="1" stroke-width="0"/></g><g c_partid="part_pad" c_etype="pinpart" c_origin="4198.756,3359.5" layerid="1" number="1" net="+5V" plated ="Y"  id="gge180" locked="0" c_rotation="180" c_width="3.1496" c_height="3.5433" title="+5V" c_shape="RECT" pasteexpansion="0.0000" solderexpansion="0.2000"><polygon  c_etype="pad_shell" points="4200.3307 3361.2717 4197.1811 3361.2717 4197.1811 3357.7283 4200.3307 3357.7283" layerid="1" stroke-width="0" /><circle c_etype="pad_hole" cx="4198.7555" cy="3359.5" r="0" layerid="1" stroke-width="0"/></g><g c_partid="part_pad" c_etype="pinpart" c_origin="4246,3317.756" layerid="1" number="2" net="GND" plated ="Y"  id="gge261" locked="0" c_rotation="270" c_width="3.1496" c_height="3.5433" title="GND" c_shape="RECT" pasteexpansion="0.0000" solderexpansion="0.2000"><polygon  c_etype="pad_shell" points="4247.7717 3316.1811 4247.7717 3319.3307 4244.2283 3319.3307 4244.2283 3316.1811" layerid="1" stroke-width="0" /><circle c_etype="pad_hole" cx="4246" cy="3317.7555" r="0" layerid="1" stroke-width="0"/></g><g c_partid="part_pad" c_etype="pinpart" c_origin="4246,3312.244" layerid="1" number="1" net="+5V" plated ="Y"  id="gge276" locked="0" c_rotation="270" c_width="3.1496" c_height="3.5433" title="+5V" c_shape="RECT" pasteexpansion="0.0000" solderexpansion="0.2000"><polygon  c_etype="pad_shell" points="4247.7717 3310.6693 4247.7717 3313.8189 4244.2283 3313.8189 4244.2283 3310.6693" layerid="1" stroke-width="0" /><circle c_etype="pad_hole" cx="4246" cy="3312.2445" r="0" layerid="1" stroke-width="0"/></g><g c_partid="part_pad" c_etype="pinpart" c_origin="4109.256,3376" layerid="1" number="2" net="GND" plated ="Y"  id="gge357" locked="0" c_rotation="0" c_width="3.1496" c_height="3.5433" title="GND" c_shape="RECT" pasteexpansion="0.0000" solderexpansion="0.2000"><polygon  c_etype="pad_shell" points="4107.6811 3374.2283 4110.8307 3374.2283 4110.8307 3377.7717 4107.6811 3377.7717" layerid="1" stroke-width="0" /><circle c_etype="pad_hole" cx="4109.2555" cy="3376" r="0" layerid="1" stroke-width="0"/></g><g c_partid="part_pad" c_etype="pinpart" c_origin="4103.744,3376" layerid="1" number="1" net="+5V" plated ="Y"  id="gge372" locked="0" c_rotation="0" c_width="3.1496" c_height="3.5433" title="+5V" c_shape="RECT" pasteexpansion="0.0000" solderexpansion="0.2000"><polygon  c_etype="pad_shell" points="4102.1693 3374.2283 4105.3189 3374.2283 4105.3189 3377.7717 4102.1693 3377.7717" layerid="1" stroke-width="0" /><circle c_etype="pad_hole" cx="4103.7445" cy="3376" r="0" layerid="1" stroke-width="0"/></g><g c_partid="part_pad" c_etype="pinpart" c_origin="4104.5,3316.244" layerid="1" number="2" net="GND" plated ="Y"  id="gge453" locked="0" c_rotation="90" c_width="3.1496" c_height="3.5433" title="GND" c_shape="RECT" pasteexpansion="0.0000" solderexpansion="0.2000"><polygon  c_etype="pad_shell" points="4102.7283 3317.8189 4102.7283 3314.6693 4106.2717 3314.6693 4106.2717 3317.8189" layerid="1" stroke-width="0" /><circle c_etype="pad_hole" cx="4104.5" cy="3316.2445" r="0" layerid="1" stroke-width="0"/></g><g c_partid="part_pad" c_etype="pinpart" c_origin="4104.5,3321.756" layerid="1" number="1" net="+5V" plated ="Y"  id="gge468" locked="0" c_rotation="90" c_width="3.1496" c_height="3.5433" title="+5V" c_shape="RECT" pasteexpansion="0.0000" solderexpansion="0.2000"><polygon  c_etype="pad_shell" points="4102.7283 3323.3307 4102.7283 3320.1811 4106.2717 3320.1811 4106.2717 3323.3307" layerid="1" stroke-width="0" /><circle c_etype="pad_hole" cx="4104.5" cy="3321.7555" r="0" layerid="1" stroke-width="0"/></g><g c_partid="part_pad" c_etype="pinpart" c_origin="4176.5,3365.256" layerid="1" number="2" net="GND" plated ="Y"  id="gge549" locked="0" c_rotation="270" c_width="3.1496" c_height="3.5433" title="GND" c_shape="RECT" pasteexpansion="0.0000" solderexpansion="0.2000"><polygon  c_etype="pad_shell" points="4178.2717 3363.6811 4178.2717 3366.8307 4174.7283 3366.8307 4174.7283 3363.6811" layerid="1" stroke-width="0" /><circle c_etype="pad_hole" cx="4176.5" cy="3365.2555" r="0" layerid="1" stroke-width="0"/></g><g c_partid="part_pad" c_etype="pinpart" c_origin="4176.5,3359.744" layerid="1" number="1" net="U2_14" plated ="Y"  id="gge564" locked="0" c_rotation="270" c_width="3.1496" c_height="3.5433" title="U2_14" c_shape="RECT" pasteexpansion="0.0000" solderexpansion="0.2000"><polygon  c_etype="pad_shell" points="4178.2717 3358.1693 4178.2717 3361.3189 4174.7283 3361.3189 4174.7283 3358.1693" layerid="1" stroke-width="0" /><circle c_etype="pad_hole" cx="4176.5" cy="3359.7445" r="0" layerid="1" stroke-width="0"/></g><g c_partid="part_pad" c_etype="pinpart" c_origin="4166.5,3364.756" layerid="1" number="2" net="GND" plated ="Y"  id="gge645" locked="0" c_rotation="270" c_width="3.1496" c_height="3.5433" title="GND" c_shape="RECT" pasteexpansion="0.0000" solderexpansion="0.2000"><polygon  c_etype="pad_shell" points="4168.2717 3363.1811 4168.2717 3366.3307 4164.7283 3366.3307 4164.7283 3363.1811" layerid="1" stroke-width="0" /><circle c_etype="pad_hole" cx="4166.5" cy="3364.7555" r="0" layerid="1" stroke-width="0"/></g><g c_partid="part_pad" c_etype="pinpart" c_origin="4166.5,3359.244" layerid="1" number="1" net="U2_13" plated ="Y"  id="gge660" locked="0" c_rotation="270" c_width="3.1496" c_height="3.5433" title="U2_13" c_shape="RECT" pasteexpansion="0.0000" solderexpansion="0.2000"><polygon  c_etype="pad_shell" points="4168.2717 3357.6693 4168.2717 3360.8189 4164.7283 3360.8189 4164.7283 3357.6693" layerid="1" stroke-width="0" /><circle c_etype="pad_hole" cx="4166.5" cy="3359.2445" r="0" layerid="1" stroke-width="0"/></g><g c_partid="part_pad" c_etype="pinpart" c_origin="4072.3835,3360.5" layerid="1" number="2" net="USB1_1" plated ="Y"  id="gge747" locked="0" c_rotation="180" c_width="3.937" c_height="2.9528" title="USB1_1" c_shape="RECT" pasteexpansion="0.0000" solderexpansion="0.2000"><polygon  c_etype="pad_shell" points="4074.3522 3361.9764 4070.4151 3361.9764 4070.4151 3359.0236 4074.3522 3359.0236" layerid="1" stroke-width="0" /><circle c_etype="pad_hole" cx="4072.3835" cy="3360.5" r="0" layerid="1" stroke-width="0"/></g><g c_partid="part_pad" c_etype="pinpart" c_origin="4081.6165,3360.5" layerid="1" number="1" net="+5V" plated ="Y"  id="gge762" locked="0" c_rotation="180" c_width="3.937" c_height="2.9528" title="+5V" c_shape="RECT" pasteexpansion="0.0000" solderexpansion="0.2000"><polygon  c_etype="pad_shell" points="4083.5847 3361.9764 4079.6476 3361.9764 4079.6476 3359.0236 4083.5847 3359.0236" layerid="1" stroke-width="0" /><circle c_etype="pad_hole" cx="4081.6163" cy="3360.5" r="0" layerid="1" stroke-width="0"/></g><g c_partid="part_pad" c_etype="pinpart" c_origin="4186.5,3316.191" layerid="1" number="1" net="U2_1" plated ="Y"  id="gge2301" locked="0" c_rotation="180" c_width="2.2047" c_height="6.8701" title="U2_1" c_shape="OVAL" pasteexpansion="0.0000" solderexpansion="0.2000"><polyline  c_etype="pad_shell" points="4186.5 3318.5237 4186.5 3313.8583" layerid="1" stroke-width="2.2047" /><circle c_etype="pad_hole" cx="4186.5" cy="3316.1909" r="0" layerid="1" stroke-width="0"/></g><g c_partid="part_pad" c_etype="pinpart" c_origin="4181.5,3316.191" layerid="1" number="2" net="U2_2" plated ="Y"  id="gge2316" locked="0" c_rotation="180" c_width="2.2047" c_height="6.8701" title="U2_2" c_shape="OVAL" pasteexpansion="0.0000" solderexpansion="0.2000"><polyline  c_etype="pad_shell" points="4181.5 3318.5237 4181.5 3313.8583" layerid="1" stroke-width="2.2047" /><circle c_etype="pad_hole" cx="4181.5" cy="3316.1909" r="0" layerid="1" stroke-width="0"/></g><g c_partid="part_pad" c_etype="pinpart" c_origin="4176.5,3316.191" layerid="1" number="3" net="U2_3" plated ="Y"  id="gge2331" locked="0" c_rotation="180" c_width="2.2047" c_height="6.8701" title="U2_3" c_shape="OVAL" pasteexpansion="0.0000" solderexpansion="0.2000"><polyline  c_etype="pad_shell" points="4176.5 3318.5237 4176.5 3313.8583" layerid="1" stroke-width="2.2047" /><circle c_etype="pad_hole" cx="4176.5" cy="3316.1909" r="0" layerid="1" stroke-width="0"/></g><g c_partid="part_pad" c_etype="pinpart" c_origin="4171.5,3316.191" layerid="1" number="4" net="U2_4" plated ="Y"  id="gge2346" locked="0" c_rotation="180" c_width="2.2047" c_height="6.8701" title="U2_4" c_shape="OVAL" pasteexpansion="0.0000" solderexpansion="0.2000"><polyline  c_etype="pad_shell" points="4171.5 3318.5237 4171.5 3313.8583" layerid="1" stroke-width="2.2047" /><circle c_etype="pad_hole" cx="4171.5" cy="3316.1909" r="0" layerid="1" stroke-width="0"/></g><g c_partid="part_pad" c_etype="pinpart" c_origin="4166.5,3316.191" layerid="1" number="5" net="U2_5" plated ="Y"  id="gge2361" locked="0" c_rotation="180" c_width="2.2047" c_height="6.8701" title="U2_5" c_shape="OVAL" pasteexpansion="0.0000" solderexpansion="0.2000"><polyline  c_etype="pad_shell" points="4166.5 3318.5237 4166.5 3313.8583" layerid="1" stroke-width="2.2047" /><circle c_etype="pad_hole" cx="4166.5" cy="3316.1909" r="0" layerid="1" stroke-width="0"/></g><g c_partid="part_pad" c_etype="pinpart" c_origin="4161.5,3316.191" layerid="1" number="6" net="U2_6" plated ="Y"  id="gge2376" locked="0" c_rotation="180" c_width="2.2047" c_height="6.8701" title="U2_6" c_shape="OVAL" pasteexpansion="0.0000" solderexpansion="0.2000"><polyline  c_etype="pad_shell" points="4161.5 3318.5237 4161.5 3313.8583" layerid="1" stroke-width="2.2047" /><circle c_etype="pad_hole" cx="4161.5" cy="3316.1909" r="0" layerid="1" stroke-width="0"/></g><g c_partid="part_pad" c_etype="pinpart" c_origin="4156.5,3316.191" layerid="1" number="7" net="U2_7" plated ="Y"  id="gge2391" locked="0" c_rotation="180" c_width="2.2047" c_height="6.8701" title="U2_7" c_shape="OVAL" pasteexpansion="0.0000" solderexpansion="0.2000"><polyline  c_etype="pad_shell" points="4156.5 3318.5237 4156.5 3313.8583" layerid="1" stroke-width="2.2047" /><circle c_etype="pad_hole" cx="4156.5" cy="3316.1909" r="0" layerid="1" stroke-width="0"/></g><g c_partid="part_pad" c_etype="pinpart" c_origin="4151.5,3316.191" layerid="1" number="8" net="U2_8" plated ="Y"  id="gge2406" locked="0" c_rotation="180" c_width="2.2047" c_height="6.8701" title="U2_8" c_shape="OVAL" pasteexpansion="0.0000" solderexpansion="0.2000"><polyline  c_etype="pad_shell" points="4151.5 3318.5237 4151.5 3313.8583" layerid="1" stroke-width="2.2047" /><circle c_etype="pad_hole" cx="4151.5" cy="3316.1909" r="0" layerid="1" stroke-width="0"/></g><g c_partid="part_pad" c_etype="pinpart" c_origin="4186.5,3338.809" layerid="1" number="16" net="GND" plated ="Y"  id="gge2421" locked="0" c_rotation="180" c_width="2.2047" c_height="6.8701" title="GND" c_shape="OVAL" pasteexpansion="0.0000" solderexpansion="0.2000"><polyline  c_etype="pad_shell" points="4186.5 3341.1417 4186.5 3336.4763" layerid="1" stroke-width="2.2047" /><circle c_etype="pad_hole" cx="4186.5" cy="3338.8091" r="0" layerid="1" stroke-width="0"/></g><g c_partid="part_pad" c_etype="pinpart" c_origin="4181.5,3338.809" layerid="1" number="15" net="" plated ="Y"  id="gge2436" locked="0" c_rotation="180" c_width="2.2047" c_height="6.8701" title="" c_shape="OVAL" pasteexpansion="0.0000" solderexpansion="0.2000"><polyline  c_etype="pad_shell" points="4181.5 3341.1417 4181.5 3336.4763" layerid="1" stroke-width="2.2047" /><circle c_etype="pad_hole" cx="4181.5" cy="3338.8091" r="0" layerid="1" stroke-width="0"/></g><g c_partid="part_pad" c_etype="pinpart" c_origin="4176.5,3338.809" layerid="1" number="14" net="U2_14" plated ="Y"  id="gge2451" locked="0" c_rotation="180" c_width="2.2047" c_height="6.8701" title="U2_14" c_shape="OVAL" pasteexpansion="0.0000" solderexpansion="0.2000"><polyline  c_etype="pad_shell" points="4176.5 3341.1417 4176.5 3336.4763" layerid="1" stroke-width="2.2047" /><circle c_etype="pad_hole" cx="4176.5" cy="3338.8091" r="0" layerid="1" stroke-width="0"/></g><g c_partid="part_pad" c_etype="pinpart" c_origin="4171.5,3338.809" layerid="1" number="13" net="U2_13" plated ="Y"  id="gge2466" locked="0" c_rotation="180" c_width="2.2047" c_height="6.8701" title="U2_13" c_shape="OVAL" pasteexpansion="0.0000" solderexpansion="0.2000"><polyline  c_etype="pad_shell" points="4171.5 3341.1417 4171.5 3336.4763" layerid="1" stroke-width="2.2047" /><circle c_etype="pad_hole" cx="4171.5" cy="3338.8091" r="0" layerid="1" stroke-width="0"/></g><g c_partid="part_pad" c_etype="pinpart" c_origin="4166.5,3338.809" layerid="1" number="12" net="GND" plated ="Y"  id="gge2481" locked="0" c_rotation="180" c_width="2.2047" c_height="6.8701" title="GND" c_shape="OVAL" pasteexpansion="0.0000" solderexpansion="0.2000"><polyline  c_etype="pad_shell" points="4166.5 3341.1417 4166.5 3336.4763" layerid="1" stroke-width="2.2047" /><circle c_etype="pad_hole" cx="4166.5" cy="3338.8091" r="0" layerid="1" stroke-width="0"/></g><g c_partid="part_pad" c_etype="pinpart" c_origin="4161.5,3338.809" layerid="1" number="11" net="+5V" plated ="Y"  id="gge2496" locked="0" c_rotation="180" c_width="2.2047" c_height="6.8701" title="+5V" c_shape="OVAL" pasteexpansion="0.0000" solderexpansion="0.2000"><polyline  c_etype="pad_shell" points="4161.5 3341.1417 4161.5 3336.4763" layerid="1" stroke-width="2.2047" /><circle c_etype="pad_hole" cx="4161.5" cy="3338.8091" r="0" layerid="1" stroke-width="0"/></g><g c_partid="part_pad" c_etype="pinpart" c_origin="4156.5,3338.809" layerid="1" number="10" net="U2_10" plated ="Y"  id="gge2511" locked="0" c_rotation="180" c_width="2.2047" c_height="6.8701" title="U2_10" c_shape="OVAL" pasteexpansion="0.0000" solderexpansion="0.2000"><polyline  c_etype="pad_shell" points="4156.5 3341.1417 4156.5 3336.4763" layerid="1" stroke-width="2.2047" /><circle c_etype="pad_hole" cx="4156.5" cy="3338.8091" r="0" layerid="1" stroke-width="0"/></g><g c_partid="part_pad" c_etype="pinpart" c_origin="4151.5,3338.809" layerid="1" number="9" net="U2_9" plated ="Y"  id="gge2526" locked="0" c_rotation="180" c_width="2.2047" c_height="6.8701" title="U2_9" c_shape="OVAL" pasteexpansion="0.0000" solderexpansion="0.2000"><polyline  c_etype="pad_shell" points="4151.5 3341.1417 4151.5 3336.4763" layerid="1" stroke-width="2.2047" /><circle c_etype="pad_hole" cx="4151.5" cy="3338.8091" r="0" layerid="1" stroke-width="0"/></g><g c_partid="part_pad" c_etype="pinpart" c_origin="4200.634,3283.8821" layerid="11" number="6" net="GND" plated ="Y"  id="gge2607" locked="0" c_rotation="90" c_width="12.5984" c_height="12.5984" title="GND" c_shape="ELLIPSE" pasteexpansion="0" solderexpansion="0.19685"><ellipse c_etype="pad_shell" cx="4200.634" cy="3283.8821" rx="6.2992" ry="6.2992" layerid="11" stroke-width="0"/><circle c_etype="pad_hole" cx="4200.634" cy="3283.8819" r="4.5276" layerid="11" stroke-width="0"/></g><g c_partid="part_pad" c_etype="pinpart" c_origin="4252.366,3283.8821" layerid="11" number="5" net="GND" plated ="Y"  id="gge2622" locked="0" c_rotation="270" c_width="12.5984" c_height="12.5984" title="GND" c_shape="ELLIPSE" pasteexpansion="0" solderexpansion="0.19685"><ellipse c_etype="pad_shell" cx="4252.366" cy="3283.8821" rx="6.2992" ry="6.2992" layerid="11" stroke-width="0"/><circle c_etype="pad_hole" cx="4252.366" cy="3283.8819" r="4.5276" layerid="11" stroke-width="0"/></g><g c_partid="part_pad" c_etype="pinpart" c_origin="4212.72,3294.1181" layerid="11" number="4" net="GND" plated ="Y"  id="gge2637" locked="0" c_rotation="180" c_width="5.9055" c_height="5.9055" title="GND" c_shape="ELLIPSE" pasteexpansion="0" solderexpansion="0.19685"><ellipse c_etype="pad_shell" cx="4212.72" cy="3294.1181" rx="2.95275" ry="2.95275" layerid="11" stroke-width="0"/><circle c_etype="pad_hole" cx="4212.7205" cy="3294.1177" r="1.7717" layerid="11" stroke-width="0"/></g><g c_partid="part_pad" c_etype="pinpart" c_origin="4222.563,3294.1181" layerid="11" number="3" net="U2_4" plated ="Y"  id="gge2652" locked="0" c_rotation="180" c_width="5.9055" c_height="5.9055" title="U2_4" c_shape="ELLIPSE" pasteexpansion="0" solderexpansion="0.19685"><ellipse c_etype="pad_shell" cx="4222.563" cy="3294.1181" rx="2.95275" ry="2.95275" layerid="11" stroke-width="0"/><circle c_etype="pad_hole" cx="4222.563" cy="3294.1177" r="1.7717" layerid="11" stroke-width="0"/></g><g c_partid="part_pad" c_etype="pinpart" c_origin="4230.437,3294.1181" layerid="11" number="2" net="U2_3" plated ="Y"  id="gge2667" locked="0" c_rotation="180" c_width="5.9055" c_height="5.9055" title="U2_3" c_shape="ELLIPSE" pasteexpansion="0" solderexpansion="0.19685"><ellipse c_etype="pad_shell" cx="4230.437" cy="3294.1181" rx="2.95275" ry="2.95275" layerid="11" stroke-width="0"/><circle c_etype="pad_hole" cx="4230.437" cy="3294.1177" r="1.7717" layerid="11" stroke-width="0"/></g><g c_partid="part_pad" c_etype="pinpart" c_origin="4240.279,3294.1181" layerid="11" number="1" net="+5V" plated ="Y"  id="gge2682" locked="0" c_rotation="180" c_width="5.9055" c_height="5.9055" title="+5V" c_shape="ELLIPSE" pasteexpansion="0" solderexpansion="0.19685"><ellipse c_etype="pad_shell" cx="4240.279" cy="3294.1181" rx="2.95275" ry="2.95275" layerid="11" stroke-width="0"/><circle c_etype="pad_hole" cx="4240.2795" cy="3294.1177" r="1.7717" layerid="11" stroke-width="0"/></g><g c_partid="part_pad" c_etype="pinpart" c_origin="4091.634,3283.3821" layerid="11" number="6" net="GND" plated ="Y"  id="gge2763" locked="0" c_rotation="90" c_width="12.5984" c_height="12.5984" title="GND" c_shape="ELLIPSE" pasteexpansion="0" solderexpansion="0.19685"><ellipse c_etype="pad_shell" cx="4091.634" cy="3283.3821" rx="6.2992" ry="6.2992" layerid="11" stroke-width="0"/><circle c_etype="pad_hole" cx="4091.634" cy="3283.3819" r="4.5276" layerid="11" stroke-width="0"/></g><g c_partid="part_pad" c_etype="pinpart" c_origin="4143.366,3283.3821" layerid="11" number="5" net="GND" plated ="Y"  id="gge2778" locked="0" c_rotation="270" c_width="12.5984" c_height="12.5984" title="GND" c_shape="ELLIPSE" pasteexpansion="0" solderexpansion="0.19685"><ellipse c_etype="pad_shell" cx="4143.366" cy="3283.3821" rx="6.2992" ry="6.2992" layerid="11" stroke-width="0"/><circle c_etype="pad_hole" cx="4143.366" cy="3283.3819" r="4.5276" layerid="11" stroke-width="0"/></g><g c_partid="part_pad" c_etype="pinpart" c_origin="4103.72,3293.6181" layerid="11" number="4" net="GND" plated ="Y"  id="gge2793" locked="0" c_rotation="180" c_width="5.9055" c_height="5.9055" title="GND" c_shape="ELLIPSE" pasteexpansion="0" solderexpansion="0.19685"><ellipse c_etype="pad_shell" cx="4103.72" cy="3293.6181" rx="2.95275" ry="2.95275" layerid="11" stroke-width="0"/><circle c_etype="pad_hole" cx="4103.7205" cy="3293.6177" r="1.7717" layerid="11" stroke-width="0"/></g><g c_partid="part_pad" c_etype="pinpart" c_origin="4113.563,3293.6181" layerid="11" number="3" net="U2_6" plated ="Y"  id="gge2808" locked="0" c_rotation="180" c_width="5.9055" c_height="5.9055" title="U2_6" c_shape="ELLIPSE" pasteexpansion="0" solderexpansion="0.19685"><ellipse c_etype="pad_shell" cx="4113.563" cy="3293.6181" rx="2.95275" ry="2.95275" layerid="11" stroke-width="0"/><circle c_etype="pad_hole" cx="4113.563" cy="3293.6177" r="1.7717" layerid="11" stroke-width="0"/></g><g c_partid="part_pad" c_etype="pinpart" c_origin="4121.437,3293.6181" layerid="11" number="2" net="U2_5" plated ="Y"  id="gge2823" locked="0" c_rotation="180" c_width="5.9055" c_height="5.9055" title="U2_5" c_shape="ELLIPSE" pasteexpansion="0" solderexpansion="0.19685"><ellipse c_etype="pad_shell" cx="4121.437" cy="3293.6181" rx="2.95275" ry="2.95275" layerid="11" stroke-width="0"/><circle c_etype="pad_hole" cx="4121.437" cy="3293.6177" r="1.7717" layerid="11" stroke-width="0"/></g><g c_partid="part_pad" c_etype="pinpart" c_origin="4131.279,3293.6181" layerid="11" number="1" net="+5V" plated ="Y"  id="gge2838" locked="0" c_rotation="180" c_width="5.9055" c_height="5.9055" title="+5V" c_shape="ELLIPSE" pasteexpansion="0" solderexpansion="0.19685"><ellipse c_etype="pad_shell" cx="4131.279" cy="3293.6181" rx="2.95275" ry="2.95275" layerid="11" stroke-width="0"/><circle c_etype="pad_hole" cx="4131.2795" cy="3293.6177" r="1.7717" layerid="11" stroke-width="0"/></g><g c_partid="part_pad" c_etype="pinpart" c_origin="4138.366,3403.1179" layerid="11" number="6" net="GND" plated ="Y"  id="gge2919" locked="0" c_rotation="270" c_width="12.5984" c_height="12.5984" title="GND" c_shape="ELLIPSE" pasteexpansion="0" solderexpansion="0.19685"><ellipse c_etype="pad_shell" cx="4138.366" cy="3403.1179" rx="6.2992" ry="6.2992" layerid="11" stroke-width="0"/><circle c_etype="pad_hole" cx="4138.366" cy="3403.1181" r="4.5276" layerid="11" stroke-width="0"/></g><g c_partid="part_pad" c_etype="pinpart" c_origin="4086.634,3403.1179" layerid="11" number="5" net="U5_5" plated ="Y"  id="gge2934" locked="0" c_rotation="90" c_width="12.5984" c_height="12.5984" title="U5_5" c_shape="ELLIPSE" pasteexpansion="0" solderexpansion="0.19685"><ellipse c_etype="pad_shell" cx="4086.634" cy="3403.1179" rx="6.2992" ry="6.2992" layerid="11" stroke-width="0"/><circle c_etype="pad_hole" cx="4086.634" cy="3403.1181" r="4.5276" layerid="11" stroke-width="0"/></g><g c_partid="part_pad" c_etype="pinpart" c_origin="4126.28,3392.8819" layerid="11" number="4" net="GND" plated ="Y"  id="gge2949" locked="0" c_rotation="0" c_width="5.9055" c_height="5.9055" title="GND" c_shape="ELLIPSE" pasteexpansion="0" solderexpansion="0.19685"><ellipse c_etype="pad_shell" cx="4126.28" cy="3392.8819" rx="2.95275" ry="2.95275" layerid="11" stroke-width="0"/><circle c_etype="pad_hole" cx="4126.2795" cy="3392.8823" r="1.7717" layerid="11" stroke-width="0"/></g><g c_partid="part_pad" c_etype="pinpart" c_origin="4116.437,3392.8819" layerid="11" number="3" net="U2_8" plated ="Y"  id="gge2964" locked="0" c_rotation="0" c_width="5.9055" c_height="5.9055" title="U2_8" c_shape="ELLIPSE" pasteexpansion="0" solderexpansion="0.19685"><ellipse c_etype="pad_shell" cx="4116.437" cy="3392.8819" rx="2.95275" ry="2.95275" layerid="11" stroke-width="0"/><circle c_etype="pad_hole" cx="4116.437" cy="3392.8823" r="1.7717" layerid="11" stroke-width="0"/></g><g c_partid="part_pad" c_etype="pinpart" c_origin="4108.563,3392.8819" layerid="11" number="2" net="U2_7" plated ="Y"  id="gge2979" locked="0" c_rotation="0" c_width="5.9055" c_height="5.9055" title="U2_7" c_shape="ELLIPSE" pasteexpansion="0" solderexpansion="0.19685"><ellipse c_etype="pad_shell" cx="4108.563" cy="3392.8819" rx="2.95275" ry="2.95275" layerid="11" stroke-width="0"/><circle c_etype="pad_hole" cx="4108.563" cy="3392.8823" r="1.7717" layerid="11" stroke-width="0"/></g><g c_partid="part_pad" c_etype="pinpart" c_origin="4098.721,3392.8819" layerid="11" number="1" net="+5V" plated ="Y"  id="gge2994" locked="0" c_rotation="0" c_width="5.9055" c_height="5.9055" title="+5V" c_shape="ELLIPSE" pasteexpansion="0" solderexpansion="0.19685"><ellipse c_etype="pad_shell" cx="4098.721" cy="3392.8819" rx="2.95275" ry="2.95275" layerid="11" stroke-width="0"/><circle c_etype="pad_hole" cx="4098.7205" cy="3392.8823" r="1.7717" layerid="11" stroke-width="0"/></g><g c_partid="part_pad" c_etype="pinpart" c_origin="4259.866,3379.6179" layerid="11" number="6" net="GND" plated ="Y"  id="gge3075" locked="0" c_rotation="270" c_width="12.5984" c_height="12.5984" title="GND" c_shape="ELLIPSE" pasteexpansion="0" solderexpansion="0.19685"><ellipse c_etype="pad_shell" cx="4259.866" cy="3379.6179" rx="6.2992" ry="6.2992" layerid="11" stroke-width="0"/><circle c_etype="pad_hole" cx="4259.866" cy="3379.6181" r="4.5276" layerid="11" stroke-width="0"/></g><g c_partid="part_pad" c_etype="pinpart" c_origin="4208.134,3379.6179" layerid="11" number="5" net="GND" plated ="Y"  id="gge3090" locked="0" c_rotation="90" c_width="12.5984" c_height="12.5984" title="GND" c_shape="ELLIPSE" pasteexpansion="0" solderexpansion="0.19685"><ellipse c_etype="pad_shell" cx="4208.134" cy="3379.6179" rx="6.2992" ry="6.2992" layerid="11" stroke-width="0"/><circle c_etype="pad_hole" cx="4208.134" cy="3379.6181" r="4.5276" layerid="11" stroke-width="0"/></g><g c_partid="part_pad" c_etype="pinpart" c_origin="4247.78,3369.3819" layerid="11" number="4" net="GND" plated ="Y"  id="gge3105" locked="0" c_rotation="0" c_width="5.9055" c_height="5.9055" title="GND" c_shape="ELLIPSE" pasteexpansion="0" solderexpansion="0.19685"><ellipse c_etype="pad_shell" cx="4247.78" cy="3369.3819" rx="2.95275" ry="2.95275" layerid="11" stroke-width="0"/><circle c_etype="pad_hole" cx="4247.7795" cy="3369.3823" r="1.7717" layerid="11" stroke-width="0"/></g><g c_partid="part_pad" c_etype="pinpart" c_origin="4237.937,3369.3819" layerid="11" number="3" net="U2_2" plated ="Y"  id="gge3120" locked="0" c_rotation="0" c_width="5.9055" c_height="5.9055" title="U2_2" c_shape="ELLIPSE" pasteexpansion="0" solderexpansion="0.19685"><ellipse c_etype="pad_shell" cx="4237.937" cy="3369.3819" rx="2.95275" ry="2.95275" layerid="11" stroke-width="0"/><circle c_etype="pad_hole" cx="4237.937" cy="3369.3823" r="1.7717" layerid="11" stroke-width="0"/></g><g c_partid="part_pad" c_etype="pinpart" c_origin="4230.063,3369.3819" layerid="11" number="2" net="U2_1" plated ="Y"  id="gge3135" locked="0" c_rotation="0" c_width="5.9055" c_height="5.9055" title="U2_1" c_shape="ELLIPSE" pasteexpansion="0" solderexpansion="0.19685"><ellipse c_etype="pad_shell" cx="4230.063" cy="3369.3819" rx="2.95275" ry="2.95275" layerid="11" stroke-width="0"/><circle c_etype="pad_hole" cx="4230.063" cy="3369.3823" r="1.7717" layerid="11" stroke-width="0"/></g><g c_partid="part_pad" c_etype="pinpart" c_origin="4220.221,3369.3819" layerid="11" number="1" net="+5V" plated ="Y"  id="gge3150" locked="0" c_rotation="0" c_width="5.9055" c_height="5.9055" title="+5V" c_shape="ELLIPSE" pasteexpansion="0" solderexpansion="0.19685"><ellipse c_etype="pad_shell" cx="4220.221" cy="3369.3819" rx="2.95275" ry="2.95275" layerid="11" stroke-width="0"/><circle c_etype="pad_hole" cx="4220.2205" cy="3369.3823" r="1.7717" layerid="11" stroke-width="0"/></g><g c_partid="part_pad" c_etype="pinpart" c_origin="4030.563,3370.0315" layerid="11" number="6" net="GND" plated ="Y"  id="gge3927" locked="0" c_rotation="270" c_width="7.874" c_height="13.7795" title="GND" c_shape="OVAL" pasteexpansion="0" solderexpansion="0.2"><polyline  c_etype="pad_shell" points="4033.5157 3370.0315 4027.6102 3370.0315" layerid="11" stroke-width="7.874" /><polyline c_etype="pad_hole" points="4027.6105 3370.0309 4033.516 3370.0309" layerid="11" stroke-width="3.937"></polyline></g><g c_partid="part_pad" c_etype="pinpart" c_origin="4030.563,3323.9685" layerid="11" number="5" net="GND" plated ="Y"  id="gge3942" locked="0" c_rotation="270" c_width="7.874" c_height="13.7795" title="GND" c_shape="OVAL" pasteexpansion="0" solderexpansion="0.2"><polyline  c_etype="pad_shell" points="4033.5157 3323.9685 4027.6102 3323.9685" layerid="11" stroke-width="7.874" /><polyline c_etype="pad_hole" points="4027.6105 3323.9682 4033.516 3323.9682" layerid="11" stroke-width="3.937"></polyline></g><g c_partid="part_pad" c_etype="pinpart" c_origin="4038.437,3333.2205" layerid="11" number="4" net="GND" plated ="Y"  id="gge3957" locked="0" c_rotation="270" c_width="6.2992" c_height="6.2992" title="GND" c_shape="ELLIPSE" pasteexpansion="0" solderexpansion="0.2"><ellipse c_etype="pad_shell" cx="4038.437" cy="3333.2205" rx="3.1496" ry="3.1496" layerid="11" stroke-width="0"/><circle c_etype="pad_hole" cx="4038.437" cy="3333.22" r="1.9685" layerid="11" stroke-width="0"/></g><g c_partid="part_pad" c_etype="pinpart" c_origin="4038.437,3343.0625" layerid="11" number="3" net="U2_10" plated ="Y"  id="gge3972" locked="0" c_rotation="270" c_width="6.2992" c_height="6.2992" title="U2_10" c_shape="ELLIPSE" pasteexpansion="0" solderexpansion="0.2"><ellipse c_etype="pad_shell" cx="4038.437" cy="3343.0625" rx="3.1496" ry="3.1496" layerid="11" stroke-width="0"/><circle c_etype="pad_hole" cx="4038.437" cy="3343.0625" r="1.9685" layerid="11" stroke-width="0"/></g><g c_partid="part_pad" c_etype="pinpart" c_origin="4038.437,3350.9365" layerid="11" number="2" net="U2_9" plated ="Y"  id="gge3987" locked="0" c_rotation="270" c_width="6.2992" c_height="6.2992" title="U2_9" c_shape="ELLIPSE" pasteexpansion="0" solderexpansion="0.2"><ellipse c_etype="pad_shell" cx="4038.437" cy="3350.9365" rx="3.1496" ry="3.1496" layerid="11" stroke-width="0"/><circle c_etype="pad_hole" cx="4038.437" cy="3350.9365" r="1.9685" layerid="11" stroke-width="0"/></g><g c_partid="part_pad" c_etype="pinpart" c_origin="4038.437,3360.7795" layerid="11" number="1" net="USB1_1" plated ="Y"  id="gge4002" locked="0" c_rotation="270" c_width="6.2992" c_height="6.2992" title="USB1_1" c_shape="ELLIPSE" pasteexpansion="0" solderexpansion="0.2"><ellipse c_etype="pad_shell" cx="4038.437" cy="3360.7795" rx="3.1496" ry="3.1496" layerid="11" stroke-width="0"/><circle c_etype="pad_hole" cx="4038.437" cy="3360.779" r="1.9685" layerid="11" stroke-width="0"/></g><g c_partid="part_hole" c_etype="pinpart" c_shapetype="group" c_origin="4030.563,3355.8575" layerid="11" id="gge3897" locked="0" ><circle cx="4030.563" cy="3355.8575" r="2.3622"  stroke-width="1" fill-opacity="0" /></g><g c_partid="part_hole" c_etype="pinpart" c_shapetype="group" c_origin="4030.563,3338.1415" layerid="11" id="gge3909" locked="0" ><circle cx="4030.563" cy="3338.1415" r="2.3622"  stroke-width="1" fill-opacity="0" /></g><polyline points="4064.0275 3329.0739 4064.0275 3325.9242" stroke-width="1"  stroke-linecap="round" fill="none" layerid="3" net="" id="gge30" locked="0" /><polyline points="4068.3966 3330.2938 4065.2471 3330.2938" stroke-width="1"  stroke-linecap="round" fill="none" layerid="3" net="" id="gge33" locked="0" /><polyline points="4068.3966 3324.7046 4065.2471 3324.7046" stroke-width="1"  stroke-linecap="round" fill="none" layerid="3" net="" id="gge36" locked="0" /><polyline points="4070.6639 3330.3167 4073.8135 3330.3167" stroke-width="1"  stroke-linecap="round" fill="none" layerid="3" net="" id="gge39" locked="0" /><polyline points="4075.0333 3329.0969 4075.0333 3325.9474" stroke-width="1"  stroke-linecap="round" fill="none" layerid="3" net="" id="gge42" locked="0" /><polyline points="4070.6639 3324.7277 4073.8135 3324.7277" stroke-width="1"  stroke-linecap="round" fill="none" layerid="3" net="" id="gge45" locked="0" /><polyline points="4190.5275 3361.0739 4190.5275 3357.9242" stroke-width="1"  stroke-linecap="round" fill="none" layerid="3" net="" id="gge126" locked="0" /><polyline points="4194.8966 3362.2938 4191.7471 3362.2938" stroke-width="1"  stroke-linecap="round" fill="none" layerid="3" net="" id="gge129" locked="0" /><polyline points="4194.8966 3356.7046 4191.7471 3356.7046" stroke-width="1"  stroke-linecap="round" fill="none" layerid="3" net="" id="gge132" locked="0" /><polyline points="4197.1639 3362.3167 4200.3135 3362.3167" stroke-width="1"  stroke-linecap="round" fill="none" layerid="3" net="" id="gge135" locked="0" /><polyline points="4201.5333 3361.0969 4201.5333 3357.9474" stroke-width="1"  stroke-linecap="round" fill="none" layerid="3" net="" id="gge138" locked="0" /><polyline points="4197.1639 3356.7277 4200.3135 3356.7277" stroke-width="1"  stroke-linecap="round" fill="none" layerid="3" net="" id="gge141" locked="0" /><polyline points="4247.5739 3320.4725 4244.4242 3320.4725" stroke-width="1"  stroke-linecap="round" fill="none" layerid="3" net="" id="gge222" locked="0" /><polyline points="4248.7938 3316.1034 4248.7938 3319.2529" stroke-width="1"  stroke-linecap="round" fill="none" layerid="3" net="" id="gge225" locked="0" /><polyline points="4243.2046 3316.1034 4243.2046 3319.2529" stroke-width="1"  stroke-linecap="round" fill="none" layerid="3" net="" id="gge228" locked="0" /><polyline points="4248.8167 3313.8361 4248.8167 3310.6865" stroke-width="1"  stroke-linecap="round" fill="none" layerid="3" net="" id="gge231" locked="0" /><polyline points="4247.5969 3309.4667 4244.4474 3309.4667" stroke-width="1"  stroke-linecap="round" fill="none" layerid="3" net="" id="gge234" locked="0" /><polyline points="4243.2277 3313.8361 4243.2277 3310.6865" stroke-width="1"  stroke-linecap="round" fill="none" layerid="3" net="" id="gge237" locked="0" /><polyline points="4111.9725 3374.4261 4111.9725 3377.5758" stroke-width="1"  stroke-linecap="round" fill="none" layerid="3" net="" id="gge318" locked="0" /><polyline points="4107.6034 3373.2062 4110.7529 3373.2062" stroke-width="1"  stroke-linecap="round" fill="none" layerid="3" net="" id="gge321" locked="0" /><polyline points="4107.6034 3378.7954 4110.7529 3378.7954" stroke-width="1"  stroke-linecap="round" fill="none" layerid="3" net="" id="gge324" locked="0" /><polyline points="4105.3361 3373.1833 4102.1865 3373.1833" stroke-width="1"  stroke-linecap="round" fill="none" layerid="3" net="" id="gge327" locked="0" /><polyline points="4100.9667 3374.4031 4100.9667 3377.5526" stroke-width="1"  stroke-linecap="round" fill="none" layerid="3" net="" id="gge330" locked="0" /><polyline points="4105.3361 3378.7723 4102.1865 3378.7723" stroke-width="1"  stroke-linecap="round" fill="none" layerid="3" net="" id="gge333" locked="0" /><polyline points="4102.9261 3313.5275 4106.0758 3313.5275" stroke-width="1"  stroke-linecap="round" fill="none" layerid="3" net="" id="gge414" locked="0" /><polyline points="4101.7062 3317.8966 4101.7062 3314.7471" stroke-width="1"  stroke-linecap="round" fill="none" layerid="3" net="" id="gge417" locked="0" /><polyline points="4107.2954 3317.8966 4107.2954 3314.7471" stroke-width="1"  stroke-linecap="round" fill="none" layerid="3" net="" id="gge420" locked="0" /><polyline points="4101.6833 3320.1639 4101.6833 3323.3135" stroke-width="1"  stroke-linecap="round" fill="none" layerid="3" net="" id="gge423" locked="0" /><polyline points="4102.9031 3324.5333 4106.0526 3324.5333" stroke-width="1"  stroke-linecap="round" fill="none" layerid="3" net="" id="gge426" locked="0" /><polyline points="4107.2723 3320.1639 4107.2723 3323.3135" stroke-width="1"  stroke-linecap="round" fill="none" layerid="3" net="" id="gge429" locked="0" /><polyline points="4178.0739 3367.9725 4174.9242 3367.9725" stroke-width="1"  stroke-linecap="round" fill="none" layerid="3" net="" id="gge510" locked="0" /><polyline points="4179.2938 3363.6034 4179.2938 3366.7529" stroke-width="1"  stroke-linecap="round" fill="none" layerid="3" net="" id="gge513" locked="0" /><polyline points="4173.7046 3363.6034 4173.7046 3366.7529" stroke-width="1"  stroke-linecap="round" fill="none" layerid="3" net="" id="gge516" locked="0" /><polyline points="4179.3167 3361.3361 4179.3167 3358.1865" stroke-width="1"  stroke-linecap="round" fill="none" layerid="3" net="" id="gge519" locked="0" /><polyline points="4178.0969 3356.9667 4174.9474 3356.9667" stroke-width="1"  stroke-linecap="round" fill="none" layerid="3" net="" id="gge522" locked="0" /><polyline points="4173.7277 3361.3361 4173.7277 3358.1865" stroke-width="1"  stroke-linecap="round" fill="none" layerid="3" net="" id="gge525" locked="0" /><polyline points="4168.0739 3367.4725 4164.9242 3367.4725" stroke-width="1"  stroke-linecap="round" fill="none" layerid="3" net="" id="gge606" locked="0" /><polyline points="4169.2938 3363.1034 4169.2938 3366.2529" stroke-width="1"  stroke-linecap="round" fill="none" layerid="3" net="" id="gge609" locked="0" /><polyline points="4163.7046 3363.1034 4163.7046 3366.2529" stroke-width="1"  stroke-linecap="round" fill="none" layerid="3" net="" id="gge612" locked="0" /><polyline points="4169.3167 3360.8361 4169.3167 3357.6865" stroke-width="1"  stroke-linecap="round" fill="none" layerid="3" net="" id="gge615" locked="0" /><polyline points="4168.0969 3356.4667 4164.9474 3356.4667" stroke-width="1"  stroke-linecap="round" fill="none" layerid="3" net="" id="gge618" locked="0" /><polyline points="4163.7277 3360.8361 4163.7277 3357.6865" stroke-width="1"  stroke-linecap="round" fill="none" layerid="3" net="" id="gge621" locked="0" /><polyline points="4073.4518 3357.6409 4073.4518 3358.4528" stroke-width="0.5984"  stroke-linecap="round" fill="none" layerid="3" net="" id="gge708" locked="0" /><polyline points="4073.4518 3363.3591 4073.4518 3362.5866" stroke-width="0.5984"  stroke-linecap="round" fill="none" layerid="3" net="" id="gge711" locked="0" /><polyline points="4080.3512 3363.3591 4073.4518 3363.3591" stroke-width="0.6"  stroke-linecap="round" fill="none" layerid="3" net="" id="gge714" locked="0" /><polyline points="4080.3512 3357.6409 4073.4518 3357.6409" stroke-width="0.6"  stroke-linecap="round" fill="none" layerid="3" net="" id="gge717" locked="0" /><polyline points="4078.7589 3363.3591 4078.7589 3357.6409" stroke-width="0.6"  stroke-linecap="round" fill="none" layerid="3" net="" id="gge720" locked="0" /><polyline points="4188.985 3320.526 4188.985 3334.474 4149.015 3334.474 4149.015 3320.526 4188.985 3320.526" stroke-width="0.6"  stroke-linecap="round" fill="none" layerid="3" net="" id="gge2286" locked="0" /><polyline points="4200.5158 3291.0901 4200.5158 3299.6299 4252.2873 3299.6299" stroke-width="1"  stroke-linecap="round" fill="none" layerid="3" net="" id="gge2568" locked="0" /><polyline points="4252.2873 3276.6731 4252.2873 3244.5119 4200.5158 3244.5119 4200.5158 3276.6737" stroke-width="1"  stroke-linecap="round" fill="none" layerid="3" net="" id="gge2571" locked="0" /><polyline points="4252.2873 3299.6299 4252.2873 3291.0907" stroke-width="1"  stroke-linecap="round" fill="none" layerid="3" net="" id="gge2574" locked="0" /><polyline points="4091.5158 3290.5901 4091.5158 3299.1299 4143.2873 3299.1299" stroke-width="1"  stroke-linecap="round" fill="none" layerid="3" net="" id="gge2724" locked="0" /><polyline points="4143.2873 3276.1731 4143.2873 3244.0119 4091.5158 3244.0119 4091.5158 3276.1737" stroke-width="1"  stroke-linecap="round" fill="none" layerid="3" net="" id="gge2727" locked="0" /><polyline points="4143.2873 3299.1299 4143.2873 3290.5907" stroke-width="1"  stroke-linecap="round" fill="none" layerid="3" net="" id="gge2730" locked="0" /><polyline points="4138.4842 3395.9099 4138.4842 3387.3701 4086.7127 3387.3701" stroke-width="1"  stroke-linecap="round" fill="none" layerid="3" net="" id="gge2880" locked="0" /><polyline points="4086.7127 3410.3269 4086.7127 3442.4881 4138.4842 3442.4881 4138.4842 3410.3263" stroke-width="1"  stroke-linecap="round" fill="none" layerid="3" net="" id="gge2883" locked="0" /><polyline points="4086.7127 3387.3701 4086.7127 3395.9093" stroke-width="1"  stroke-linecap="round" fill="none" layerid="3" net="" id="gge2886" locked="0" /><polyline points="4259.9842 3372.4099 4259.9842 3363.8701 4208.2127 3363.8701" stroke-width="1"  stroke-linecap="round" fill="none" layerid="3" net="" id="gge3036" locked="0" /><polyline points="4208.2127 3386.8269 4208.2127 3418.9881 4259.9842 3418.9881 4259.9842 3386.8263" stroke-width="1"  stroke-linecap="round" fill="none" layerid="3" net="" id="gge3039" locked="0" /><polyline points="4208.2127 3363.8701 4208.2127 3372.4093" stroke-width="1"  stroke-linecap="round" fill="none" layerid="3" net="" id="gge3042" locked="0" /><polyline points="4019.5395 3370.6217 4019.5395 3323.3777" stroke-width="1"  stroke-linecap="round" fill="none" layerid="3" net="" id="gge3864" locked="0" /><polyline points="4038.3262 3323.3777 4038.543 3323.3777" stroke-width="1"  stroke-linecap="round" fill="none" layerid="3" net="" id="gge3867" locked="0" /><polyline points="4022.7991 3370.6217 3960.6809 3370.6217 3960.6809 3323.3777 4022.7991 3323.3777" stroke-width="1"  stroke-linecap="round" fill="none" layerid="3" net="" id="gge3870" locked="0" /><polyline points="4038.8304 3364.8199 4038.8304 3370.6217 4038.3262 3370.6217" stroke-width="1"  stroke-linecap="round" fill="none" layerid="3" net="" id="gge3873" locked="0" /><polyline points="4038.8304 3354.9769 4038.8304 3356.7391" stroke-width="1"  stroke-linecap="round" fill="none" layerid="3" net="" id="gge3876" locked="0" /><polyline points="4038.8304 3337.2609 4038.8304 3339.0221" stroke-width="1"  stroke-linecap="round" fill="none" layerid="3" net="" id="gge3879" locked="0" /><polyline points="4038.3262 3323.3777 4038.8304 3323.3777 4038.8304 3329.1801" stroke-width="1"  stroke-linecap="round" fill="none" layerid="3" net="" id="gge3882" locked="0" /><polyline points="3987.937 3354.4995 3987.937 3366.9995 3978.437 3366.9995 3978.437 3354.4995 3987.937 3354.4995" stroke-width="1"  stroke-linecap="round" fill="none" layerid="3" net="" id="gge3885" locked="0" /><polyline points="3987.937 3326.9995 3987.937 3339.4995 3978.437 3339.4995 3978.437 3326.9995 3987.937 3326.9995" stroke-width="1"  stroke-linecap="round" fill="none" layerid="3" net="" id="gge3888" locked="0" /><g c_partid="part_pcbtext" c_etype="" c_origin="4070.5,3338.5" c_rotation="180" c_mirror="" id="gge9" locked="0" layerid="3" c_shapetype="group" display="none"><path c_fontsize="4.5" c_fontfamily="" c_text="10uF" d="M 4070.5 3342.22 L 4070.09 3342.43 L 4069.48 3343.04 L 4069.48 3338.75 M 4066.9 3343.04 L 4067.51 3342.84 L 4067.92 3342.22 L 4068.13 3341.2 L 4068.13 3340.59 L 4067.92 3339.56 L 4067.51 3338.95 L 4066.9 3338.75 L 4066.49 3338.75 L 4065.88 3338.95 L 4065.47 3339.56 L 4065.26 3340.59 L 4065.26 3341.2 L 4065.47 3342.22 L 4065.88 3342.84 L 4066.49 3343.04 L 4066.9 3343.04 M 4063.91 3341.61 L 4063.91 3339.56 L 4063.71 3338.95 L 4063.3 3338.75 L 4062.69 3338.75 L 4062.28 3338.95 L 4061.66 3339.56 M 4061.66 3341.61 L 4061.66 3338.75 M 4060.31 3343.04 L 4060.31 3338.75 M 4060.31 3343.04 L 4057.65 3343.04 M 4060.31 3341 L 4058.68 3341" fill="none"  stroke-width="0.6" c_note="note_name" /></g><g c_partid="part_pcbtext" c_etype="" c_origin="4070.5,3331.5" c_rotation="180" c_mirror="" id="gge15" locked="0" layerid="3" c_shapetype="group" ><path c_fontsize="4.5" c_fontfamily="" c_text="C1" d="M 4067.43 3335.02 L 4067.64 3335.43 L 4068.05 3335.84 L 4068.45 3336.04 L 4069.27 3336.04 L 4069.68 3335.84 L 4070.09 3335.43 L 4070.3 3335.02 L 4070.5 3334.4 L 4070.5 3333.38 L 4070.3 3332.77 L 4070.09 3332.36 L 4069.68 3331.95 L 4069.27 3331.75 L 4068.45 3331.75 L 4068.05 3331.95 L 4067.64 3332.36 L 4067.43 3332.77 M 4066.08 3335.22 L 4065.67 3335.43 L 4065.06 3336.04 L 4065.06 3331.75" fill="none"  stroke-width="0.6" c_note="note_pre" /></g><g c_partid="part_pcbtext" c_etype="" c_origin="4197,3370.5" c_rotation="180" c_mirror="" id="gge105" locked="0" layerid="3" c_shapetype="group" display="none"><path c_fontsize="4.5" c_fontfamily="" c_text="10uF" d="M 4197 3374.22 L 4196.59 3374.43 L 4195.98 3375.04 L 4195.98 3370.75 M 4193.4 3375.04 L 4194.01 3374.84 L 4194.42 3374.22 L 4194.63 3373.2 L 4194.63 3372.59 L 4194.42 3371.56 L 4194.01 3370.95 L 4193.4 3370.75 L 4192.99 3370.75 L 4192.38 3370.95 L 4191.97 3371.56 L 4191.76 3372.59 L 4191.76 3373.2 L 4191.97 3374.22 L 4192.38 3374.84 L 4192.99 3375.04 L 4193.4 3375.04 M 4190.41 3373.61 L 4190.41 3371.56 L 4190.21 3370.95 L 4189.8 3370.75 L 4189.19 3370.75 L 4188.78 3370.95 L 4188.16 3371.56 M 4188.16 3373.61 L 4188.16 3370.75 M 4186.81 3375.04 L 4186.81 3370.75 M 4186.81 3375.04 L 4184.15 3375.04 M 4186.81 3373 L 4185.18 3373" fill="none"  stroke-width="0.6" c_note="note_name" /></g><g c_partid="part_pcbtext" c_etype="" c_origin="4197,3363.5" c_rotation="180" c_mirror="" id="gge111" locked="0" layerid="3" c_shapetype="group" ><path c_fontsize="4.5" c_fontfamily="" c_text="C2" d="M 4193.93 3367.02 L 4194.14 3367.43 L 4194.55 3367.84 L 4194.95 3368.04 L 4195.77 3368.04 L 4196.18 3367.84 L 4196.59 3367.43 L 4196.8 3367.02 L 4197 3366.4 L 4197 3365.38 L 4196.8 3364.77 L 4196.59 3364.36 L 4196.18 3363.95 L 4195.77 3363.75 L 4194.95 3363.75 L 4194.55 3363.95 L 4194.14 3364.36 L 4193.93 3364.77 M 4192.38 3367.02 L 4192.38 3367.22 L 4192.17 3367.63 L 4191.97 3367.84 L 4191.56 3368.04 L 4190.74 3368.04 L 4190.33 3367.84 L 4190.13 3367.63 L 4189.92 3367.22 L 4189.92 3366.81 L 4190.13 3366.4 L 4190.54 3365.79 L 4192.58 3363.75 L 4189.72 3363.75" fill="none"  stroke-width="0.6" c_note="note_pre" /></g><g c_partid="part_pcbtext" c_etype="" c_origin="4257,3314" c_rotation="270" c_mirror="" id="gge201" locked="0" layerid="3" c_shapetype="group" display="none"><path c_fontsize="4.5" c_fontfamily="" c_text="10uF" d="M 4260.72 3314 L 4260.93 3314.41 L 4261.54 3315.02 L 4257.25 3315.02 M 4261.54 3317.6 L 4261.34 3316.99 L 4260.72 3316.58 L 4259.7 3316.37 L 4259.09 3316.37 L 4258.06 3316.58 L 4257.45 3316.99 L 4257.25 3317.6 L 4257.25 3318.01 L 4257.45 3318.62 L 4258.06 3319.03 L 4259.09 3319.24 L 4259.7 3319.24 L 4260.72 3319.03 L 4261.34 3318.62 L 4261.54 3318.01 L 4261.54 3317.6 M 4260.11 3320.59 L 4258.06 3320.59 L 4257.45 3320.79 L 4257.25 3321.2 L 4257.25 3321.81 L 4257.45 3322.22 L 4258.06 3322.84 M 4260.11 3322.84 L 4257.25 3322.84 M 4261.54 3324.19 L 4257.25 3324.19 M 4261.54 3324.19 L 4261.54 3326.85 M 4259.5 3324.19 L 4259.5 3325.82" fill="none"  stroke-width="0.6" c_note="note_name" /></g><g c_partid="part_pcbtext" c_etype="" c_origin="4250,3314" c_rotation="270" c_mirror="" id="gge207" locked="0" layerid="3" c_shapetype="group" ><path c_fontsize="4.5" c_fontfamily="" c_text="C3" d="M 4253.52 3317.07 L 4253.93 3316.86 L 4254.34 3316.45 L 4254.54 3316.05 L 4254.54 3315.23 L 4254.34 3314.82 L 4253.93 3314.41 L 4253.52 3314.2 L 4252.9 3314 L 4251.88 3314 L 4251.27 3314.2 L 4250.86 3314.41 L 4250.45 3314.82 L 4250.25 3315.23 L 4250.25 3316.05 L 4250.45 3316.45 L 4250.86 3316.86 L 4251.27 3317.07 M 4254.54 3318.83 L 4254.54 3321.08 L 4252.9 3319.85 L 4252.9 3320.46 L 4252.7 3320.87 L 4252.5 3321.08 L 4251.88 3321.28 L 4251.47 3321.28 L 4250.86 3321.08 L 4250.45 3320.67 L 4250.25 3320.05 L 4250.25 3319.44 L 4250.45 3318.83 L 4250.65 3318.62 L 4251.06 3318.42" fill="none"  stroke-width="0.6" c_note="note_pre" /></g><g c_partid="part_pcbtext" c_etype="" c_origin="4105.5,3365" c_rotation="0" c_mirror="" id="gge297" locked="0" layerid="3" c_shapetype="group" display="none"><path c_fontsize="4.5" c_fontfamily="" c_text="10uF" d="M 4105.5 3361.28 L 4105.91 3361.07 L 4106.52 3360.46 L 4106.52 3364.75 M 4109.1 3360.46 L 4108.49 3360.66 L 4108.08 3361.28 L 4107.87 3362.3 L 4107.87 3362.91 L 4108.08 3363.94 L 4108.49 3364.55 L 4109.1 3364.75 L 4109.51 3364.75 L 4110.12 3364.55 L 4110.53 3363.94 L 4110.74 3362.91 L 4110.74 3362.3 L 4110.53 3361.28 L 4110.12 3360.66 L 4109.51 3360.46 L 4109.1 3360.46 M 4112.09 3361.89 L 4112.09 3363.94 L 4112.29 3364.55 L 4112.7 3364.75 L 4113.31 3364.75 L 4113.72 3364.55 L 4114.34 3363.94 M 4114.34 3361.89 L 4114.34 3364.75 M 4115.69 3360.46 L 4115.69 3364.75 M 4115.69 3360.46 L 4118.35 3360.46 M 4115.69 3362.5 L 4117.32 3362.5" fill="none"  stroke-width="0.6" c_note="note_name" /></g><g c_partid="part_pcbtext" c_etype="" c_origin="4105.5,3372" c_rotation="0" c_mirror="" id="gge303" locked="0" layerid="3" c_shapetype="group" ><path c_fontsize="4.5" c_fontfamily="" c_text="C4" d="M 4108.57 3368.48 L 4108.36 3368.07 L 4107.95 3367.66 L 4107.55 3367.46 L 4106.73 3367.46 L 4106.32 3367.66 L 4105.91 3368.07 L 4105.7 3368.48 L 4105.5 3369.1 L 4105.5 3370.12 L 4105.7 3370.73 L 4105.91 3371.14 L 4106.32 3371.55 L 4106.73 3371.75 L 4107.55 3371.75 L 4107.95 3371.55 L 4108.36 3371.14 L 4108.57 3370.73 M 4111.96 3367.46 L 4109.92 3370.32 L 4112.99 3370.32 M 4111.96 3367.46 L 4111.96 3371.75" fill="none"  stroke-width="0.6" c_note="note_pre" /></g><g c_partid="part_pcbtext" c_etype="" c_origin="4093.5,3320" c_rotation="90" c_mirror="" id="gge393" locked="0" layerid="3" c_shapetype="group" display="none"><path c_fontsize="4.5" c_fontfamily="" c_text="10uF" d="M 4089.78 3320 L 4089.57 3319.59 L 4088.96 3318.98 L 4093.25 3318.98 M 4088.96 3316.4 L 4089.16 3317.01 L 4089.78 3317.42 L 4090.8 3317.63 L 4091.41 3317.63 L 4092.44 3317.42 L 4093.05 3317.01 L 4093.25 3316.4 L 4093.25 3315.99 L 4093.05 3315.38 L 4092.44 3314.97 L 4091.41 3314.76 L 4090.8 3314.76 L 4089.78 3314.97 L 4089.16 3315.38 L 4088.96 3315.99 L 4088.96 3316.4 M 4090.39 3313.41 L 4092.44 3313.41 L 4093.05 3313.21 L 4093.25 3312.8 L 4093.25 3312.19 L 4093.05 3311.78 L 4092.44 3311.16 M 4090.39 3311.16 L 4093.25 3311.16 M 4088.96 3309.81 L 4093.25 3309.81 M 4088.96 3309.81 L 4088.96 3307.15 M 4091 3309.81 L 4091 3308.18" fill="none"  stroke-width="0.6" c_note="note_name" /></g><g c_partid="part_pcbtext" c_etype="" c_origin="4100.5,3320" c_rotation="90" c_mirror="" id="gge399" locked="0" layerid="3" c_shapetype="group" ><path c_fontsize="4.5" c_fontfamily="" c_text="C5" d="M 4096.98 3316.93 L 4096.57 3317.14 L 4096.16 3317.55 L 4095.96 3317.95 L 4095.96 3318.77 L 4096.16 3319.18 L 4096.57 3319.59 L 4096.98 3319.8 L 4097.6 3320 L 4098.62 3320 L 4099.23 3319.8 L 4099.64 3319.59 L 4100.05 3319.18 L 4100.25 3318.77 L 4100.25 3317.95 L 4100.05 3317.55 L 4099.64 3317.14 L 4099.23 3316.93 M 4095.96 3313.13 L 4095.96 3315.17 L 4097.8 3315.38 L 4097.6 3315.17 L 4097.39 3314.56 L 4097.39 3313.95 L 4097.6 3313.33 L 4098 3312.92 L 4098.62 3312.72 L 4099.03 3312.72 L 4099.64 3312.92 L 4100.05 3313.33 L 4100.25 3313.95 L 4100.25 3314.56 L 4100.05 3315.17 L 4099.85 3315.38 L 4099.44 3315.58" fill="none"  stroke-width="0.6" c_note="note_pre" /></g><g c_partid="part_pcbtext" c_etype="" c_origin="4187.5,3361.5" c_rotation="270" c_mirror="" id="gge489" locked="0" layerid="3" c_shapetype="group" display="none"><path c_fontsize="4.5" c_fontfamily="" c_text="10uF" d="M 4191.22 3361.5 L 4191.43 3361.91 L 4192.04 3362.52 L 4187.75 3362.52 M 4192.04 3365.1 L 4191.84 3364.49 L 4191.22 3364.08 L 4190.2 3363.87 L 4189.59 3363.87 L 4188.56 3364.08 L 4187.95 3364.49 L 4187.75 3365.1 L 4187.75 3365.51 L 4187.95 3366.12 L 4188.56 3366.53 L 4189.59 3366.74 L 4190.2 3366.74 L 4191.22 3366.53 L 4191.84 3366.12 L 4192.04 3365.51 L 4192.04 3365.1 M 4190.61 3368.09 L 4188.56 3368.09 L 4187.95 3368.29 L 4187.75 3368.7 L 4187.75 3369.31 L 4187.95 3369.72 L 4188.56 3370.34 M 4190.61 3370.34 L 4187.75 3370.34 M 4192.04 3371.69 L 4187.75 3371.69 M 4192.04 3371.69 L 4192.04 3374.35 M 4190 3371.69 L 4190 3373.32" fill="none"  stroke-width="0.6" c_note="note_name" /></g><g c_partid="part_pcbtext" c_etype="" c_origin="4180.5,3361.5" c_rotation="270" c_mirror="" id="gge495" locked="0" layerid="3" c_shapetype="group" ><path c_fontsize="4.5" c_fontfamily="" c_text="C6" d="M 4184.02 3364.57 L 4184.43 3364.36 L 4184.84 3363.95 L 4185.04 3363.55 L 4185.04 3362.73 L 4184.84 3362.32 L 4184.43 3361.91 L 4184.02 3361.7 L 4183.4 3361.5 L 4182.38 3361.5 L 4181.77 3361.7 L 4181.36 3361.91 L 4180.95 3362.32 L 4180.75 3362.73 L 4180.75 3363.55 L 4180.95 3363.95 L 4181.36 3364.36 L 4181.77 3364.57 M 4184.43 3368.37 L 4184.84 3368.17 L 4185.04 3367.55 L 4185.04 3367.15 L 4184.84 3366.53 L 4184.22 3366.12 L 4183.2 3365.92 L 4182.18 3365.92 L 4181.36 3366.12 L 4180.95 3366.53 L 4180.75 3367.15 L 4180.75 3367.35 L 4180.95 3367.96 L 4181.36 3368.37 L 4181.97 3368.58 L 4182.18 3368.58 L 4182.79 3368.37 L 4183.2 3367.96 L 4183.4 3367.35 L 4183.4 3367.15 L 4183.2 3366.53 L 4182.79 3366.12 L 4182.18 3365.92" fill="none"  stroke-width="0.6" c_note="note_pre" /></g><g c_partid="part_pcbtext" c_etype="" c_origin="4177.5,3361" c_rotation="270" c_mirror="" id="gge585" locked="0" layerid="3" c_shapetype="group" display="none"><path c_fontsize="4.5" c_fontfamily="" c_text="10uF" d="M 4181.22 3361 L 4181.43 3361.41 L 4182.04 3362.02 L 4177.75 3362.02 M 4182.04 3364.6 L 4181.84 3363.99 L 4181.22 3363.58 L 4180.2 3363.37 L 4179.59 3363.37 L 4178.56 3363.58 L 4177.95 3363.99 L 4177.75 3364.6 L 4177.75 3365.01 L 4177.95 3365.62 L 4178.56 3366.03 L 4179.59 3366.24 L 4180.2 3366.24 L 4181.22 3366.03 L 4181.84 3365.62 L 4182.04 3365.01 L 4182.04 3364.6 M 4180.61 3367.59 L 4178.56 3367.59 L 4177.95 3367.79 L 4177.75 3368.2 L 4177.75 3368.81 L 4177.95 3369.22 L 4178.56 3369.84 M 4180.61 3369.84 L 4177.75 3369.84 M 4182.04 3371.19 L 4177.75 3371.19 M 4182.04 3371.19 L 4182.04 3373.85 M 4180 3371.19 L 4180 3372.82" fill="none"  stroke-width="0.6" c_note="note_name" /></g><g c_partid="part_pcbtext" c_etype="" c_origin="4170.5,3361" c_rotation="270" c_mirror="" id="gge591" locked="0" layerid="3" c_shapetype="group" ><path c_fontsize="4.5" c_fontfamily="" c_text="C7" d="M 4174.02 3364.07 L 4174.43 3363.86 L 4174.84 3363.45 L 4175.04 3363.05 L 4175.04 3362.23 L 4174.84 3361.82 L 4174.43 3361.41 L 4174.02 3361.2 L 4173.4 3361 L 4172.38 3361 L 4171.77 3361.2 L 4171.36 3361.41 L 4170.95 3361.82 L 4170.75 3362.23 L 4170.75 3363.05 L 4170.95 3363.45 L 4171.36 3363.86 L 4171.77 3364.07 M 4175.04 3368.28 L 4170.75 3366.24 M 4175.04 3365.42 L 4175.04 3368.28" fill="none"  stroke-width="0.6" c_note="note_pre" /></g><g c_partid="part_pcbtext" c_etype="" c_origin="4077.9015,3372.5" c_rotation="180" c_mirror="" id="gge681" locked="0" layerid="3" c_shapetype="group" display="none"><path c_fontsize="4.5" c_fontfamily="" c_text="NSR0320MW2T1G" d="M 4077.9015 3377.04 L 4077.9015 3372.75 M 4077.9015 3377.04 L 4075.0415 3372.75 M 4075.0415 3377.04 L 4075.0415 3372.75 M 4070.8215 3376.43 L 4071.2315 3376.84 L 4071.8515 3377.04 L 4072.6615 3377.04 L 4073.2815 3376.84 L 4073.6915 3376.43 L 4073.6915 3376.02 L 4073.4815 3375.61 L 4073.2815 3375.4 L 4072.8715 3375.2 L 4071.6415 3374.79 L 4071.2315 3374.59 L 4071.0315 3374.38 L 4070.8215 3373.97 L 4070.8215 3373.36 L 4071.2315 3372.95 L 4071.8515 3372.75 L 4072.6615 3372.75 L 4073.2815 3372.95 L 4073.6915 3373.36 M 4069.4715 3377.04 L 4069.4715 3372.75 M 4069.4715 3377.04 L 4067.6315 3377.04 L 4067.0215 3376.84 L 4066.8115 3376.63 L 4066.6115 3376.22 L 4066.6115 3375.81 L 4066.8115 3375.4 L 4067.0215 3375.2 L 4067.6315 3375 L 4069.4715 3375 M 4068.0415 3375 L 4066.6115 3372.75 M 4064.0315 3377.04 L 4064.6515 3376.84 L 4065.0515 3376.22 L 4065.2615 3375.2 L 4065.2615 3374.59 L 4065.0515 3373.56 L 4064.6515 3372.95 L 4064.0315 3372.75 L 4063.6215 3372.75 L 4063.0115 3372.95 L 4062.6015 3373.56 L 4062.4015 3374.59 L 4062.4015 3375.2 L 4062.6015 3376.22 L 4063.0115 3376.84 L 4063.6215 3377.04 L 4064.0315 3377.04 M 4060.6415 3377.04 L 4058.3915 3377.04 L 4059.6115 3375.4 L 4059.0015 3375.4 L 4058.5915 3375.2 L 4058.3915 3375 L 4058.1815 3374.38 L 4058.1815 3373.97 L 4058.3915 3373.36 L 4058.8015 3372.95 L 4059.4115 3372.75 L 4060.0215 3372.75 L 4060.6415 3372.95 L 4060.8415 3373.15 L 4061.0515 3373.56 M 4056.6315 3376.02 L 4056.6315 3376.22 L 4056.4215 3376.63 L 4056.2215 3376.84 L 4055.8115 3377.04 L 4054.9915 3377.04 L 4054.5815 3376.84 L 4054.3815 3376.63 L 4054.1715 3376.22 L 4054.1715 3375.81 L 4054.3815 3375.4 L 4054.7915 3374.79 L 4056.8315 3372.75 L 4053.9715 3372.75 M 4051.3915 3377.04 L 4052.0015 3376.84 L 4052.4115 3376.22 L 4052.6215 3375.2 L 4052.6215 3374.59 L 4052.4115 3373.56 L 4052.0015 3372.95 L 4051.3915 3372.75 L 4050.9815 3372.75 L 4050.3715 3372.95 L 4049.9615 3373.56 L 4049.7515 3374.59 L 4049.7515 3375.2 L 4049.9615 3376.22 L 4050.3715 3376.84 L 4050.9815 3377.04 L 4051.3915 3377.04 M 4048.4015 3377.04 L 4048.4015 3372.75 M 4048.4015 3377.04 L 4046.7715 3372.75 M 4045.1315 3377.04 L 4046.7715 3372.75 M 4045.1315 3377.04 L 4045.1315 3372.75 M 4043.7815 3377.04 L 4042.7615 3372.75 M 4041.7415 3377.04 L 4042.7615 3372.75 M 4041.7415 3377.04 L 4040.7115 3372.75 M 4039.6915 3377.04 L 4040.7115 3372.75 M 4038.1415 3376.02 L 4038.1415 3376.22 L 4037.9315 3376.63 L 4037.7315 3376.84 L 4037.3215 3377.04 L 4036.5015 3377.04 L 4036.0915 3376.84 L 4035.8915 3376.63 L 4035.6815 3376.22 L 4035.6815 3375.81 L 4035.8915 3375.4 L 4036.3015 3374.79 L 4038.3415 3372.75 L 4035.4815 3372.75 M 4032.7015 3377.04 L 4032.7015 3372.75 M 4034.1315 3377.04 L 4031.2615 3377.04 M 4029.9115 3376.22 L 4029.5015 3376.43 L 4028.8915 3377.04 L 4028.8915 3372.75 M 4024.4715 3376.02 L 4024.6815 3376.43 L 4025.0915 3376.84 L 4025.5015 3377.04 L 4026.3115 3377.04 L 4026.7215 3376.84 L 4027.1315 3376.43 L 4027.3415 3376.02 L 4027.5415 3375.4 L 4027.5415 3374.38 L 4027.3415 3373.77 L 4027.1315 3373.36 L 4026.7215 3372.95 L 4026.3115 3372.75 L 4025.5015 3372.75 L 4025.0915 3372.95 L 4024.6815 3373.36 L 4024.4715 3373.77 L 4024.4715 3374.38 M 4025.5015 3374.38 L 4024.4715 3374.38" fill="none"  stroke-width="0.6" c_note="note_name" /></g><g c_partid="part_pcbtext" c_etype="" c_origin="4077.9015,3365.5" c_rotation="180" c_mirror="" id="gge687" locked="0" layerid="3" c_shapetype="group" ><path c_fontsize="4.5" c_fontfamily="" c_text="D1" d="M 4077.9015 3370.04 L 4077.9015 3365.75 M 4077.9015 3370.04 L 4076.4715 3370.04 L 4075.8515 3369.84 L 4075.4515 3369.43 L 4075.2415 3369.02 L 4075.0415 3368.4 L 4075.0415 3367.38 L 4075.2415 3366.77 L 4075.4515 3366.36 L 4075.8515 3365.95 L 4076.4715 3365.75 L 4077.9015 3365.75 M 4073.6915 3369.22 L 4073.2815 3369.43 L 4072.6615 3370.04 L 4072.6615 3365.75" fill="none"  stroke-width="0.6" c_note="note_pre" /></g><g c_partid="part_pcbtext" c_etype="" c_origin="4170,3350.5" c_rotation="180" c_mirror="" id="gge2169" locked="0" layerid="3" c_shapetype="group" display="none"><path c_fontsize="4.5" c_fontfamily="" c_text="SL2.1A" d="M 4167.14 3354.43 L 4167.55 3354.84 L 4168.16 3355.04 L 4168.98 3355.04 L 4169.59 3354.84 L 4170 3354.43 L 4170 3354.02 L 4169.8 3353.61 L 4169.59 3353.4 L 4169.18 3353.2 L 4167.95 3352.79 L 4167.55 3352.59 L 4167.34 3352.38 L 4167.14 3351.97 L 4167.14 3351.36 L 4167.55 3350.95 L 4168.16 3350.75 L 4168.98 3350.75 L 4169.59 3350.95 L 4170 3351.36 M 4165.79 3355.04 L 4165.79 3350.75 M 4165.79 3350.75 L 4163.33 3350.75 M 4161.78 3354.02 L 4161.78 3354.22 L 4161.57 3354.63 L 4161.37 3354.84 L 4160.96 3355.04 L 4160.14 3355.04 L 4159.73 3354.84 L 4159.53 3354.63 L 4159.32 3354.22 L 4159.32 3353.81 L 4159.53 3353.4 L 4159.94 3352.79 L 4161.98 3350.75 L 4159.12 3350.75 M 4157.56 3351.77 L 4157.77 3351.56 L 4157.56 3351.36 L 4157.36 3351.56 L 4157.56 3351.77 M 4156.01 3354.22 L 4155.6 3354.43 L 4154.99 3355.04 L 4154.99 3350.75 M 4152 3355.04 L 4153.64 3350.75 M 4152 3355.04 L 4150.36 3350.75 M 4153.02 3352.18 L 4150.98 3352.18" fill="none"  stroke-width="0.6" c_note="note_name" /></g><g c_partid="part_pcbtext" c_etype="" c_origin="4170,3343.5" c_rotation="180" c_mirror="" id="gge2175" locked="0" layerid="3" c_shapetype="group" ><path c_fontsize="4.5" c_fontfamily="" c_text="U2" d="M 4170 3348.04 L 4170 3344.97 L 4169.8 3344.36 L 4169.39 3343.95 L 4168.77 3343.75 L 4168.36 3343.75 L 4167.75 3343.95 L 4167.34 3344.36 L 4167.14 3344.97 L 4167.14 3348.04 M 4165.58 3347.02 L 4165.58 3347.22 L 4165.38 3347.63 L 4165.17 3347.84 L 4164.76 3348.04 L 4163.95 3348.04 L 4163.54 3347.84 L 4163.33 3347.63 L 4163.13 3347.22 L 4163.13 3346.81 L 4163.33 3346.4 L 4163.74 3345.79 L 4165.79 3343.75 L 4162.92 3343.75" fill="none"  stroke-width="0.6" c_note="note_pre" /></g><g c_partid="part_pcbtext" c_etype="" c_origin="4226.866,3308.4491" c_rotation="180" c_mirror="" id="gge2547" locked="0" layerid="3" c_shapetype="group" display="none"><path c_fontsize="4.5" c_fontfamily="" c_text="ZX-TYPEA-2-WCM4" d="M 4224.006 3312.9891 L 4226.866 3308.6991 M 4226.866 3312.9891 L 4224.006 3312.9891 M 4226.866 3308.6991 L 4224.006 3308.6991 M 4222.656 3312.9891 L 4219.786 3308.6991 M 4219.786 3312.9891 L 4222.656 3308.6991 M 4218.436 3310.5391 L 4214.756 3310.5391 M 4211.976 3312.9891 L 4211.976 3308.6991 M 4213.406 3312.9891 L 4210.546 3312.9891 M 4209.196 3312.9891 L 4207.556 3310.9491 L 4207.556 3308.6991 M 4205.916 3312.9891 L 4207.556 3310.9491 M 4204.566 3312.9891 L 4204.566 3308.6991 M 4204.566 3312.9891 L 4202.726 3312.9891 L 4202.116 3312.7891 L 4201.916 3312.5791 L 4201.706 3312.1691 L 4201.706 3311.5591 L 4201.916 3311.1491 L 4202.116 3310.9491 L 4202.726 3310.7391 L 4204.566 3310.7391 M 4200.356 3312.9891 L 4200.356 3308.6991 M 4200.356 3312.9891 L 4197.696 3312.9891 M 4200.356 3310.9491 L 4198.716 3310.9491 M 4200.356 3308.6991 L 4197.696 3308.6991 M 4194.716 3312.9891 L 4196.346 3308.6991 M 4194.716 3312.9891 L 4193.076 3308.6991 M 4195.736 3310.1291 L 4193.686 3310.1291 M 4191.726 3310.5391 L 4188.046 3310.5391 M 4186.486 3311.9691 L 4186.486 3312.1691 L 4186.286 3312.5791 L 4186.076 3312.7891 L 4185.666 3312.9891 L 4184.856 3312.9891 L 4184.446 3312.7891 L 4184.236 3312.5791 L 4184.036 3312.1691 L 4184.036 3311.7591 L 4184.236 3311.3491 L 4184.646 3310.7391 L 4186.696 3308.6991 L 4183.826 3308.6991 M 4182.476 3310.5391 L 4178.796 3310.5391 M 4177.446 3312.9891 L 4176.426 3308.6991 M 4175.406 3312.9891 L 4176.426 3308.6991 M 4175.406 3312.9891 L 4174.376 3308.6991 M 4173.356 3312.9891 L 4174.376 3308.6991 M 4168.936 3311.9691 L 4169.146 3312.3791 L 4169.556 3312.7891 L 4169.966 3312.9891 L 4170.776 3312.9891 L 4171.186 3312.7891 L 4171.596 3312.3791 L 4171.806 3311.9691 L 4172.006 3311.3491 L 4172.006 3310.3291 L 4171.806 3309.7191 L 4171.596 3309.3091 L 4171.186 3308.8991 L 4170.776 3308.6991 L 4169.966 3308.6991 L 4169.556 3308.8991 L 4169.146 3309.3091 L 4168.936 3309.7191 M 4167.586 3312.9891 L 4167.586 3308.6991 M 4167.586 3312.9891 L 4165.956 3308.6991 M 4164.316 3312.9891 L 4165.956 3308.6991 M 4164.316 3312.9891 L 4164.316 3308.6991 M 4160.916 3312.9891 L 4162.966 3310.1291 L 4159.896 3310.1291 M 4160.916 3312.9891 L 4160.916 3308.6991" fill="none"  stroke-width="0.6" c_note="note_name" /></g><g c_partid="part_pcbtext" c_etype="" c_origin="4226.866,3301.4491" c_rotation="180" c_mirror="" id="gge2553" locked="0" layerid="3" c_shapetype="group" ><path c_fontsize="4.5" c_fontfamily="" c_text="U3" d="M 4226.866 3305.9891 L 4226.866 3302.9191 L 4226.666 3302.3091 L 4226.256 3301.8991 L 4225.636 3301.6991 L 4225.226 3301.6991 L 4224.616 3301.8991 L 4224.206 3302.3091 L 4224.006 3302.9191 L 4224.006 3305.9891 M 4222.246 3305.9891 L 4219.996 3305.9891 L 4221.216 3304.3491 L 4220.606 3304.3491 L 4220.196 3304.1491 L 4219.996 3303.9491 L 4219.786 3303.3291 L 4219.786 3302.9191 L 4219.996 3302.3091 L 4220.406 3301.8991 L 4221.016 3301.6991 L 4221.626 3301.6991 L 4222.246 3301.8991 L 4222.446 3302.0991 L 4222.656 3302.5091" fill="none"  stroke-width="0.6" c_note="note_pre" /></g><g c_partid="part_pcbtext" c_etype="" c_origin="4117.866,3307.9491" c_rotation="180" c_mirror="" id="gge2703" locked="0" layerid="3" c_shapetype="group" display="none"><path c_fontsize="4.5" c_fontfamily="" c_text="ZX-TYPEA-2-WCM4" d="M 4115.006 3312.4891 L 4117.866 3308.1991 M 4117.866 3312.4891 L 4115.006 3312.4891 M 4117.866 3308.1991 L 4115.006 3308.1991 M 4113.656 3312.4891 L 4110.786 3308.1991 M 4110.786 3312.4891 L 4113.656 3308.1991 M 4109.436 3310.0391 L 4105.756 3310.0391 M 4102.976 3312.4891 L 4102.976 3308.1991 M 4104.406 3312.4891 L 4101.546 3312.4891 M 4100.196 3312.4891 L 4098.556 3310.4491 L 4098.556 3308.1991 M 4096.916 3312.4891 L 4098.556 3310.4491 M 4095.566 3312.4891 L 4095.566 3308.1991 M 4095.566 3312.4891 L 4093.726 3312.4891 L 4093.116 3312.2891 L 4092.916 3312.0791 L 4092.706 3311.6691 L 4092.706 3311.0591 L 4092.916 3310.6491 L 4093.116 3310.4491 L 4093.726 3310.2391 L 4095.566 3310.2391 M 4091.356 3312.4891 L 4091.356 3308.1991 M 4091.356 3312.4891 L 4088.696 3312.4891 M 4091.356 3310.4491 L 4089.716 3310.4491 M 4091.356 3308.1991 L 4088.696 3308.1991 M 4085.716 3312.4891 L 4087.346 3308.1991 M 4085.716 3312.4891 L 4084.076 3308.1991 M 4086.736 3309.6291 L 4084.686 3309.6291 M 4082.726 3310.0391 L 4079.046 3310.0391 M 4077.486 3311.4691 L 4077.486 3311.6691 L 4077.286 3312.0791 L 4077.076 3312.2891 L 4076.666 3312.4891 L 4075.856 3312.4891 L 4075.446 3312.2891 L 4075.236 3312.0791 L 4075.036 3311.6691 L 4075.036 3311.2591 L 4075.236 3310.8491 L 4075.646 3310.2391 L 4077.696 3308.1991 L 4074.826 3308.1991 M 4073.476 3310.0391 L 4069.796 3310.0391 M 4068.446 3312.4891 L 4067.426 3308.1991 M 4066.406 3312.4891 L 4067.426 3308.1991 M 4066.406 3312.4891 L 4065.376 3308.1991 M 4064.356 3312.4891 L 4065.376 3308.1991 M 4059.936 3311.4691 L 4060.146 3311.8791 L 4060.556 3312.2891 L 4060.966 3312.4891 L 4061.776 3312.4891 L 4062.186 3312.2891 L 4062.596 3311.8791 L 4062.806 3311.4691 L 4063.006 3310.8491 L 4063.006 3309.8291 L 4062.806 3309.2191 L 4062.596 3308.8091 L 4062.186 3308.3991 L 4061.776 3308.1991 L 4060.966 3308.1991 L 4060.556 3308.3991 L 4060.146 3308.8091 L 4059.936 3309.2191 M 4058.586 3312.4891 L 4058.586 3308.1991 M 4058.586 3312.4891 L 4056.956 3308.1991 M 4055.316 3312.4891 L 4056.956 3308.1991 M 4055.316 3312.4891 L 4055.316 3308.1991 M 4051.916 3312.4891 L 4053.966 3309.6291 L 4050.896 3309.6291 M 4051.916 3312.4891 L 4051.916 3308.1991" fill="none"  stroke-width="0.6" c_note="note_name" /></g><g c_partid="part_pcbtext" c_etype="" c_origin="4117.866,3300.9491" c_rotation="180" c_mirror="" id="gge2709" locked="0" layerid="3" c_shapetype="group" ><path c_fontsize="4.5" c_fontfamily="" c_text="U4" d="M 4117.866 3305.4891 L 4117.866 3302.4191 L 4117.666 3301.8091 L 4117.256 3301.3991 L 4116.636 3301.1991 L 4116.226 3301.1991 L 4115.616 3301.3991 L 4115.206 3301.8091 L 4115.006 3302.4191 L 4115.006 3305.4891 M 4111.606 3305.4891 L 4113.656 3302.6291 L 4110.586 3302.6291 M 4111.606 3305.4891 L 4111.606 3301.1991" fill="none"  stroke-width="0.6" c_note="note_pre" /></g><g c_partid="part_pcbtext" c_etype="" c_origin="4112.134,3378.5509" c_rotation="0" c_mirror="" id="gge2859" locked="0" layerid="3" c_shapetype="group" display="none"><path c_fontsize="4.5" c_fontfamily="" c_text="ZX-TYPEA-2-WCM4" d="M 4114.994 3374.0109 L 4112.134 3378.3009 M 4112.134 3374.0109 L 4114.994 3374.0109 M 4112.134 3378.3009 L 4114.994 3378.3009 M 4116.344 3374.0109 L 4119.214 3378.3009 M 4119.214 3374.0109 L 4116.344 3378.3009 M 4120.564 3376.4609 L 4124.244 3376.4609 M 4127.024 3374.0109 L 4127.024 3378.3009 M 4125.594 3374.0109 L 4128.454 3374.0109 M 4129.804 3374.0109 L 4131.444 3376.0509 L 4131.444 3378.3009 M 4133.084 3374.0109 L 4131.444 3376.0509 M 4134.434 3374.0109 L 4134.434 3378.3009 M 4134.434 3374.0109 L 4136.274 3374.0109 L 4136.884 3374.2109 L 4137.084 3374.4209 L 4137.294 3374.8309 L 4137.294 3375.4409 L 4137.084 3375.8509 L 4136.884 3376.0509 L 4136.274 3376.2609 L 4134.434 3376.2609 M 4138.644 3374.0109 L 4138.644 3378.3009 M 4138.644 3374.0109 L 4141.304 3374.0109 M 4138.644 3376.0509 L 4140.284 3376.0509 M 4138.644 3378.3009 L 4141.304 3378.3009 M 4144.284 3374.0109 L 4142.654 3378.3009 M 4144.284 3374.0109 L 4145.924 3378.3009 M 4143.264 3376.8709 L 4145.314 3376.8709 M 4147.274 3376.4609 L 4150.954 3376.4609 M 4152.514 3375.0309 L 4152.514 3374.8309 L 4152.714 3374.4209 L 4152.924 3374.2109 L 4153.334 3374.0109 L 4154.144 3374.0109 L 4154.554 3374.2109 L 4154.764 3374.4209 L 4154.964 3374.8309 L 4154.964 3375.2409 L 4154.764 3375.6509 L 4154.354 3376.2609 L 4152.304 3378.3009 L 4155.174 3378.3009 M 4156.524 3376.4609 L 4160.204 3376.4609 M 4161.554 3374.0109 L 4162.574 3378.3009 M 4163.594 3374.0109 L 4162.574 3378.3009 M 4163.594 3374.0109 L 4164.624 3378.3009 M 4165.644 3374.0109 L 4164.624 3378.3009 M 4170.064 3375.0309 L 4169.854 3374.6209 L 4169.444 3374.2109 L 4169.034 3374.0109 L 4168.224 3374.0109 L 4167.814 3374.2109 L 4167.404 3374.6209 L 4167.194 3375.0309 L 4166.994 3375.6509 L 4166.994 3376.6709 L 4167.194 3377.2809 L 4167.404 3377.6909 L 4167.814 3378.1009 L 4168.224 3378.3009 L 4169.034 3378.3009 L 4169.444 3378.1009 L 4169.854 3377.6909 L 4170.064 3377.2809 M 4171.414 3374.0109 L 4171.414 3378.3009 M 4171.414 3374.0109 L 4173.044 3378.3009 M 4174.684 3374.0109 L 4173.044 3378.3009 M 4174.684 3374.0109 L 4174.684 3378.3009 M 4178.084 3374.0109 L 4176.034 3376.8709 L 4179.104 3376.8709 M 4178.084 3374.0109 L 4178.084 3378.3009" fill="none"  stroke-width="0.6" c_note="note_name" /></g><g c_partid="part_pcbtext" c_etype="" c_origin="4112.134,3385.5509" c_rotation="0" c_mirror="" id="gge2865" locked="0" layerid="3" c_shapetype="group" ><path c_fontsize="4.5" c_fontfamily="" c_text="U5" d="M 4112.134 3381.0109 L 4112.134 3384.0809 L 4112.334 3384.6909 L 4112.744 3385.1009 L 4113.364 3385.3009 L 4113.774 3385.3009 L 4114.384 3385.1009 L 4114.794 3384.6909 L 4114.994 3384.0809 L 4114.994 3381.0109 M 4118.804 3381.0109 L 4116.754 3381.0109 L 4116.554 3382.8509 L 4116.754 3382.6509 L 4117.374 3382.4409 L 4117.984 3382.4409 L 4118.594 3382.6509 L 4119.004 3383.0509 L 4119.214 3383.6709 L 4119.214 3384.0809 L 4119.004 3384.6909 L 4118.594 3385.1009 L 4117.984 3385.3009 L 4117.374 3385.3009 L 4116.754 3385.1009 L 4116.554 3384.9009 L 4116.344 3384.4909" fill="none"  stroke-width="0.6" c_note="note_pre" /></g><g c_partid="part_pcbtext" c_etype="" c_origin="4233.634,3355.0509" c_rotation="0" c_mirror="" id="gge3015" locked="0" layerid="3" c_shapetype="group" display="none"><path c_fontsize="4.5" c_fontfamily="" c_text="ZX-TYPEA-2-WCM4" d="M 4236.494 3350.5109 L 4233.634 3354.8009 M 4233.634 3350.5109 L 4236.494 3350.5109 M 4233.634 3354.8009 L 4236.494 3354.8009 M 4237.844 3350.5109 L 4240.714 3354.8009 M 4240.714 3350.5109 L 4237.844 3354.8009 M 4242.064 3352.9609 L 4245.744 3352.9609 M 4248.524 3350.5109 L 4248.524 3354.8009 M 4247.094 3350.5109 L 4249.954 3350.5109 M 4251.304 3350.5109 L 4252.944 3352.5509 L 4252.944 3354.8009 M 4254.584 3350.5109 L 4252.944 3352.5509 M 4255.934 3350.5109 L 4255.934 3354.8009 M 4255.934 3350.5109 L 4257.774 3350.5109 L 4258.384 3350.7109 L 4258.584 3350.9209 L 4258.794 3351.3309 L 4258.794 3351.9409 L 4258.584 3352.3509 L 4258.384 3352.5509 L 4257.774 3352.7609 L 4255.934 3352.7609 M 4260.144 3350.5109 L 4260.144 3354.8009 M 4260.144 3350.5109 L 4262.804 3350.5109 M 4260.144 3352.5509 L 4261.784 3352.5509 M 4260.144 3354.8009 L 4262.804 3354.8009 M 4265.784 3350.5109 L 4264.154 3354.8009 M 4265.784 3350.5109 L 4267.424 3354.8009 M 4264.764 3353.3709 L 4266.814 3353.3709 M 4268.774 3352.9609 L 4272.454 3352.9609 M 4274.014 3351.5309 L 4274.014 3351.3309 L 4274.214 3350.9209 L 4274.424 3350.7109 L 4274.834 3350.5109 L 4275.644 3350.5109 L 4276.054 3350.7109 L 4276.264 3350.9209 L 4276.464 3351.3309 L 4276.464 3351.7409 L 4276.264 3352.1509 L 4275.854 3352.7609 L 4273.804 3354.8009 L 4276.674 3354.8009 M 4278.024 3352.9609 L 4281.704 3352.9609 M 4283.054 3350.5109 L 4284.074 3354.8009 M 4285.094 3350.5109 L 4284.074 3354.8009 M 4285.094 3350.5109 L 4286.124 3354.8009 M 4287.144 3350.5109 L 4286.124 3354.8009 M 4291.564 3351.5309 L 4291.354 3351.1209 L 4290.944 3350.7109 L 4290.534 3350.5109 L 4289.724 3350.5109 L 4289.314 3350.7109 L 4288.904 3351.1209 L 4288.694 3351.5309 L 4288.494 3352.1509 L 4288.494 3353.1709 L 4288.694 3353.7809 L 4288.904 3354.1909 L 4289.314 3354.6009 L 4289.724 3354.8009 L 4290.534 3354.8009 L 4290.944 3354.6009 L 4291.354 3354.1909 L 4291.564 3353.7809 M 4292.914 3350.5109 L 4292.914 3354.8009 M 4292.914 3350.5109 L 4294.544 3354.8009 M 4296.184 3350.5109 L 4294.544 3354.8009 M 4296.184 3350.5109 L 4296.184 3354.8009 M 4299.584 3350.5109 L 4297.534 3353.3709 L 4300.604 3353.3709 M 4299.584 3350.5109 L 4299.584 3354.8009" fill="none"  stroke-width="0.6" c_note="note_name" /></g><g c_partid="part_pcbtext" c_etype="" c_origin="4233.634,3362.0509" c_rotation="0" c_mirror="" id="gge3021" locked="0" layerid="3" c_shapetype="group" ><path c_fontsize="4.5" c_fontfamily="" c_text="U6" d="M 4233.634 3357.5109 L 4233.634 3360.5809 L 4233.834 3361.1909 L 4234.244 3361.6009 L 4234.864 3361.8009 L 4235.274 3361.8009 L 4235.884 3361.6009 L 4236.294 3361.1909 L 4236.494 3360.5809 L 4236.494 3357.5109 M 4240.304 3358.1209 L 4240.094 3357.7109 L 4239.484 3357.5109 L 4239.074 3357.5109 L 4238.464 3357.7109 L 4238.054 3358.3309 L 4237.844 3359.3509 L 4237.844 3360.3709 L 4238.054 3361.1909 L 4238.464 3361.6009 L 4239.074 3361.8009 L 4239.284 3361.8009 L 4239.894 3361.6009 L 4240.304 3361.1909 L 4240.504 3360.5809 L 4240.504 3360.3709 L 4240.304 3359.7609 L 4239.894 3359.3509 L 4239.284 3359.1509 L 4239.074 3359.1509 L 4238.464 3359.3509 L 4238.054 3359.7609 L 4237.844 3360.3709" fill="none"  stroke-width="0.6" c_note="note_pre" /></g><g c_partid="part_pcbtext" c_etype="" c_origin="4051.669,3347.0585" c_rotation="270" c_mirror="" id="gge3819" locked="0" layerid="3" c_shapetype="group" display="none"><path c_fontsize="4.5" c_fontfamily="" c_text="USB-05" d="M 4056.209 3347.0585 L 4053.139 3347.0585 L 4052.529 3347.2585 L 4052.119 3347.6685 L 4051.919 3348.2885 L 4051.919 3348.6985 L 4052.119 3349.3085 L 4052.529 3349.7185 L 4053.139 3349.9185 L 4056.209 3349.9185 M 4055.599 3354.1385 L 4056.009 3353.7285 L 4056.209 3353.1085 L 4056.209 3352.2985 L 4056.009 3351.6785 L 4055.599 3351.2685 L 4055.189 3351.2685 L 4054.779 3351.4785 L 4054.569 3351.6785 L 4054.369 3352.0885 L 4053.959 3353.3185 L 4053.759 3353.7285 L 4053.549 3353.9285 L 4053.139 3354.1385 L 4052.529 3354.1385 L 4052.119 3353.7285 L 4051.919 3353.1085 L 4051.919 3352.2985 L 4052.119 3351.6785 L 4052.529 3351.2685 M 4056.209 3355.4885 L 4051.919 3355.4885 M 4056.209 3355.4885 L 4056.209 3357.3285 L 4056.009 3357.9385 L 4055.799 3358.1485 L 4055.389 3358.3485 L 4054.979 3358.3485 L 4054.569 3358.1485 L 4054.369 3357.9385 L 4054.169 3357.3285 M 4054.169 3355.4885 L 4054.169 3357.3285 L 4053.959 3357.9385 L 4053.759 3358.1485 L 4053.349 3358.3485 L 4052.729 3358.3485 L 4052.319 3358.1485 L 4052.119 3357.9385 L 4051.919 3357.3285 L 4051.919 3355.4885 M 4053.759 3359.6985 L 4053.759 3363.3785 M 4056.209 3365.9585 L 4056.009 3365.3485 L 4055.389 3364.9385 L 4054.369 3364.7285 L 4053.759 3364.7285 L 4052.729 3364.9385 L 4052.119 3365.3485 L 4051.919 3365.9585 L 4051.919 3366.3685 L 4052.119 3366.9785 L 4052.729 3367.3885 L 4053.759 3367.5985 L 4054.369 3367.5985 L 4055.389 3367.3885 L 4056.009 3366.9785 L 4056.209 3366.3685 L 4056.209 3365.9585 M 4056.209 3371.3985 L 4056.209 3369.3585 L 4054.369 3369.1485 L 4054.569 3369.3585 L 4054.779 3369.9685 L 4054.779 3370.5785 L 4054.569 3371.1985 L 4054.169 3371.6085 L 4053.549 3371.8085 L 4053.139 3371.8085 L 4052.529 3371.6085 L 4052.119 3371.1985 L 4051.919 3370.5785 L 4051.919 3369.9685 L 4052.119 3369.3585 L 4052.319 3369.1485 L 4052.729 3368.9485" fill="none"  stroke-width="0.6" c_note="note_name" /></g><g c_partid="part_pcbtext" c_etype="" c_origin="4044.669,3347.0585" c_rotation="270" c_mirror="" id="gge3825" locked="0" layerid="3" c_shapetype="group" ><path c_fontsize="4.5" c_fontfamily="" c_text="USB1" d="M 4049.209 3347.0585 L 4046.139 3347.0585 L 4045.529 3347.2585 L 4045.119 3347.6685 L 4044.919 3348.2885 L 4044.919 3348.6985 L 4045.119 3349.3085 L 4045.529 3349.7185 L 4046.139 3349.9185 L 4049.209 3349.9185 M 4048.599 3354.1385 L 4049.009 3353.7285 L 4049.209 3353.1085 L 4049.209 3352.2985 L 4049.009 3351.6785 L 4048.599 3351.2685 L 4048.189 3351.2685 L 4047.779 3351.4785 L 4047.569 3351.6785 L 4047.369 3352.0885 L 4046.959 3353.3185 L 4046.759 3353.7285 L 4046.549 3353.9285 L 4046.139 3354.1385 L 4045.529 3354.1385 L 4045.119 3353.7285 L 4044.919 3353.1085 L 4044.919 3352.2985 L 4045.119 3351.6785 L 4045.529 3351.2685 M 4049.209 3355.4885 L 4044.919 3355.4885 M 4049.209 3355.4885 L 4049.209 3357.3285 L 4049.009 3357.9385 L 4048.799 3358.1485 L 4048.389 3358.3485 L 4047.979 3358.3485 L 4047.569 3358.1485 L 4047.369 3357.9385 L 4047.169 3357.3285 M 4047.169 3355.4885 L 4047.169 3357.3285 L 4046.959 3357.9385 L 4046.759 3358.1485 L 4046.349 3358.3485 L 4045.729 3358.3485 L 4045.319 3358.1485 L 4045.119 3357.9385 L 4044.919 3357.3285 L 4044.919 3355.4885 M 4048.389 3359.6985 L 4048.599 3360.1085 L 4049.209 3360.7185 L 4044.919 3360.7185" fill="none"  stroke-width="0.6" c_note="note_pre" /></g><path d="M 4075.0335 3329.0969 A 1.2198 1.2198 0 0 1 4073.8137 3330.3167" locked="0"  fill="none" stroke-width="1" c_helper_type="arc2" net="" layerid="3" id="gge48" /><path d="M 4073.8137 3324.7275 A 1.2198 1.2198 0 0 1 4075.0335 3325.9474" locked="0"  fill="none" stroke-width="1" c_helper_type="arc2" net="" layerid="3" id="gge51" /><path d="M 4065.2473 3330.2938 A 1.2198 1.2198 0 0 1 4064.0275 3329.0739" locked="0"  fill="none" stroke-width="1" c_helper_type="arc2" net="" layerid="3" id="gge54" /><path d="M 4064.0275 3325.9244 A 1.2198 1.2198 0 0 1 4065.2473 3324.7046" locked="0"  fill="none" stroke-width="1" c_helper_type="arc2" net="" layerid="3" id="gge57" /><path d="M 4201.5335 3361.0969 A 1.2198 1.2198 0 0 1 4200.3137 3362.3167" locked="0"  fill="none" stroke-width="1" c_helper_type="arc2" net="" layerid="3" id="gge144" /><path d="M 4200.3137 3356.7275 A 1.2198 1.2198 0 0 1 4201.5335 3357.9474" locked="0"  fill="none" stroke-width="1" c_helper_type="arc2" net="" layerid="3" id="gge147" /><path d="M 4191.7473 3362.2938 A 1.2198 1.2198 0 0 1 4190.5275 3361.0739" locked="0"  fill="none" stroke-width="1" c_helper_type="arc2" net="" layerid="3" id="gge150" /><path d="M 4190.5275 3357.9244 A 1.2198 1.2198 0 0 1 4191.7473 3356.7046" locked="0"  fill="none" stroke-width="1" c_helper_type="arc2" net="" layerid="3" id="gge153" /><path d="M 4247.5969 3309.4665 A 1.2198 1.2198 0 0 1 4248.8167 3310.6863" locked="0"  fill="none" stroke-width="1" c_helper_type="arc2" net="" layerid="3" id="gge240" /><path d="M 4243.2275 3310.6863 A 1.2198 1.2198 0 0 1 4244.4474 3309.4665" locked="0"  fill="none" stroke-width="1" c_helper_type="arc2" net="" layerid="3" id="gge243" /><path d="M 4248.7938 3319.2527 A 1.2198 1.2198 0 0 1 4247.5739 3320.4725" locked="0"  fill="none" stroke-width="1" c_helper_type="arc2" net="" layerid="3" id="gge246" /><path d="M 4244.4244 3320.4725 A 1.2198 1.2198 0 0 1 4243.2046 3319.2527" locked="0"  fill="none" stroke-width="1" c_helper_type="arc2" net="" layerid="3" id="gge249" /><path d="M 4100.9665 3374.4031 A 1.2198 1.2198 0 0 1 4102.1863 3373.1833" locked="0"  fill="none" stroke-width="1" c_helper_type="arc2" net="" layerid="3" id="gge336" /><path d="M 4102.1863 3378.7725 A 1.2198 1.2198 0 0 1 4100.9665 3377.5526" locked="0"  fill="none" stroke-width="1" c_helper_type="arc2" net="" layerid="3" id="gge339" /><path d="M 4110.7527 3373.2062 A 1.2198 1.2198 0 0 1 4111.9725 3374.4261" locked="0"  fill="none" stroke-width="1" c_helper_type="arc2" net="" layerid="3" id="gge342" /><path d="M 4111.9725 3377.5756 A 1.2198 1.2198 0 0 1 4110.7527 3378.7954" locked="0"  fill="none" stroke-width="1" c_helper_type="arc2" net="" layerid="3" id="gge345" /><path d="M 4102.9031 3324.5335 A 1.2198 1.2198 0 0 1 4101.6833 3323.3137" locked="0"  fill="none" stroke-width="1" c_helper_type="arc2" net="" layerid="3" id="gge432" /><path d="M 4107.2725 3323.3137 A 1.2198 1.2198 0 0 1 4106.0526 3324.5335" locked="0"  fill="none" stroke-width="1" c_helper_type="arc2" net="" layerid="3" id="gge435" /><path d="M 4101.7062 3314.7473 A 1.2198 1.2198 0 0 1 4102.9261 3313.5275" locked="0"  fill="none" stroke-width="1" c_helper_type="arc2" net="" layerid="3" id="gge438" /><path d="M 4106.0756 3313.5275 A 1.2198 1.2198 0 0 1 4107.2954 3314.7473" locked="0"  fill="none" stroke-width="1" c_helper_type="arc2" net="" layerid="3" id="gge441" /><path d="M 4178.0969 3356.9665 A 1.2198 1.2198 0 0 1 4179.3167 3358.1863" locked="0"  fill="none" stroke-width="1" c_helper_type="arc2" net="" layerid="3" id="gge528" /><path d="M 4173.7275 3358.1863 A 1.2198 1.2198 0 0 1 4174.9474 3356.9665" locked="0"  fill="none" stroke-width="1" c_helper_type="arc2" net="" layerid="3" id="gge531" /><path d="M 4179.2938 3366.7527 A 1.2198 1.2198 0 0 1 4178.0739 3367.9725" locked="0"  fill="none" stroke-width="1" c_helper_type="arc2" net="" layerid="3" id="gge534" /><path d="M 4174.9244 3367.9725 A 1.2198 1.2198 0 0 1 4173.7046 3366.7527" locked="0"  fill="none" stroke-width="1" c_helper_type="arc2" net="" layerid="3" id="gge537" /><path d="M 4168.0969 3356.4665 A 1.2198 1.2198 0 0 1 4169.3167 3357.6863" locked="0"  fill="none" stroke-width="1" c_helper_type="arc2" net="" layerid="3" id="gge624" /><path d="M 4163.7275 3357.6863 A 1.2198 1.2198 0 0 1 4164.9474 3356.4665" locked="0"  fill="none" stroke-width="1" c_helper_type="arc2" net="" layerid="3" id="gge627" /><path d="M 4169.2938 3366.2527 A 1.2198 1.2198 0 0 1 4168.0739 3367.4725" locked="0"  fill="none" stroke-width="1" c_helper_type="arc2" net="" layerid="3" id="gge630" /><path d="M 4164.9244 3367.4725 A 1.2198 1.2198 0 0 1 4163.7046 3366.2527" locked="0"  fill="none" stroke-width="1" c_helper_type="arc2" net="" layerid="3" id="gge633" /><circle cx="4186.5" cy="3323.488" r="0.591" stroke-width="1.1811" fill="none" layerid="3" id="gge2289" locked="0"  /><circle cx="4189.383" cy="3316.191" r="0.591" stroke-width="1.1811" fill="none" layerid="3" id="gge2292" locked="0"  /><path d="M 4080.0511 3363.6591 L 4080.0511 3362.2717 L 4081.2511 3362.2717 L 4081.2511 3363.6591 Z " stroke-width="0"   net="" type="solid" layerid="3" id="gge723" locked="0" c_teardrop="" c_targetpad="" c_targetwire="" /><path d="M 4080.0511 3357.3409 L 4080.0511 3358.7283 L 4081.2511 3358.7283 L 4081.2511 3357.3409 Z " stroke-width="0"   net="" type="solid" layerid="3" id="gge726" locked="0" c_teardrop="" c_targetpad="" c_targetwire="" /><polyline points="4019.5394 3322.0795 4019.5394 3372.0795" stroke-width="1"  stroke-linecap="round" fill="none" layerid="10" net="" id="gge3834" locked="0" /><polyline points="4019.2076 3372.0795 3960.6075 3372.0795" stroke-width="1"  stroke-linecap="round" fill="none" layerid="10" net="" id="gge3837" locked="0" /><polyline points="4019.2076 3322.0795 3960.5475 3322.0795" stroke-width="1"  stroke-linecap="round" fill="none" layerid="10" net="" id="gge3840" locked="0" /></svg>